<?xml version="1.0" encoding="UTF-8" standalone="no"?>
<svg
   xmlns:dc="http://purl.org/dc/elements/1.1/"
   xmlns:cc="http://creativecommons.org/ns#"
   xmlns:rdf="http://www.w3.org/1999/02/22-rdf-syntax-ns#"
   xmlns:svg="http://www.w3.org/2000/svg"
   xmlns="http://www.w3.org/2000/svg"
   viewBox="0 0 542.505 406.92126"
   height="406.92126"
   width="542.505"
   xml:space="preserve"
   version="1.1"
   id="svg2"><metadata
     id="metadata8"><rdf:RDF><cc:Work
         rdf:about=""><dc:format>image/svg+xml</dc:format><dc:type
           rdf:resource="http://purl.org/dc/dcmitype/StillImage" /></cc:Work></rdf:RDF></metadata><defs
     id="defs6"><clipPath
       id="clipPath16"
       clipPathUnits="userSpaceOnUse"><path
         id="path18"
         d="m 0,325.537 434.004,0 L 434.004,0 0,0 0,325.537 Z" /></clipPath></defs><g
     transform="matrix(1.25,0,0,-1.25,0,406.92125)"
     id="g10"><g
       id="g12"><g
         clip-path="url(#clipPath16)"
         id="g14"><g
           transform="translate(103.0146,307.2905)"
           id="g20"><path
             id="path22"
             style="fill:#373535;fill-opacity:1;fill-rule:nonzero;stroke:none"
             d="m 0,0 c -12.544,0 -41.434,-10.264 -41.434,-32.881 0,-6.462 6.082,-10.644 12.924,-10.644 11.024,0 35.352,17.676 35.352,37.253 0,2.09 -0.19,4.181 -0.57,6.082 C 4.181,0 2.09,0 0,0 m -15.775,15.965 c -17.867,0 -32.691,-14.634 -36.493,-19.576 -0.38,-0.571 -1.14,-0.571 -1.711,-0.19 -0.569,0.38 -0.569,1.14 -0.189,1.71 0.189,0.19 16.155,20.337 38.393,20.337 9.883,0 17.105,-4.182 21.096,-10.643 3.232,0.379 6.463,0.569 9.694,0.569 14.634,0 26.609,-3.991 38.393,-7.792 4.371,2.661 9.123,5.322 14.064,7.602 0.57,0.19 1.331,0.19 1.521,-0.379 0.19,-0.571 0.19,-1.331 -0.38,-1.521 C 64.431,4.181 60.25,1.71 56.639,-0.57 c 9.503,-3.041 19.196,-5.512 30.22,-5.512 9.883,0 17.676,3.231 17.676,3.231 0.57,0.19 1.14,0 1.33,-0.57 0.19,-0.571 0,-1.141 -0.57,-1.33 0,0 -10.834,-6.082 -31.17,-6.082 -11.024,0 -20.147,0.95 -28.13,2.47 l -6.652,-5.702 C 24.138,-27.179 1.14,-84.008 -15.396,-95.412 c -10.453,-7.222 -26.608,-21.287 -55.118,-21.287 -17.866,0 -32.501,11.024 -32.501,27.749 0,25.849 25.849,45.616 47.516,45.616 12.354,0 22.618,-9.694 22.618,-22.048 0,-15.585 -16.156,-31.17 -24.708,-31.17 -0.571,0 -1.141,0.57 -1.141,1.14 0,0.57 0.57,1.141 1.141,1.141 7.412,0 22.427,14.824 22.427,28.889 0,11.214 -9.123,19.767 -20.337,19.767 -20.336,0 -45.235,-18.627 -45.235,-43.335 0,-15.205 13.495,-25.468 30.22,-25.468 23.758,0 42.004,22.998 61.961,49.986 14.065,19.007 28.699,40.104 50.366,56.829 -12.354,2.471 -22.427,5.893 -33.26,7.033 0.38,-1.901 0.57,-3.802 0.57,-5.702 0,-20.717 -25.089,-39.533 -37.633,-39.533 -7.982,0 -15.205,5.131 -15.205,12.924 0,20.907 22.048,36.302 46.566,40.103 -3.612,5.322 -9.884,8.743 -18.626,8.743" /></g><g
           transform="translate(180.5605,226.8936)"
           id="g24"><path
             id="path26"
             style="fill:#373535;fill-opacity:1;fill-rule:nonzero;stroke:none"
             d="m 0,0 c -10.073,-11.404 -31.17,-34.211 -41.244,-34.211 -6.085,0 -8.552,2.28 -8.552,8.362 0,17.867 37.822,40.666 37.822,49.607 0,0.95 -0.38,2.091 -1.33,2.091 -8.553,0 -32.691,-21.477 -37.633,-27.749 l -25.278,-31.551 -13.685,0 85.909,107.196 13.684,0 -47.706,-59.49 c 7.413,5.891 18.246,14.064 25.849,14.064 3.231,0 5.892,-2.846 5.892,-7.032 0,-18.816 -36.682,-38.773 -36.682,-49.606 0,-1.521 0.95,-3.422 3.231,-3.422 5.892,0 23.568,16.536 36.492,31.741 L 0,0 Z" /></g><g
           transform="translate(195.9531,211.4985)"
           id="g28"><path
             id="path30"
             style="fill:#373535;fill-opacity:1;fill-rule:nonzero;stroke:none"
             d="m 0,0 21.667,26.229 c 3.231,3.801 5.892,9.123 5.892,11.213 0,2.091 -1.52,3.802 -3.611,3.802 -7.603,0 -47.326,-45.995 -47.326,-54.168 0,-1.521 0.95,-2.281 2.091,-2.281 5.322,0 19.766,13.304 21.287,15.205 m 7.603,-19.577 c -3.802,0 -8.363,2.281 -8.363,7.793 0,3.421 0.57,6.082 1.71,9.313 -3.611,-3.801 -16.346,-15.965 -23.568,-15.965 -4.561,0 -7.602,4.181 -7.602,8.743 0,26.038 43.714,53.407 54.548,53.407 3.611,0 6.842,-3.231 6.462,-6.842 l 4.752,5.702 13.685,0 L 13.494,-0.38 c -1.96,-2.357 -7.792,-11.594 -7.792,-13.875 0,-1.71 0.76,-2.661 2.28,-2.661 7.223,0 24.899,19.197 36.873,32.311 l 3.231,0 C 39.723,5.892 16.726,-19.577 7.603,-19.577" /></g><g
           transform="translate(270.6475,224.8027)"
           id="g32"><path
             id="path34"
             style="fill:#373535;fill-opacity:1;fill-rule:nonzero;stroke:none"
             d="m 0,0 -26.419,-31.36 -14.255,0 40.484,49.036 c 1.52,1.901 4.18,4.371 4.18,7.793 0,0.95 -0.38,2.091 -1.519,2.091 -4.752,0 -16.346,-11.785 -29.271,-25.469 l -3.231,0 c 13.875,14.825 26.8,28.319 32.691,28.319 5.322,0 7.983,-3.041 7.983,-8.173 0,-2.47 -2.471,-7.032 -4.942,-11.973 2.661,2.47 20.337,20.146 30.41,20.146 3.612,0 6.653,-2.281 6.653,-7.602 0,-16.916 -35.162,-43.12 -35.162,-49.607 0,-1.14 0.76,-2.091 2.09,-2.091 7.226,0 28.701,21.858 37.063,30.981 l 3.231,0 C 37.632,-11.214 17.678,-31.931 9.502,-31.931 c -5.131,0 -7.602,2.091 -7.602,6.653 0,21.29 34.592,44.665 34.592,50.556 0,1.141 -0.951,2.091 -1.901,2.091 C 27.746,27.369 6.651,7.603 0,0" /></g><g
           transform="translate(340.5889,229.3643)"
           id="g36"><path
             id="path38"
             style="fill:#373535;fill-opacity:1;fill-rule:nonzero;stroke:none"
             d="m 0,0 c 10.073,3.041 26.039,16.916 26.039,22.047 0,0.571 -0.381,1.141 -1.331,1.141 C 19.006,23.188 1.141,10.644 -4.752,2.281 -3.422,1.901 -1.141,0.76 0,0 m 35.162,-2.471 c -8.743,-8.362 -30.6,-34.211 -40.674,-34.211 -6.842,0 -9.123,3.421 -9.123,8.173 0,10.263 12.354,17.102 12.354,23.377 0,0.761 -0.76,1.141 -0.76,1.141 0,0 -4.752,0.19 -7.223,0.76 l -26.039,-32.691 -13.683,0 85.908,107.196 13.685,0 L 5.701,16.536 c 7.413,5.511 14.445,9.313 22.428,9.313 4.752,0 7.033,-1.521 7.033,-6.272 0,-12.354 -20.527,-21.668 -31.361,-22.808 1.331,-1.52 2.661,-4.561 2.661,-7.792 0,-8.934 -11.403,-17.486 -11.403,-20.527 0,-1.141 0,-1.711 1.14,-1.711 7.222,0 26.609,21.857 35.732,30.79 l 3.231,0 z" /></g><g
           transform="translate(222.4668,132.8545)"
           id="g40"><path
             id="path42"
             style="fill:#373535;fill-opacity:1;fill-rule:nonzero;stroke:none"
             d="m 0,0 c 0,-7.223 5.702,-11.784 14.445,-11.784 13.305,0 38.583,22.237 38.583,44.855 0,2.66 -0.381,5.131 -0.95,7.032 C 25.659,39.153 0,18.626 0,0 m -15.395,-127.152 c 0,-2.091 1.52,-3.422 3.801,-3.422 6.462,0 19.767,15.775 34.972,34.021 l 3.991,4.752 c -23.758,-8.173 -42.764,-23.758 -42.764,-35.351 m 22.237,45.804 c -5.511,0 -11.214,3.041 -11.214,13.115 0,39.533 72.225,68.233 72.225,94.841 0,7.983 -4.752,13.305 -13.495,13.495 0.57,-2.091 0.951,-4.372 0.951,-7.032 0,-23.568 -26.039,-47.136 -40.864,-47.136 -9.883,0 -16.726,5.322 -16.726,14.065 0,20.146 26.609,40.863 53.408,42.384 -2.661,4.941 -8.172,6.842 -15.585,6.842 -14.065,0 -23.948,-8.363 -33.071,-15.775 -0.57,-0.38 -1.331,-0.38 -1.711,0.19 -0.38,0.57 -0.38,1.33 0.19,1.711 9.123,7.412 19.387,16.155 34.592,16.155 8.933,0 15.205,-2.851 18.056,-9.123 l 0.38,0 c 10.454,0 17.486,-6.082 17.486,-17.106 0,-34.212 -69.563,-78.306 -69.563,-99.214 0,-2.089 0.76,-5.13 4.941,-5.13 16.346,0 54.359,33.07 83.438,64.431 l 41.244,50.177 12.354,0 -98.833,-120.501 c 4.182,0.761 8.553,1.141 12.734,1.141 0.571,0 1.14,-0.571 1.14,-1.141 0,-0.57 -0.569,-1.141 -1.14,-1.141 -4.942,0 -10.073,-0.569 -15.015,-1.519 l -8.743,-10.645 c -10.263,-12.353 -31.36,-34.59 -45.615,-34.59 -3.421,0 -6.082,2.28 -6.082,5.702 0,13.303 21.477,30.599 47.706,38.772 l 44.475,54.168 C 49.987,-58.35 21.477,-81.348 6.842,-81.348" /></g><g
           transform="translate(345.2456,76.0254)"
           id="g44"><path
             id="path46"
             style="fill:#373535;fill-opacity:1;fill-rule:nonzero;stroke:none"
             d="m 0,0 c -0.57,1.33 -0.95,2.851 -0.95,4.751 0,4.752 5.322,10.834 10.834,10.834 0.57,0 1.14,-0.19 1.71,-0.38 4.562,7.032 7.603,13.304 7.603,17.106 0,1.52 -0.951,3.041 -2.281,3.041 -4.942,0 -48.276,-45.045 -48.276,-55.879 0,-1.14 0.76,-2.281 1.901,-2.281 6.651,0 19.006,10.644 29.459,22.808 m 7.223,-4.752 c -2.281,0 -2.851,0.38 -4.562,1.331 -11.214,-12.164 -24.518,-22.048 -32.501,-22.048 -4.371,0 -7.792,3.802 -7.792,8.173 0,28.699 40.103,55.118 55.118,55.118 3.231,0 5.702,-2.47 5.702,-5.702 0,-8.553 -8.363,-21.857 -18.816,-33.641 1.14,-0.76 1.33,-0.95 2.851,-0.95 4.561,0 11.784,7.603 16.155,11.974 l 3.231,0 C 23.948,6.842 14.065,-4.752 7.223,-4.752" /></g><g
           transform="translate(419.7495,112.707)"
           id="g48"><path
             id="path50"
             style="fill:#373535;fill-opacity:1;fill-rule:nonzero;stroke:none"
             d="m 0,0 14.255,0 -37.253,-44.284 c -1.14,-1.331 -7.792,-10.073 -7.792,-12.545 0,-1.71 1.14,-2.66 3.041,-2.66 9.123,0 28.699,21.096 38.772,32.31 l 3.232,0 c -5.893,-7.032 -31.551,-34.971 -42.194,-34.971 -3.992,0 -8.553,2.47 -8.553,8.172 0,2.091 0.569,4.562 1.71,7.413 -7.032,-7.413 -14.825,-14.065 -20.717,-14.065 -3.991,0 -8.553,2.471 -8.553,8.173 0,6.462 2.091,11.403 9.123,20.337 L -29.46,0 -15.205,0 -50.557,-42.764 c -1.14,-1.331 -7.793,-10.073 -7.793,-12.544 0,-1.711 1.141,-2.661 3.041,-2.661 5.512,0 17.296,11.594 26.419,22.808 L 0,0 Z" /></g></g></g></g></svg>