<svg xmlns="http://www.w3.org/2000/svg" width="562" height="356" viewBox="0 0 562 356"><path d="M273.987 209.513v-2.024l2.557-2.45c1.292.184 2.943-.76 4.19 1.528.716 4.69 3.355 9.283 5.582 14.27h5.96c1.23.882.36 2.073.732 2.654 1.857 1.984 3.885 2.718 6.44 2.488 3.898 4.392 9.553 6.3 14.494 9.077v5.412c-.396.916-1.78 1.27-2.006 2.93 1.027.555 2.183 1.177 3.238 1.746 2.39-1.636-1.5-2.505-.145-3.625-.212-1.875 1.882-2.032 1.97-3.453.41-3.213-3.106-4.162-3.873-6.72.74-.472 1.004-1.204.93-1.992 4.357-1.58 8.36 1.47 12.55.54l3.395-3.395c-.757-2.6 1.345-3.358 3.685-4.186 2.532.844 2.452 3.764 3.202 5.935.583 1.69 1.08 3.27 2.633 4.76.542-.034 1.594.227 2.06-.18 5.12-4.482 12.538-5.647 17.282-11.694h3.743c.583 1.344 2.654.312 2.89 2.206 1.79-1.297 4.037-1.286 4.63-3.736-1.584-1.176-2.932-.66-4.087.756-.75-.65-1.227-1.066-1.68-1.46-.274-3.318-.274-3.318 1.827-8.688 1.164-.36 2.4-.32 3.743-.007l.1 2.108c.033.08.062.248.158.36 1.068 1.247 2.145 2.486 2.81 3.255 2.377.21 2.53-1.888 3.654-1.92 1.365-.096 1.505 1.058 2.44 1.33-.832 4.04 1.164 6.86 4.114 9.294l-2.478 4.842c1.647 2.1 1.334 4.553 1.25 6.425-.69.96-1.164 1.615-1.562 2.17-1.77-.287-2.35-1.337-2.564-2.766-4.552-.973-9.142-1.872-13.152-3.29-1.654-.103-2.04.94-2.782 1.67.617 1.23.86 2.66 2.015 3.766v7.977c-.616 1.13-1.598 1.84-3.135 1.555-.238-.142-.72-.28-.74-.465-.226-2.1-1.485-2.736-3.517-2.456-2.023 1.122-1.862 3.824-3.64 5.58v3.784c-1.13 1.988-2.73 1.52-4.55 1.59-.122-2.7-3.495-3.305-3.723-6.028-1.812-.04-2.408 1.886-4.596 1.333l-1.746-2.16h-4.758c-3.56 1.94-4.014 6.72-7.925 8.658-1.102-1.4-2.818-.498-4.25-.97-.554-1.626-1.682-3.07-1.358-4.95.302-1.75-1.372-2.566-1.49-4.05-2.284.414-1.02 2.062-1.688 2.84-4.047 1.11-7.892 2.993-12.653 2.347-.083-.515-.378-1.97-1.47-3.456.883-.575 1.715-1.115 2.61-1.696-.75-.805-1.177-1.26-1.85-1.978-2.012 1.063-4.493 1.232-6.46 2.784-.083 1.436 1.324 1.795 1.97 2.83v3.14c-3.982 1.688-8.18 2.742-12.573 2.275-.97-1.398.348-3.1-1.125-4.304-.435-.354-.45-1.63-.207-2.328.58-1.67 1.118-3.28.98-5.105-.14-1.822-.032-3.664-.032-5.553-1.888-2.72-4.774-3.36-7.845-3.653-3.073-.292-5.165 1.356-7.086 3.428-.906.977-1.88 1.89-2.97 2.983l-.146 2.6c-.762 2.613-3.114 1.42-3.956 2.41-.664-.666-1.408-1.413-2.15-2.16-1.995-5.546-3.71-11.49-9.263-14.9-5.373.607-8.496 5.693-13.464 6.737-2.328-.768-2.758-2.852-1.998-4.037 1.685-2.63-.093-5.79 1.83-8.284.852-1.103-1.182-1.837-.878-3.454l1.902-1.47c1.462 1.396 3.683 1.997 5.32 4.06-2.248 2.202-3.32 4.987-3.96 8.25 3.67-1.06 4.42-4.392 5.894-7.107 1.022.722 1.99 1.134 3.078.96.833-.29.675-1.015.74-1.545.763-1.047 2.023.09 2.92-.94-.47-2.593-2.317-5.012-1.966-7.934 1.635-.926 3.2-2.098 5.72-1.384l2.317 2.786h7.474c2.323-2.328 4.14-4.145 6.47-6.475zm67.875 33.404l1.81 3.317c2.103-1.438 5.28-1.096 6.34-4.242-.724-2.86-3.914-1.377-5.55-3.373.105 2.19-1.74 2.747-2.6 4.297zm-11.376-7.03c-1.363 2.4-5.062 2.352-5.585 5.584 1.237.907 2.51.457 3.917.423.77-1.524 2.682-2.2 3.304-4.145l-1.634-1.86zm-33.408 3.26l1.696-.326c.552-1.512.192-2.59-.928-3.515-.346-.285-.478-.392-.768.174v3.666zm-29.992-10.492c.856-1.513 3.028.017 4.41-1.877-1.9.447-3.115-.16-4.41.563v1.315zm20.394 9.95c2.425.193 2.425.193 2.11-1.316l-2.11 1.316zm-10.702-14.31c-.482.253-1.33-.988-1.64.377.605.483 1.158.517 1.64-.376zM80 200.603v2.834l-3.998 2.428c-3.8-1.033-7.493-4.442-12.428-6.87l4.23 8.697c-.973 1.77-2.788 1.564-4.326 1.224-5.23-1.158-5.618-1-9.79-.204-2.95.563-6.115 1.104-9.053-1l-2.074 2.65 3.858 3.846c.29 1.173 1.193.628 1.51.7l2.964 2.448c.225 1.05-.07 1.487-.492 1.723-2.427 1.36-4.88 2.675-7.158 3.916-1.247.092-1.393-1.056-2.185-1.294V217.5l-3.833-3.247c-.816 1.722.748 4.316-1.45 5.73 1.86 2.248 1.86 2.248 2.228 4.444-.33 1.02-2.49.124-2.16 2.106.047.277-.612 1.686-1.226 2.362-.738.272-1.287.057-1.743-.516-.405-.51-.84-.995-1.215-1.437-2.592 1.275-4.526 1.11-4.507-.453.033-2.61-1.598-3.22-3.27-4.127-.28-.152-.476-.46-.712-.695-.29-1.342-.52-2.666 1.186-3.397 1.286-.727 3.307.525 4.313-1.52.722-7.816.593-10.724-.603-13.31.47-.472.942-.943 1.573-1.574 3.73 1.744 7.744 2.52 12.307 2.01-.653-1.083-1.326-2.138-.914-3.433 1.04-1.06 2.527.032 3.86-.75l3.267-4.83c-1.014-1.557-1.233.223-1.87.16-.823-.084-1.662-.02-2.736-.02l-2.46 2.986h-2.544l-3.476-5.556 1.432-1.432c2.403 0 4.903.16 7.373-.046 2.34-.196 4.48-1.64 7.108-.673-.925-3.52-.903-4.263.02-6.696-.684-.926-2.15-.668-2.966-2.32.206-1.538-.257-3.517-1.19-4.736.5-2.228 1.96-2.32 3.04-2.9.666-1.563-1.854-2.42-.806-4.108.156-.13.37-.457.63-.5 2.912-.473 4.923 1.58 7.27 2.498.31 1.888-2.26 2.073-1.96 3.958 1.025.974 2.35.37 3.558.452.998-.718-.1-1.967.816-2.823h3.848l4.76 2.446c.146 1.548-1.28 1.902-1.94 2.96v2.958c-2.567 2.385-4.743 5.282-8.113 6.848.295 2.8 2.713 4.308 3.538 6.72 1.995-.013 2.422-1.89 3.617-2.59-.324-2.09-3.348-2.645-1.812-5.093 3.12-1.845 6.32-4.052 10.005-5.36 1.37-.487 1.517-1.932 2.18-2.98h3.32c.478 3.147.407 6.262-1.038 9.368l2.728 2.25c3.442-1.354 7.222-.247 10.78-.7 1.31.82 2.013 1.822 1.668 3.597l-3.235 2.72c1.145 2.324-.738 3.882-.736 5.834.002 1.83 1.772 3.032 1.503 4.884l3.46-5.515c-1.503-1.008-.78-2.6-.877-3.995l3.285-3.285c1.082 1.143 2.52.867 3.878.81 1.334-.056 2.416.46 3.625.908 1.24.462 2.93.47 3.984-.932 1.416.877 3.322 1.042 3.723 3.047.772-.175 1.66.354 2.344-.38-.196-.724-1.282-1.06-.745-2.378 1.234-.334 2.835-.4 4.04-1.465.646.595 1.12 1.034 1.675 1.544l-2.054 4.028c3.984-1.802 7.378 3.263 10.18-.24 2.097-.288 2.196 1.114 3.166 1.327-1.026 2.975-2.962 5.077-4.41 7.492h-2.218c-.972-.416-.452-2.077-1.233-2.384-2.048-1.253-4.396.476-5.812-1.54-.434.702-1.414.95-1.464 1.595l5.103 4.822.552-.496c1.62.22 2.24 1.694 3.258 2.566-1.695 2.552-2.974 5.338-5.497 7.55l-2.345-3.145v-2.31c-4.89-4.602-7.766-10.896-12.49-15.56h-2.092c-.543.343-.496.845-.5 1.336-.025 2.568 1.857 2.638 3.947 2.82-1.344 1.918-1.532 4.338-3.478 5.788l-1.45-1.45v-2.04c-.833-.753-1.693-1.534-2.535-2.297-2.206 3.242-4.49 6.602-6.608 9.713-2.633.67-3.54-1.21-4.958-2.462.623-1.963-.56-3.58-1.326-5.373h-1.978c-.777-1.444-1.542-2.862-2.618-4.462.116-.202-.32-.94.312-1.398 1.454-1.058 1.826-2.783 2.56-4.38.656.07 1.406.12 1.893.505.664.522 1.187 1.018 2.113.332l.134-1.654c-1.41.234-2.735-.465-4.14.818-2.106-.166-2.748 1.754-3.928 2.865.502 1.152-.9 2.758 1.056 2.913zm-28.792 3.272c2.416-1.397 4.987-.718 6.794-.86l2.97-2.43v-2.16c-1.59-.386-2.81-2.173-4.982-1.034-.905 2.426-3.074 4.13-4.782 6.485zm16.847-8.636c2.36 1.794 4.748 2.795 6.698 5.074-.055-4.38-1.054-6.037-4.354-7.26-.63-.235-1.62-.387-2.346.366v1.82zm3.99-7.763c-.877-.624-1.512-.915-1.968.28.63.278 1.18.483 1.967-.28zM266 209.01c-2.39-.024-3.877-1.662-5.615-2.97-2.17-1.632-4.816-2.642-6.09-6.01.088-.78-.292-.488-.266-.444.267.44-.604 1.535.418 1.328.806-.163.772-1.147-.154-.882-.578.85-.964.814-1.13.604-1.967-2.475-4.427-4.12-7.76-4.5l-.495.463-1.697-.853c-.55-1.644 1.003-1.754.788-2.735.16-.6-.417-.806-.676-1.198-.982-1.486-3.417-.115-4.126-2.194.45-1.637 2.857-2.038 2.846-4.142-1.126-.592-1.812 1.15-2.948.626-1.825-1.177-3.38-2.86-5.71-3.2-.516-1.072-1.048-2.183-1.735-3.616-1.385-.94-3.302-1.526-5.578-1.314-.225-2.25 1.782-3.445 1.95-5.56-1.414-.89-3.057-.22-4.583-.426-.243 2.296-.23 2.38.56 3.985.03.997-.972 1.248-1.35 1.85-2.75 1.137-4.91-1.183-7.558-.783l-.133-2.52c3.23-2.92 6.098-6.26 6.12-11.412-2.145-.51-3.645 2.48-5.69.45-1.88-2.13-1.88-2.13.792-5.964l-3.208-2.568c-2.575-.788-5.736-1.17-7.977-3.527-.095-2.87 3.22-2.048 3.947-4.046-3.147-3.51-8.697-2.354-11.877-5.878-.005-.95-.406-1.963.565-2.718.836-.65.044-1.59.72-2.7 1.17-.155 2.7-.74 4.058.733 1.845-1.73 4.446-2.537 5.897-4.843 2.928 1.69 1.156 4.39 1.863 6.756h-4.443c-.794.898-1.835 1.32-1.77 2.44.636 1.142 2.194 1.046 5.237-.245 2.517.832 1.576 3.22 2.006 5.79.94-1.493 1.457-2.317 1.75-2.78h3.956c-.3 1.907.498 3.412 1.932 4.275 1 1.828-1.166 2.75-.813 4.215.343.544 1.003.704 1.31.463 1.133-.893 2.155-1.93 3.22-2.912.678.73.382 1.982 1.43 2.44-.33.356-.665.714-1.17 1.256 1.892 3.437 4.26 6.378 8.177 7.712.05 1.168.217 2.335-.965 3.093.973.935 2.693-.13 3.46 1.403.63 1.26 1.874 1.12 3.092 1.004 1.155-1.222-.5-3.372 1.494-4.45-2.7-2.253-5.62-4.02-8.433-5.13-.367-.746-.608-1.017-.622-1.3-.05-.956-.02-1.916-.02-2.722 2.646-2.162 5.915-1.836 8.68-3.863.194-1.87 2.177-2.66 3.88-3.268.79-1.607.26-2.95.442-4.228.814.01 1.558.077 2.233-.683 1.325-1.493 2.8-2.85 4.202-4.25 1.423-.287 2.628-.025 3.496 1.438v5.11c1.022.82 2.178 1.75 2.963 2.382.225 1.344-.16 2.21.534 3.048 1.033-1.146.282-2.51.726-3.786 1.17-.42 2.408-.353 3.655-.07.062.986-1.688 1.413-.174 2.82 1.462.175 2.195-.86 2.354-2.49.174-1.783 1.1-2.607 3.2-2.5 1.697 1.2 3.623 2.567 5.653 4.006 1.456.164 1.684-1.816 3.436-2.103 3.023 1.877 2.276 6.193 5.06 8.37-.6.378-.857.67-1.13.687-.97.06-1.943.023-2.7.023-1.03-.958.072-2.21-.923-2.925-.798.73-2.096 1.113-1.552 2.47-1.854 1.203-3.753-.664-4.894.036-1.94 1.19-2.987-.422-4.724-.632l-2.053 2.826.52.647c-.314.465-.644.957-.753 1.12-.447 1.403 1.167 1.484.88 2.477.084 1.353-1.306.65-1.7 1.22-.337.49-.437 1.14-.696 1.875-2.042-.59-4.333.9-6.09-1.088-1.485.665-1.662 2.315-2.383 3.494-.675 1.105.436 2.95-1.955 4.56 3.915-.725 6.56 1.24 9.593 1.01.14 1.187-1.79 1.337-.418 2.738-1.81-.09-2.03-1.596-2.87-1.778-1.012-.19-1.426.344-1.843.847-1.232-.852-2.57-1.772-3.752-.22-1.022 1.34-2.388 1.494-3.78 1.35-.204 3.178 3.442 5.496.92 8.726 2.24.135 4.03.987 4.974 3.135.816 1.854 2.525 3.174 3.027 5.25.323 1.335 1.7 1.917 2.52 2.825h4.98c1.204-1.122 2.12-2.785 4.527-1.585-.53 1.785-1.367 3.617-1.108 5.893-2.206-.612-3.868-2.12-6.033-.765.626 2.565 2.874 2.275 4.742 2.64.947.708-.266 1.988.898 2.877 2.035-.09 3.525-2.507 6.008-1.992l1.41 1.593c.632 3.54-2.77 6.588-1.98 10.38-.75-.025-1.564.205-2.107-.603-.697-1.04-1.752-1.578-2.89-1.665v-1.72c.973-.47 1.938-.944 3.15-1.54-.635-.697.564-1.854-.794-2.47-1.252-.225-1.6.96-2.356 1.498v2.51zm-21.996-31.006c-.086.48.135.783.592.886.077.018.312-.217.294-.294-.103-.457-.406-.677-.728-.052-.34-1.187.294-2.08-.758-2.467-.668.692-.584 1.327.6 1.927zm-8.525-6.13c-1.445.356-2.61-.42-3.903 1.323 1.48-.575 2.493.45 3.547-1.35.93-1.155.93-1.155 0-2.814 0 1.135 0 2.05.355 2.84zm14.645-12.5c-1.384 1.384-2.393 2.433-3.448 3.434-.666.632-1.057 1.246-.12 2.3.894-1.154 1.77-2.28 2.61-3.362l1.38 1.2c1.658-1.38-.76-1.893-1.026-2.82 1.445-.356 2.61.42 3.903-1.323-1.48.575-2.492-.45-3.298.572zm-2.88-16.63c.102 2.13-1.875 2.834-2.43 4.482 2.078 1.137.523 3.392 1.736 4.947.194-1.852 1.545-2.624 2.45-3.708 0-1.322 0-2.643-.002-3.965-.467-.47-.934-.936-1.754-1.756zm-7.55 15.07c.902-.973 1.857-1.964 3.37-2.23l-2.564-2.588c-1.075 2.22-4.7-.458-5.24 2.678l4.436 2.14zm-16.753.622c-.786-.788-1.667-.257-1.39-.192l-2.71 2.712 1.62.077 2.48-2.597zm18.658 12.55c-.437 2.227-2.62 2.092-1.75 4.273 1.116-.797 2.483-1.23 1.75-4.274zm15.486-17c2.23.09 2.247-.737 1.472-2.063l-1.472.282v1.782zm-10.006.27l2.12-.673c-.96-.73-1.513-.765-2.12-.19v.863zm4.397 1.88c.777-1.268.633-2.16.042-3.267-.72 1.163-.673 2.05-.043 3.267zM231.04 167.55l1.615 1.568c.47-1.112.417-1.675-.177-2.12-.438.066-.965-.2-1.437.55zm24.97-12.05c-.677-.726-1.343-.726-2.02 0 .677.726 1.343.726 2.02 0zm-12.076 2.024c.923.615 1.563.92 1.945-.182-.623-.497-1.176-.53-1.946.182zm-18.434 10.48c-.466.33-.466.662 0 .99.466-.327.466-.66 0-.99zm12 13c-.466.33-.466.662 0 .99.466-.327.466-.66 0-.99zm1-14.01c.466-.327.466-.66 0-.988-.466.327-.466.66 0 .99zm21.49-11.494c-.324-.467-.657-.467-.982 0 .325.467.66.467.983 0zm-15.985 17c.328.466.66.466.99 0-.328-.466-.662-.466-.99 0zM124.385 301.11c1.834-.284 2.238-1.6 3.546-2.26 2.194 1.523 3.57 4.423 7.58 5.636-2.055-2.414-.602-5.893-4.428-5.682-.762-3.342 2.418-3.857 3.244-5.978l1.62 1.62c-.35 4.003 1.654 7.786 3.154 12.023-.877.757-1.854 1.6-2.99 2.583l-10.5-5.26-2.2 3.144-.596-.408v6.316c-1.766.65-2.803-2.016-4.63-.604-1.202.93-2.707 1.467-4.042 2.162.717 2.95 4.024.47 5.233 2.47 1.065-.356 1.395-1.74 2.658-1.88.952-.008 1.2.992 1.837 1.388v6.337c-.893.453-2.053.585-2.423.12-2.594-3.25-6.973-2.662-10.026-4.84-2.28.555-3.145-1.35-4.418-2.54-.276-1.66.33-2.75 1.902-3.486 2.655-1.243 5.173-2.796 7.878-3.904 1.187-.487 1.988-.943 2.31-2.587-2.762-1.113-5.353-2.85-8.654-2.422-1.727 2 1.455 3.49.427 5.665-2.167 1.34-4.302-2.07-6.603-.488-1.375 2.596 1.67 4.84.583 7.43-1.222.22-2.042 1.5-4.08 1.253l-5.832-2.983h-3.356c-1.39-.785-1.332-2.12-2.08-2.938-1.222-.236-1.69.807-2.414 1.417.297.687 1.313 1.053.917 2.05-1.298 1.157-3.273 1.103-4.362 2.382h-4.37c-.97-2.14.463-3.155 1.793-4.334-.79-4.37 1.682-8.542.906-12.74 1.285-2.59 3.52-1.516 5.422-1.842 1.162 2.82 3.663 4.3 5.254 6.256 2.24-.668.875-2.202 1.684-3.138.822-.95 2.09-.797 2.845-1.698 1.025-1.22 2.033-2.633 2.63-3.923.677-1.458 1.885-2.192 2.645-3.41h3.14c1.297 2.5 2.14 5.264 2.753 8.026 2.366-.2 2.815-2.572 4.775-3.103 1.606.294.802 3.025 2.99 3.155 1.22.073 2.378 1.142 3.94 1.96-.582-3.758-2.766-5.762-5.993-7.14.38-1.478 1.935-2.004 2.19-3.513.23-1.364 1.857-1.663 3.436-1.334.702 3.967 3.322 7.176 4.71 11.04zm-25.38 9.894c-.087.48.134.783.59.886.078.018.313-.217.295-.294-.103-.457-.406-.677-.89-.596-.15-.758.496-1.915-.965-2.017l-.132-1.708c-1.07-.327-1.95-.542-2.78.102.585 1.205 1.464 1.888 2.877 1.623.15.758-.496 1.915 1.004 2.004zm4.554-13.25c-1.548 3.512-1.548 3.512-1.19 7.264.656-.194.48 1.135 1.46.714 2.387-2.488.937-4.978-.27-7.978zm-15.568 8.48c-.588-.973-.588-.973-1.87-1.868-.03.906-.56 1.88.38 2.624.655.04 1.33.15 1.49-.756zM40.1 288.984c-2.884.47-1.377 3.88-3.605 4.924-1.135-1.146-2.823-1.962-2.47-4.273.778-1.09 3.915-.903 2.432-3.82-1.906.495-2.626 2.166-4.013 3.166-1.053-1.184-2.143-2.41-3.39-3.816.286-3.948-4.915-5.46-5.235-9.742-1.786-.385-2.858-2.085-4.284-3.362-.96.512-.37 1.43-.595 2.38l3.656 3.66c-2.65 1.396-4.91 2.584-7.207 3.79-.366-.364-.837-.835-1.308-1.306-.567-2.148 1.588-3.834.954-6.055-.47-1.65-.035-3.326-.817-5.164-.833-1.956-.882-4.767 1.093-6.694-1.993-1.523-4.448.506-5.783-1.708-.786 1.193-1.92 1.132-3.07.986-.51-.32-.473-.825-.458-1.314.052-1.686.983-2.948 2.477-4.825.24-.35 1.457.626 2.422-.175v-3.895l2.74-2.74c2.222-.588 3.89 1.206 4.165 2.57.42 2.085 1.59 3.713 2.197 5.623.93 2.93.95 3.146.208 6.758 2.63-.227 4.8-2.287 7.96-1.84l-1.937 5.692c2.418.933 3.925-1.43 5.746-1.89 1.97.708 2.154 2.12 2.785 2.97 1.14 1.372 2.28 2.746 3.475 4.188 1.152-.797 1.144-2.044.392-2.816-.89-.915-.435-1.856-.704-2.808-1.02-.565-2.357-.82-3.012-2.32.463-2.286 3.104-2.372 4.48-3.847.936-1.002 2.438-.243 3.395 1.054-2.718 5.058 1.39 10.185.015 15.364-1.882 2.283-3.95 1.323-6.085.2-.84.752-1.663 1.492-2.385 2.14-1.562-.095-1.92-1.468-2.915-2.045-.75.126-1.613-.254-2.384.358-.19 3.594 4.195 1.78 4.84 4.242l-.852 1.014c1.183.602 2.137.707 3.183-.254.928-.853 2.22-.07 3.213-.43l1.67 1.67c-.274 1.41-1.633 2.712-.99 4.392zM16.047 258.5c-1.046-.79-2.046-.79-3.092 0 1.046.79 2.046.79 3.092 0zM30.2 274.72c.872-.052 1.872.716 2.844-.272-1.1-.624-1.987-.624-2.843.272zM90.754 274.03c-.588 2.105 2.686 2.564 2.212 4.55-1.12.814-2.31.258-3.487.432-1.122-1.056.386-3.57-2.43-3.828.08 2.24-.672 4.622 1.017 6.892l-3.104 3.05c-1.556-.514-2.24-3.23-4.718-1.82-.66 1.073 2.174 1.154.542 2.512l2.85.313c.64.607.498 1.397.316 1.916-.495 1.412-1.694 2.255-3.237 3.4-1.766-3.487-3.37-6.79-5.527-9.76.268-.998 1.343-1.58 1.06-2.535 2.103-.848 3.23 1.318 5.3.748 1.987-1.498 2.792-3.74 2.305-6.846-1.785.006-3.916.173-5.3-1.12-1.655-1.543-3.42-.608-5.5-1.056.507 1.326 1.408 2.34.885 3.717l-1.437 1.308c-3.866.63-8.05-.89-11.89 1.092-.787-.302-.514-1.08-.713-1.557-.366-.634-.92-.362-1.383-.44-1.985-.325-2.375 2.427-4.684 2.195-1.372-.138-3.174 1.263-4.262 2.737-.77 1.045-1.8 1.38-3.31.84v-6.516c1.238-.522 2.436-.532 3.356 1.038 1.584-1.56 4.174-.713 5.553-3.224-1.827.275-3.144-.653-4.62-1.116-1.682-.528-2.587 1.285-4.317 1.01v-6.692L47.4 264.1c2.838 2.754 6.766 3.348 10.142 5.06 3.594 1.824 7.188 2.95 10.947 2.838l-2.646-3.028c-.582-.033-1.926.483-2.444-1.776l2.03-4.144c1.27-.364 2.168.613 2.355 1.34.595 2.313 2.67 3.128 3.757 4.7 2.24-.367 2.663-2.776 4.533-3.133 1.093 1.534 2.557 2.863 4.333 3.948 1.102-.42.375-1.374.685-2.308-1.044-1.045-2.17-2.172-3.574-3.58 1.712-1.446 2.454-3.797 5.5-2.694-.218 3.134.307 6.19 2.483 8.745 4.99-.498 7.995-3.92 10.875-7.006h2.305c.998 1.536-.896 3.834 1.333 4.542-.014 1.444-1.12 1.603-1.374 2.396-1.444-.903-2-2.135-1.84-3.93-.9 1.128-1.366 2.396-2.657 3.218v4.066l-1.577 1.577c-.605-.177-.757-1.1-1.814-.9.893-.25-.25-1.435.574-1.91.797-.456 1.02-1.23.287-2.03-1.563.978-2.32 2.167-.86 3.94zM397.99 205.53c-1.776-2.165-4.513-2.594-6.888-3.88v-3.184l3.234-2.66-4.572-4.36 2.645-1.332h5.21c.94 1.11-.164 2.598.793 3.823 3.453.332 1.772-3.685 4.122-4.762h5.193c.583.45.548 1.724.21 2.055-2.172 2.133-2.454 5.006-3.336 7.65-.095.283-.4.497-.646.79 1.636 2.49.86 5.277 1.07 7.88-1.28.758-2.292.57-2.95.073-.82.773-1.694 1.6-3.09 2.92v.873l-5.99 3.88.806 1.066c-1.717 2.23-2.853 5.008-5.81 6.78-1.16-1.3-2.937-1.23-4.48-1.128l-2.316-2.316c-.066-.306-.187-.61-.19-.917-.013-2.996-.077-5.996.015-8.99.073-2.325-.2-4.474-1.932-6.225 1.012-1.45 2.023-2.096 3.974-1.094 3.748 1.925 8.043 2.23 12.04 3.472.812.25 1.96.428 2.887-.412zm-7.522 6.6c-.825-2.05-1.362-3.236-3.622-3.097.376 1.826.942 2.9 3.622 3.098zM204 309c-.936-.117-1.928.275-2.804-.294-.07-.155-.17-.288-.19-.43-.167-1.202.94-1.548 1.5-2.24.353.314.694.62 1.022.913.537-.335.47-.836.47-1.7-2.446.217-3.867-1.907-5.968-2.76-1.028-.42-1.173-1.456-1.03-2.49 1.087-.15 2.25.365 3.235-.68.793-.84 1.78-.035 2.644-.35.067.765.096 1.086.122 1.41-.622 1.372-2.275-.057-2.987 1.113.945 1.028 2.17.29 3.588.59 1.548 2.702 5.1 3.154 7.194 5.104 1.05 1.678-1.772 1.927-.604 3.402-.622-.52-.336.58.22.35 1.377-.568 1.256-2.082 2.11-2.94.898 0 .898 0 2.398 1.422-.155.614-1.084.764-.79 2.205.71 1.314 2.638 1.663 4.128 2.533 1.384-1.143.458-2.14.615-3.457l-1.422 1.25c-.39-.393-1.002-.71-1.057-1.106-.348-2.5-1.598-4.82-1.455-7.408l-4.214-2.09c1.326-3.082 4.56-2.815 6.255-4.494 1.685.72.768 1.85.954 2.708-.72.965-1.936-.007-3.09.928 3.688.745 3.59 6.004 7.515 5.52l-2.583 2.962-1.658-1.658c-.32.214-.27.872-.06 1.187.776 1.16 1.838 1.894 3.58 1.422.817 2.73 4.753 2.483 5.464 5.492-2.7 2.244-3.572-1.69-5.63-1.433 1.84 3.477 1.84 3.477 9.22 6.057.65-3.05 3.412-5.24 3.37-8.61.64-.715 1.965-.3 2.397-1.387 3.41 2.408 3.655 6.938 6.494 9.76.32.32.043 1.24.043 1.814l-1.938.71c2.046 2.87 2.052 6.508 3.82 8.416.28 2.18-.84 2.545-1.488 3.326-4.5-.527-8.364-3.735-13.237-3.015-.718-2.646 3.037-2.795 1.893-4.915 2.802-.564 3.793.718 4.2 2.674 1.2.348 2.564-.153 3.373 1.115 1.013-1.494-.62-3.81-3.548-5.35-.468-2.124.97-3.537 1.88-5.25-.907-2.34-1.032-2.477-2.603-3.466-.804 1.922-.004 3.942-.56 5.97h-4.228c-.53 1.244-1.8.923-2.49 1.592-.06.79-.122 1.578-.2 2.575-3.117 0-6.088.013-9.058-.02-.268-.003-.533-.3-1.004-.585l3.308-5.354c-.568-1.484-2.19-.965-2.73-2.045-2.143.227-3.6 2.765-6.095 1.807-.57-.732-.193-1.565-.245-2.367 1.078-1.06 2.582.108 3.82-.77l.09-1.215c-1.172-1.018-2.666.102-3.78-.768l-.393-1.505c-1.13.166-2.064 1.548-3.61.4-.664-1.482.268-3.53-.417-5.49-1.293.356-2.917-1.197-3.758.913zM302.968 122.177c-.404.977-1.49 1.958-.74 3.733 1.55-1.305 3.42-.81 5.164-.925.797.36.468 1.164.867 1.84l1.355.28c1.05.973-.6 3.08 2.276 3.578-2.1 1.686-2.948 3.38-3.8 5.206-2.53-.63-3.98-2.633-6.09-3.39 0-.5 0-1 .002-1.502.482.083.785-.137.888-.594.017-.077-.217-.312-.294-.294-.457.103-.677.406-.594.888-.635-.112-.962.274-.984.795-.056 1.303-.018 2.61-.018 4.354-2.258-.567-3.983-1.263-5.062-2.78.22-2.125 2.88-.733 2.692-2.894.04-.59-.646-.942-1.194-1.41-.48.416-.81 1.085-1.78.9-1.095-.505-.52-2.757-2.4-2.72-1.154 1.345 1.106 1.834.74 2.99.004 1.387-1.528.28-1.902 1.232l.683.824-2.2 2.696c-2.06.1-2.264-2.44-4.495-1.866l1.802 3.5c-.71.698-1.54 1.512-2.434 2.392l-1.397-1.626c-.346-2.105.628-4.664-1.082-6.464.672-.822 1.178-1.443 1.7-2.084l4.215 2.16c1.076.04 1.33-.96 2.175-1.494v-6.086c1.525-1.358 2.006.95 3.16.587 1.41-.462.43-2.73 2.386-2.663.57.828 2.315.286 2.793 1.755.693-.64.875-1.663.342-1.764-2.54-.484-2.776-2.735-3.75-4.417 1.07-2.207 2.396-4.213 3.844-5.996 1.93.42.815 1.724 1.167 2.514l-1.963 2.097c1.36 1.645 1.903-.697 2.943-.532 1.256.102 1.564 1.52 2.703 1.92.882-1.488-.26-3.263.628-4.736 1.883-1.047 3.193 1.43 5.02.806 1.142-.182.26-1.548 1.14-1.947l2.07 1.934c.882-1.147 1.79-1.473 2.777-.138.82.075.997-1.405 1.833-.824 1.835.302 1.238 2.625 2.85 2.988-.084.482.136.785.593.888.077.017.312-.217.294-.294-.103-.457-.406-.677-.888-.594-.002-.593-.002-1.184-.002-1.6 1.765-1.13 2.805.107 4 .598v2.477c-3.335 1.97-7.068 1.447-10.243 1.523-1.226.527-.1 2.072-2.275 1.844-1-.74-2.593-1.742-2.694-3.844-.797 0-1.292 0-1.79-.002.083-.482-.137-.785-.594-.888-.077-.017-.312.217-.294.294.103.457.406.677.888.594-.157 1.186.228 2.192 1.37 2.806-1.67 2.676-4.134 2.7-6.4 3.375.324-1.81 1.872-2.018 3.08-2.793-1.553-.914-3.536.41-4.677-1.406-1.012 1.993-.02 3.036 1.598 4.2zm-2.495 3.002c-1.925-.095-3.196-.562-4.44.23.6.67 1.02 1.142 1.46 1.632.5-1.06 1.648-.864 2.98-1.863zm14.75-9.476c.48-.252 1.33.99 1.64-.376-.606-.483-1.16-.517-1.64.376zM305.5 126.99c.467-.324.467-.657 0-.982-.467.325-.467.66 0 .983zM105.07 231.91c2.676-.05 1.977 2.28 3.005 3.31-2.202 2.13-5.242 1.707-7.764 2.748-1.475.61-2.454-.457-3.378-1.605.094-2.06 3.107-2.437 2.635-3.938.997-2.73-.506-5.068 1.27-6.804-.75-3.762-4.683-4.475-6.733-7.016-.167-1.623-.532-3.3 1.523-4.61 2.798.764 5.53-1.593 8.655-.926.877-.76 1.72-1.49 2.393-2.076 1.49.013 1.58 1.29 2.25 1.46.223 1.17-.44 1.502-.784 1.896.413.856.62 1.863 1.23 2.46 3.465 3.397 5.41 8.024 9.18 11.194h1.955l-.66.663 5.692 5.068c-3.11-.73-5.26 2.814-8.42.16-1.306.756-2.9 1.52-4.656 1.02l-1.46-1.39c-.03-1.338-.317-2.704 1.736-3.44-2.84-2.207-4.34-4.687-5.84-7.366-.577 3.156-2.16 5.802-1.825 9.193zm-4.323-14.56l-1.963 1.046c1.187.848 1.653 2.3 3.055 1.27.687-1.446-.772-1.825-1.093-2.316zM416.728 178.06l5.715 5.716c5.18.794 7.75-2.145 10.465-4.784 1.773 2.206 1.773 2.206 1.908 5.092-2.142-.46-4.013.29-5.535 1.23l1.187 1.587c2.06.573 3.182-1.612 5.09-.826 1.168.575-.23 2.21.933 2.916 2.41-5.077 2.66-5.336 6.03-6.032.485 1.553 1.554 3.222 1.346 4.712-.317 2.267 2.085 2.863 2.254 4.892-1.548.86-3.173.272-5.07.48v-5.877c-1.026 1.454-2.698 2.47-1.915 4.404-1.574.775-3.078.267-4.45.44-.856-.3-.606-1.067-.798-1.625-2.984-1.293-6.46-1.138-9.312-3.166-.83.39-1.732 1.02-2.863.78-.138-.068-.384-.116-.4-.205-.37-2.124-2.67-2.896-2.928-5.42-1.97 1.375-1.138 2.818-1.386 3.947.428 1.068 1.845 1.394 2.055 3.13-1.654 1.167-3.508 1.962-5.895 1.366.41-1.187 1.325-2.2.65-3.534-.917-.73-.672 1.07-1.514.71-3.675-2.136-7.83-2.162-11.702-1.982-1.25-.947-1.882-1.845-1.463-3.66 2.61-3 7.554-4.394 8.693-9.414 1.786 1.565 2.767 3.803 3.14 6.625-.995.915-2.214.228-3.052.395-.915 1.108-1.697 2.053-2.4 2.902 1.766.26 3.82.585 5.395-.913 2.43.48 1.64 3.356 3.855 3.888.568-1.357.21-2.986.21-4.544.003-1.615.292-2.907 1.758-3.23zM139.34 326.92c-.635-.727-1.05-1.205-1.045-1.2-.732-1.472.852-1.646.406-2.544-1.647-.984-2.674 2.472-4.627.164l-.14-2.908c-1.584-.18-2.384-1.493-3.47-2.44-1.052 1.378-.005 2.94-.738 4.536l3.428 2.793c-1.912 2.257-4.577 2.434-6.41 3.924-.43-.43-.594-.527-.658-.668-.862-1.887 2.01-3.48.82-4.957-1.527-1.893-.66-3.786-.86-5.652-.196-1.806-.043-3.65-.043-5.522 3.207-1.88 4.92 1.19 7.14 2.297 1.678.836 2.646 2.64 4.477 3.61 1.594.844 3.706-.182 4.67 2.9.534-3.447 3.666-4.295 2.692-6.915 4.007-1.42 3.64 2.244 5.2 3.685-1.336 2.82-6.046 1.535-6.183 5.434 1.045 1.31 1.246-1.188 2.34-.518.585.356 1.567.062 2.16.062l2.16-2.16c.237 2.1 2.75 1.558 3.477 3.517.512 1.38 2.303 2.285 3.55 3.427-.11.084.1.004.11-.1.113-.966.19-1.936.285-2.986l-1.992-2.228c-.224-.944.146-1.33.544-1.58 1.175-.742 2.393-1.414 3.574-2.1 1.582 1.584.688 2.747-.318 4.052 1.888 2.365.855 5.16 1.128 7.558-.95 1.248-1.84 1.89-3.05 1.608-2.428-1.592-4.602-3.652-7.18-4.554-3.586-1.254-7.516-.19-11.45-.535zM46.975 294.83c2.716.44 4.26 2.578 6.66 2.274.705.702.113 1.623.395 2.348.293.753.82 1.415 1.26 2.14 4.218-2.9 8.85-3.584 11.716-7.144-.133-2.487-3.987-4.505-.846-7.128 3.913.8 7.666 1.88 11.722 1.74v3.358c-1.844 3.02-5.495 4.042-6.932 7.464-1.607.023-3.197.717-4.487-.844-.914 1.153-2.77.995-3.434 2.484 1.923.78 3.756 2.867 5.68.483 1.313-.086 1.448 1.073 2.37 1.335v5.367c1.954.915 2.275-1.006 3.544-1.702.66 1.347.455 2.63.036 4.068L73.478 310H68.53c-1.22-.66-1.455-2.012-2.14-2.996-2.257-.214-1.9 2.28-3.208 3.01-2.03-.108-.8-1.77-1.23-2.527-.366-.61-.896-.462-1.372-.49-.974-.333-.21-1.61-1.186-2.04-1.914-.007-2.292 2.15-4.22 2.912l-1.208-1.673c.377-1.396 1.164-2.484 3.17-2.545-2.013-.55-3.73-1.134-4.592-2.645-2.192-.07-2.584 3.317-5.07 1.816-.94-.59-.402-1.574-.302-2.496 1.114-.873 2.606.232 3.708-.706-.567-1.803-2.145-1.59-3.515-1.75-.687-.9-.227-1.92-.39-3.04zm23.462.16c.528-.35 2.317-2.313 2.472-2.817-1.374-.13-2.702-.56-3.837.214-.312 1.284.558 1.654 1.364 2.604zM253.02 134.26l8.713-5.695c.37-1.177 1.73-2.36 1.295-4.14 1.574-.183 2.53-2.196 4.96-.97-.427-.352-.208-.26-.194-.146.116.965.195 1.936.33 3.382l2.705 2.494c.27-2.51.592-4.693-1.14-6.62 1.682-.948 3.58-.128 4.342-1.952l1.324 1.233c3.096-1.122 4.864-3.778 7.214-5.86 1.212-.347 1.537.943 2.305 1.303v3.45c-2.978.313-2.978.313-5.174 2.018h5.706l2.053 4.39c-4.53-.84-8.42-1.427-12.22-2.886l-1.238 1.24c0 .98.256 2.34-.073 3.542-.323 1.18-1.23 2.2-1.01 3.548-1.036.9-2.266.036-3.357.574-1.67-2.104-2.784-4.522-5.032-6.01-1.73 1.113.367 1.69.45 2.56.093.968.02 1.953.02 3.346-2.783-.36-5.148.353-6.98 2.422 1.17 1.35 3.35-.447 4.52 1.71l1.61-2.33c2.364 1.184 1.51 3.688 2.856 5.076.005 1.22-1.28 1.31-1.684 2.888-2.754-3.755-6.59-3.748-9.97-4.764-2.026-.608-2.504-1.757-2.33-3.804zM162.675 128.825l-1.582 1.582c1.047 1.35 1.31 3.24 2.893 4.048.13 1.56-.117 2.794-1.83 3.546-.812 0-2.01-.175-3.13.047-1.322.262-1.986-.948-3.29-1.07-.382.283-.88.654-1.37 1.015-1.047.252-1.425-.645-2.14-1.248.607-1.302.905-2.81 2.258-3.728 2.08-.39 2.588 3.48 5.38 1.546.543-.72-1.845-.972-.874-2.072-.84-.715-2.147-.698-2.784-1.8.584-1.36.98-2.864 2.427-3.69.957-.394 1.262.765 2.01.85 1.443-1.37 2.452-2.94 2.357-4.923-.103-1.06-.812-.944-1.46-.922-1.822-2.018-1.01-5.675-4.23-6.817l-.78.78-1.36-1.274c.294-1.55 1.853-1.422 2.77-2.134-1.31-1.593-2.58-3.246-4.843-2.582-.242-1.768.367-1.91 1.344-2.046.68-.093.704-.947.388-1.604-1.45-1.606-2.06 1.627-3.5.52-.83-.85.854-.716.62-1.47-.763-1.843-1.014-4.253-3.88-4.648l.93-1.54c.098-1.466-1.578-1.602-1.846-2.86l1.278-1.218c2.28 1.116 2.58 3.958 4.555 5.366l-.957 1.053c4.45 3.39 4.658 3.294 6.855 8.084.75 1.637 2.13 2.406 3.157 4.167v4.003c1.518.136.44-1.375.57-1.39 1.594-.416 2.535-.757 3.366.08.302 1.602-1.404 1.99-1.98 3.22 2.23.444 4.393.92 5.917 2.72l-.923 1.315c.04 1.69 2.05 1.894 2.007 3.65l-1.255 1.443c-2.328.005-4.78.005-7.067.005zM194 308v-1.515c-1.01-.95-1.732 1.415-2.992-.01-.306-1.302 1.842-2.506.698-4.268-.573-.54-1.44-.046-2.218-.2-.713.842-.697 2.147-2.158 2.992-.732 0-1.893.157-2.99-.043-1.222-.224-1.686 1.768-3.032.854-.625-.694-.16-1.55-.293-2.357 1.077-1.068 2.56.03 3.63-.62.4-.288.364-.547-.07-.755-2.522-1.2-3.41-4.027-5.594-5.506.792-1.702 3.025-1.34 3.93-3.368l-1.942-1.282c-1.353-.252-1.538 2.307-3.24 2.084-1.433-.537-.44-1.71-.685-2.54.32-.894 1.67.042 1.856-1.08-.708-.97-1.96.152-2.69-.666-.974-1.93.994-1.473 1.736-2.162-1.07-1.25-2.793.078-3.86-.974l-.084-.88c.272-1.118 1.57-.328 1.938-1.2-1.044-1.356-2.323-2.482-4.024-3.003.466-2.186 1.746-2.788 3.638-2.46.815.625.297 1.528.51 2.575 2.987 1.75 3.453 5.988 6.843 7.94l.243 2.07c1.235 1.504 2.992 1.837 4.536 2.558.105.123.32.274.298.364-.518 2.03.912 3.657 2.2 3.945 2.477.553 2.527 3.516 4.78 3.97-.2 1.422 1.162 1.85 1.743 2.772.666 1.058 2.26.53 2.984 2.235.377 1.097.924 2.698 1.485 4.335 1.363.07.46-1.255 1.11-1.628.594-.342 1.826.182 1.716-1.18 1.265-.004 1.155 1.01.96 1.653-.55 1.814-1.293 3.57-1.96 5.348-1.056.156-2.002-.057-2.534-1.055-.648-1.216-1.198-2.483-1.817-3.783-1.3-1.008-1.993 1.673-3.344.642-1.18-1.143.353-1.612.607-2.426-.696-.37-.898-1.425-1.913-1.376zm-7.684-9.854c-.45 1.033-.775 2.034.302 2.85 1.266.182 1.617-.947 2.373-1.48l-2.674-1.37zm-3.31-1.646c.327.466.66.466.988 0-.327-.466-.66-.466-.99 0zM155.232 149.313l-.344-2.912c-.79-1.356-2.488-1.296-3.503-2.327-.8 1.048-.195 2.248-.39 3.328.55 1.007 1.916 1.372 2.033 2.74-.452 1.377-2.787.725-2.858 2.54.756.873 2.018-.267 2.997 1.078-1.186 1.744-2.454 3.61-3.81 5.602-2.517-1.466-4.214-4.143-7.3-3.122-.366 3.955 5.767 2.974 4.887 7.327-1.3 1.065-2.323 2.797-4.733 3.882.506-5.64-4.358-8.7-5.398-13.734l3.054-2.244c1.543 1.987 4.836-.924 6.71 1.522 2.115-4.804 1.83-5.874.324-12.582l2.617-1.463c3.982.524 6.687 5.387 11.626 5.878-1.33 2.776-4.115 2.427-5.91 4.488zM316.772 85.03l2.6 3.073c1.613-.186 2.67-1.77 4.606-.748-.244 1.928.775 4.175-.942 6.197 2.09 1.893 3.474 4.104 2.776 7.336l-3.87 2.23c-3.82-3.193-8.302-3.198-12.78-3.1-.064-1.707-.493-3.012.628-4.397 1.88-2.322 2.622-5.246 3.162-8.126.392-2.097 1.567-2.625 3.82-2.464zM251.382 325.33l3.703 3.64 1.594.188c.807 1.158.114 2.896-2.33 5.943-2.923-.554-2.355-3.89-4.098-5.29-1.95-1.568-2.497-4.09-4.304-5.497.474-2.345 2.224-2.272 3.77-2.51.224-3.932-.51-5.533-4.697-10.293.328-.37.716-.7.956-1.116.145-.25.063-.634.102-1.257 4.333-.806 8.394 2.228 12.813.434.07 1.383.1 2.025.148 2.966l-2.61 2.446c-1.63.243-1.756-1.495-3.672-1.856h-3.228c2.074 1.788 3.21 3.693 5.456 4.36.31 1.746-1.887 2.132-2.098 3.46.264.468.373.932.574.976 1.366.298 3.007-.492 4.048 1.07.757-1.177 1.9-1.072 3.063-.936.757.666.638 1.707.362 2.294-.646 1.376-2.44 1.96-2.323 4.073-3.538-3.34-3.652-3.383-7.228-3.092zM132.534 188.988l1.674 3.4c-.763 1.75-1.908 3.39-.985 5.307-2.606.682-3.952.062-4.32-2.263l-12.367-6.16c-.827-1.535-.446-2.687-.507-3.803 1.208-1.318 2.684-2.182 4.45-2.458 1.6-.25 2.813-1.76 4.152-1.86 1.814-.135 3.247-1.14 4.96-1.45 1.303-.234 2.116-2.544 4.27-1.39v7.324l-1.288 1.288-3.333-1.944c-2.007.75-4.153 1.55-6.413 2.39 3.68 2.792 5.602 3.095 9.707 1.618zM226.842 224.342c2.395-1.285 4.21-3.855 6.946-1.152-2.17 3.947-2.292 8.327-3.037 12.56-.13.082-.26.235-.395.238-.83.022-1.663.01-2.798.01-2.165-2.005-4.468-4.165-5.99-7.1-1.11 1.138.183 3.003-.794 3.327-1.864.828-2.51-.645-3.67-.28-.876.275-1.907.054-2.945.054.068 1.18.93 1.88 1.39 1.902.927.046 1.388.64 2.023 1.027l.744-.744c.824.138 1.16.884 1.852 1.554-.698 1.29-1.305 2.71-1.36 5.322-2.99-4.233-6.858-5.947-9.854-8.578.128-1.75 1.618-2.218 2.428-3.443h3.26c3.97-1.417 5.97-4.912 10.093-3.888.9.605-.39 2.19.83 2.91 1.054.623 1.382 1.712 1.755 2.79 2.212-.898 1.7-2.742 1.605-4.43l-2.08-2.08zM297.135 190.644v2.25c4.165-1.965 8.59-2.244 13.574-3.892-2.69 3.616-4.91 6.605-7.415 9.974-.936.448-2.566-.276-4.08.91-1.248.978-3.008-.33-4.484-.886-1.386 1.66-2.773-.857-4.213.048l-3.387-3.644.934-.995-2.976-.54 1.012-1.17v-2.33c.334-.137.61-.327.905-.357 1.786-.186 3.218 1.095 5.072 1.106 1.684.01 2.733-2.175 5.058-.476zM136.18 167.084c-.23 2.285-2.167 3.008-3.287 4.677h5.678c.672-.727.657-2.528 2.41-2.76.285.11.77.162.827.346.668 2.12 1.735 4 3.204 5.22-.02 1.428-1.006 1.68-1.404 2.316-4.94-1.788-10.054-.366-15.27-1.052-1.466-.847-1.566-2.435-1.2-4.207 2.52-3.61 6.42-6.493 7.16-11.558 4.752-.59 3.7 4.24 6.065 5.932-1.28 1.56-2.69.73-4.18 1.087zM216.002 19.002c-.002-.5-.002-1-.002-1.5.813-.895 1.77-.49 2.878-.265v4.285c2.352.4 2.19 3.112 4.066 3.695-.96 2.265-3.827 1.79-4.333 3.786l-4.572-1.208c.65 2.316 2.117 2.262 3.643 2.274.505 1.223.405 2.463.03 4.203-2.908-1.92-5.685-3.54-7.667-5.733-.16-1.483.942-1.677 1.237-2.463h5.256c.62-.81 1.324-1.723 2.116-2.755.068.125 0-.226-.185-.304-3.62-1.528-7.38-2.814-9.85-5.903-2.144-.726-3.065.913-4.275 2.056-3.594-1.16-1.536-4.88-3.505-6.484.927-1.08 1.827-.5 2.582-.693 1.282.676-.096 2.298 1.19 3.055l.612-1.783c1.08-.524 2.22-.22 3.344-.2.665.95.74 2.353 2.293 2.994V13.63c1.016-.974 1.948-.67 2.88-.392.087.298.343.744.233.87-1.198 1.36-1.14 2.92-.825 4.54.883.67 1.904.214 2.854.352-.083.482.137.785.594.888.077.017.312-.217.294-.294-.103-.457-.406-.677-.888-.594zM176.9 234.86c1.127.38 1.455 1.472 2.57 1.094l1.014-.91c2.395 1.055.674 5.55 4.676 5.143v2.95l1.335-1.072c2.143 1.683 2.723 4.034 2.532 6.477.88.8 1.402 1.754 2.78 1.54v4.547c2.863.26 3.366 2.542 4.35 4.924l-1.953 1.243c-.393-1.71-2.326-2.526-3.297-4.243-.898-1.588-2.58-2.732-3.904-4.058l.936-.936c-.958-1.614-2.668-2.43-4.036-3.33.458-2.158 2.215-.55 2.9-1.537.274-.442.28-.893-.035-1.44-.765-.65-1.358-.2-1.992.446-.68.69-1.563.076-2.286.334-.952-1.1-.287-2.31-.51-3.445-1.837-.933-3.59-2.845-5.747-.568-2.2-.735-4.02-1.894-5.26-3.693.628-4.204 5.025-.668 5.924-3.47zm2.104 3.144c-.086.48.135.783.592.886.077.018.312-.217.294-.294-.103-.457-.406-.677-.895-.6.086-.48-.135-.784-.592-.887-.077-.018-.312.216-.294.293.103.458.406.678.894.6zM186.958 343.826h-6.902l.973-1.72c-.008-1.798-2.356-.876-2.678-2.22-.763-1.195-.03-2.613-.494-3.818-1.722.434-1.517 2.06-2.348 2.926-.665.002-1.33.002-2.27.002-2.112-4.11-7.25-4.548-10.647-7.885 2.78-3.272 6.993-3.687 10.182-6.783v5.598h-4.063c-.852.497-.67 1.035-.726 1.577 1.423 1.103 3.17.08 4.678.653.962 1.457-.285 3.246.736 4.797 1.988-1.184 1.907-4.128 4.85-4.907h1.322c.827 1.762 1.96 3.392 1.24 5.69 1.365-.064 2.343-1.224 3.784-.64.317 2.038 2.425 3.014 3.248 4.305.43 1.503-1.053 1.645-.886 2.426zm-1.81-2.338c-1.097-.473-1.29-2.22-3.295-.975 1.097.473 1.288 2.22 3.294.975zM360.706 170.97c1.24-.842 2.252-1.272 3.335-.5-.356 3.13-3.922 2.638-5.187 5.2-1.537-2.358-.32-4.4-.978-6.18-.29-.876-1.614-.024-1.852-1.147-.228-1.46 1.417-1.868 1.895-2.792-.472-.953-1.486-.098-1.896-1.42 1.32-1.73.952-4.145.98-6.977l-3.025-2.632 2.166-2.165-2.222-1.36c.334-1.03 1.243-1.185 1.08-1.995 1.923.313 3.496-.226 4.36-2.064l1.925 1.806-2.378 1.65c.89 1.028 1.803.318 2.547.663 1.084.613.17 1.81.717 2.618l1.765.673v2.064c-.898.833-2.7.81-2.937 2.56-.15.813.7 1.01.96 1.572l-1.425 1.425-1.042-.95c-.843.595-.32 1.506-.553 2.278.917.885 2.433.89 3.128 2.44-.263 1.27-1.51 2.59-1.36 5.234-.088.78.292.488.266.444-.267-.44.604-1.535-.418-1.328-.806.164-.77 1.148.154.883zm-1.386-14.75c.205.485-1 1.293.336 1.652.533-.576.5-1.13-.336-1.653zM361.996 183c.26 1.54-.707 3.346 1.295 4.766-2.27 1.77-.068 5.376-3.24 6.646.543.96 1.537.16 1.837 1.036.5 1.4-.433 1.586-1.636 1.665-.04 1.042 1.066 1.765.785 2.91-.292 1.186-1.56 1.534-1.915 2.6.764.7 1.47 1.407.265 2.455-1.83-.202-2.402-1.87-3.588-2.798.56-1.81 2.804-1.266 3.065-2.912-.8-.677-2.37-.242-2.523-2.094 1.955-.688 1.238-3.322 2.625-4.82-.69-.96-1.874-.09-2.366-.406-.77-.655-.58-1.146-.534-1.615 3.59-.93 3.59-.93 3.765-4.123-.724-.577-.678.173-.822.513-.12.282-.157.6-.232.9-.923.368-1.835.564-2.78-.208-.16-2.132 2.258-2.518 2.52-3.17.206-3.58-2.935-5.128-2.44-8.276 2.62-.265 5.255.493 7.522-1.375.204 2.35-.02 4.083-.662 5.494.294.425.63.914.97 1.403-.67.42-.918 1.416-1.91 1.407.085-.484-.135-.787-.592-.89-.077-.017-.312.217-.294.294.103.457.406.677.886.596zM474.256 296.927h6.322c.225 2.376.225 2.376-.93 3.928-1.016-.82-2.493-.606-3.413-1.737.006 3.117 2.67 3.004 4.66 4.347.5.685-.056 1.873.107 2.978-.647 1.128-1.852.18-2.62.698-.595.356-.316.904-.38 1.373 1.017 1.07 1.716.336 2.435-.454 1.04.945 2.23 1.76 2.695 2.935-.553 1.412-1.54 1.098-2.225.968-2.572-.488-5.114-1.13-7.77-1.737.37-2.104 1.376-3.186 2.993-3.957-.65-2.96-1.835-5.636-4.113-7.754l1.06-1.152c-.075-1.333-1.784-2.358-1.304-3.257l2.523-2.486c-1.304-.924-1.3.36-1.444.36-2.16.15-2.467-1.168-3.223-2.593 2.53-.73 4.79-.132 6.82-.455.933 1.04 2.217 1.625 1.69 2.535l-4.496 4.496.612.964zM252.695 287.195l1.25 1.25c-.672 1.116-2.37 1.845-2.307 3.61-.796-.746-1.494-1.4-2.2-2.064-.76.202-1.656-.39-2.417.482-.005 2.47 1.83 2.545 3.64 2.66.807 1.49.4 2.767-.673 3.494l3.976 3.976v3.055c-3.594 1.887-7.746 1.484-12.184 2.695.538-2.318 1.184-3.802 2.39-5.16 1.718 1.22 3.6.677 6.17.914-1.015-1.42-1.98-2.148-2.72-3.02l-3.832-.216c.67-1.625.906-3.116 2.216-4.403-1.962-1.167-2.078-3.733-4.008-4.962l1.244-1.244c2.956-.988 6.39.76 9.455-1.065zM183.196 111.424c-.93 1.69-1.49 3.455-1.175 5.147-1.22.846-1.784.227-2.404-.465-1.908.924-2.56 4.058-5.743 3.08 1.51.948 3.33.68 4.066 2.32-.935.486-.76 1.654-1.338 2.39-2.135-1.558-5.14-1.808-6.433-4.523 1.025-1.45 2.71-2.4 4.09-3.093 1.224-1.293.53-2.516.75-3.624-.74-.76-1.162-2.07-2.74-1.493-.552.912 1.105 1.03.757 1.933-.165.428-.028.972-.028 1.357-.38.61-.89.546-1.758.544.06-3.096-2.304-5.166-3.754-8.13-.594 1.162-.745 2.503-1.98 3.086l-1.59-1.503c2.028-.9 1.77-3.61 4.3-4.61.842 1.286 1.478 3.095 3.01 3.793 1.378.628 2.66 1.797 4.383 1.478 0 1.934 3.257 1.476 2.312 3.934l4.48-2.248.794.628zM199.923 20.88c-1.105.1-1.902.336-2.64-.087-.81-1.155.316-2.64-.645-3.67-2.066.56-1.218 2.705-1.97 3.77-1.436.727-1.68-1.177-3.24-.773-.503 1.03-1.15 2.358-1.827 3.75-3.985 1.015-5.33-3.452-8.476-4.248-.85-1.338 1.393-1.776.77-3.27 3.213-1.075 6.288-2.528 9.615-2.346 1.603 1.62-1.384 2.26-.337 3.684.726.664 1.473.42 1.965-.36.82-1.297 1.51-2.676 2.346-4.19 1.16-.527 2.283-.187 3.398 1.338.454.733-.384 2.195.208 2.946.81 1.03.982 1.966.833 3.455zM263.093 6.99c1.15.65 1.946 1.307 2.74 1.308 1.013 2.254-3.05 1.163-1.64 3.377 2.044-1.25 5.227.273 6.267-2.705 2.858.253 2.508 2.414 2.683 4.015h1.448c.258-1.26-1.37-2.41-.32-3.768 1.937-.984 2.15 1.588 3.523 1.782.98.003 2.017.167 2.69-1.05 1.488 2.254 4.216 2.432 6.096 3.934.89-.41-.318-2.59 2.18-1.577.72.705.05 2.05.188 3.25-.68.437-.946 1.402-1.91 1.445-1.308-.114-1.613-1.56-2.682-1.984-1.816-.65-3.128 1.765-5.15.747-.195-.923.806-1.15 1.244-1.65.32-.366 1.264.17 1.495-1.102-3.723-.254-6.8 3.068-10.67 1.793-.78-.62.138-1.824-.442-2.602-1.56-.143-.247 1.478-1.186 1.674-2.667.424-5.54-.602-7.95 1.263l-1.526-1.45c.61-2.41 3.42-3.736 2.923-6.7zM163.895 309.33l.253 2.48c2.132-1.318 4.35-.61 6.95-.898-.618 3.616-1.678 6.632-4.14 9.793l-2.027-3.722c.317-1.427 1.64-.593 2.023-1.434.06-.642.257-1.34-1.086-1.586-.998-.048-1.356 1.35-2.297 1.936-2.497-1.433-3.317-4.735-6.26-5.71-.103.122-.29.24-.297.368-.03.658-.014 1.318-.014 1.906.42.92 1.728.105 2.07 1.467-.354 1.492-1.863 2.175-3.355 3.886-1.13-3.69-1.258-6.965-2.715-9.804 2.05-2.327 2.06-2.35 4.095-1.407 2.23 1.033 4.376 2.26 6.8 2.726zM511.207 299.27c-1.02 1.123-1.977.717-2.948.52-.636-1.205.434-3.236-1.982-3.558-.962.823.188 2.3-.54 3.606-1.14.267-2.376.294-4.063-.18 2.198-3.195 4.224-6.282 3.244-10.03.814-1.175 2.035-.18 2.858-.895-.008-.872-.88-1.136-1.28-1.733l-.935.936c-.99-.7-1.82-1.432-1.487-3.32.61-1.515 2.363-2.318 3.886-3.23.683-1.97-2.582-.813-1.903-2.844 2.842-2.212 3.692 2.205 5.933 1.73v2.53c-1.682.063-3.198.842-4.904 1.527.984 2.133 3.8 1.75 4.91 3.49 0 .272.035.576-.004.586-1.887.46-2.785 2.57-5.013 2.898 2.563 2.223 2.277 5.673 4.224 7.967zM193.875 307.936c.402 1.806-.73 2.223-1.127 2.814-1.784 1.107-2.98-1.152-4.678-.71 1.227 1.15 2.262 2.12 3.273 3.07-.87.988-1.77 1.41-.994 2.827 1.982-.192 4.184-1.806 6.484-.604.596 1.66-.074 2.81-1.474 3.667-1.23.523-1.654-1.85-2.626-1.076-.945.58-.672 1.123-.722 1.59.706.994 1.9.115 2.632.59.603.86.285 1.678.285 2.468-.473.47-.945.943-1.426 1.424l-6.377-6.432c2.193-2.2.382-4.2-.904-5.65-1.326-1.493-1.256-2.882-1.105-4.908 2.952.438 5.863 1.534 8.757.93zM350.973 128.526L349.498 130c-1.905-1.995-4.236-3.608-4.672-6.696-1.032-.376-2.15-.647-2.75-1.743-.06-1.1-.117-2.218-.18-3.45-1.268-.07-2.384-.13-3.484-.188-.433-.695-1.428-.943-1.41-2.426 1.96-1.333 3.653-3.662 6.976-3.483-.794 2.333-.89 2.396-3.37 3.67 2.266.448 4.796.237 4.428 3.59 1.692-1.62 3.212-1.427 4.79-1.032-.37.857-.716 1.654-1.107 2.556-.67.733-1.914-.374-2.75.767.857.68 1.733 1.38 3.376 2.686.184.07 1.594-.702 2.666.12-.026.526-.04.85-.058 1.178-.702.997-1.92-.006-2.767.748.152.99 1.16 1.332 1.786 2.23zM147.29 227.956c.688.082 1.088.01 1.308.177.902.68 1.75 1.43 2.544 2.095-.896 1.344-2.558 1.785-2.163 3.107l2.53-2.53c2.035.735 2.415 2.456 3.988 2.195 1.17-.708-.212-2.337 1.082-3 1.227-.207 1.646.895 2.39 1.47.887 1.39-1.933 1.637-.476 3.354 1.06.24 1.182-1.96 2.647-1.81.976.4 1.958.924 1.84 2.717-1.62.042-3.153.733-4.637 1.485-.706.357-1.197 1.137-1.727 1.667-2.42-.817-1.254-3.03-1.844-4.814-2.478 1.27-4.88 2.5-7.316 3.75-1.086-1.324-1.086-1.324-.165-9.862zM145.797 299.532c.62 3.2-1.974 5.1-.25 7.575l2.49-3.315v-2.44c.455-.155.91-.424 1.01-.326 1.39 1.344 3.284.868 4.936 1.022.153 3.204-3.583 2.574-3.896 4.576-.365 2.33-3.547 2.568-3.044 5.237h-3.646c-.102-.186-.287-.442-.392-.727-1.416-3.857-.652-8.027-2.064-11.734 2.152-1.31 2.85 2.387 4.857.132zM21.506 225.02h2.292c.333 3.274 2.917 5.09 5.098 7.395v3.204c-.302.133-.58.358-.862.364-1.654.034-3.31-.003-4.963.022-1.898.028-3.89-.428-5.334 1.276l-1.592-1.7c.87-1.013.97-2.574 2.503-3.63 1.478.458 3.14 1.817 5.085.824.19-.96-1.278-1.346-.844-2.4-.712-.958-1.96.175-2.686-.662-.853-1.968.92-3.147 1.304-4.695zM304 205c2.344-1.472 3.787-4.045 6.514-5.13.862-.343.738-2.043 2.062-2.83h3.884l2.385-2.385c.312.542.815 1.056.9 1.632.207 1.425.223 2.88.308 4.194-1.68 1.334-2.794-.037-5.016-.78-.78-.09-.49.294-.45.27.44-.27 1.534.603 1.327-.418-.163-.806-1.147-.772-.877.15.964.785 1.163 1.542.93 1.713-1.208.89-.786 2.84-2.354 3.435l-1.777-1.078c-1.172 1.92-3.42 2.174-5.5 3.055-.747-.38-1.122-1.655-2.336-1.827zM176 37c0-.497 0-.993.002-1.49-1.85-.683-3.282-1.814-4.07-3.47.467-1.832 1.75-.675 2.523-1.036.734.355.398 1.154.614 1.504.465.69.99.44 1.464.47 1.06-1.032.278-1.713-.404-2.35.75-2.717 3.437-.96 4.914-2.004-.145-.6.232-1.18-.222-1.363-1.516-.99-1.967 1.212-3.436.64l-1.734-3.894c3.34-.09 5.99 1.885 8.72.898.985.73.49 1.63.602 2.224-2.047 2.046-4.024 4.02-5.968 5.965v3.448c-1.05.768-2.062.33-3.006.46zM232.757 296.514c1.54 3.8 2.924 7.208 4.284 10.562-1.108 2.41-2.962 2.31-4.898 1.538-2.308-.923-4.622-1.776-7.188-1.725.094-2.725 2.7-3.12 3.34-5.017 1.68 1.31 2.143 3.593 4.484 4.01.83-2.61-.55-3.815-2.67-4.184-.736-2.652 1.398-3.326 2.65-5.186zM173.998 39.998c.002.827.002 1.65.002 2.477-.676 1.05-1.856.16-2.665.692-1.375.75-1.13 2.646-2.407 3.418-.695.807-1.586.23-2.424.445-1.332 1.012.265 2.85-.948 3.932-1.383.343-2.156-1.453-3.556-.962.19-.83-.804-.925-.89-1.61l1.354-1.354 1.025.93c.245-1.313 1.098-2.034 2.387-2.33.225-1.13.4-2.246-.865-3.077l1.625-1.754 1.116 3.307 2.91-3.794c-.355-.714-1.132-1.735-.307-3.32H176v3c-.82 0-1.41 0-2.002-.002.083-.482-.137-.785-.594-.888-.077-.017-.312.217-.294.294.103.457.406.677.888.594zM455.017 190.483l1.102-1.102c2.415-1.956 5.082 2.433 7.303-.105 2.42.595 3.762 2.507 5.49 4.115v2.425c-1.99-.156-3.478 1.64-5.515 1.094-.798-.652-.143-1.568-.454-2.23.685-1.247 1.89-.32 2.698-.826.357-.355.357-.355-2.164-2.876l-.918 1.96c-1.447.86-1.707-1.963-3.186-.722.51-.604-.688-.3-.34.24.713 1.106 1.836 1.545 2.956 2.083-1.185.43-.66 1.818-1.46 2.43-.47-.016-1 .226-1.35-.294-1.393-2.065-2.78-4.134-4.163-6.193zM198.987 43.004c.44 1.634-.774 2.266-1.41 2.884-2.296.616-3.374-2-5.167-.82-.628-1.087-.385-1.882-.325-2.648 1.394-1.824 2.38 1.958 4.018-.09l-2.416-1.474c1.4-1.48 2.904-2.433 2.15-4.62h7.844c.138 3.16-1.795 5.978-4.693 6.768.04-.696-.294-1.03-1.233-1.004.843-1.092 1.932-2.182 3.02-3.274.225-.226.14-.463-.48-.84-1.043.51-2.22 1.085-3.34 1.63.17 1-.3 1.893.8 2.485.22.692.554 1.025 1.233 1.004zM206.51 232.974l1.625 1.733-4.65 9.337c-1.005-1.375-2.99-2.03-2.287-4.73l3.243-2.456c-2.833-2.3-3.774.554-5.757 1.5-.687-1.768-2.13-3.026-1.64-4.93 1.394-1.188 1.844.316 2.907.65 1.766-1.63 4.11-.968 6.56-1.104zM309.84 212.45c.266-3.6 3.715-3.08 3.535-5.34 1.31-.436 1.604.71 2.113.836 1.613.35 2.192-2.132 3.843-.584l3.697-4.338h2.497c.978.848.11 1.82.59 2.633-1.255.303-1.69-1.337-2.974-.348.17 1 1.67 1.896.84 3.212-.82.818-1.637 1.636-2.443 2.442-.92-.35-.128-1.618-1.398-2.003-1.546.096-2.128 1.535-2.56 3.72l-.886-2.486c-.647-.354-1.214-.266-1.684.297.32.35.64.697.96 1.043l-1.442 1.44c-1.684.365-2.51-2.22-4.687-.523zM355 149h-2.53c-.872-1.238-.767-2.367.284-3.27l-2.778-8.205 1.47-1.47c1.396-.376 2.49.732 3.27 1.37 1.057.864 2.3.057 3.38 1.17-.65.398-1.3.797-1.948 1.197-.75.597-1.046-.562-1.8-.643-.118.287-.412.674-.318.837.585 1.016.655 2.57 1.845 2.944 1.405.443 1.91 1.72 2.978 2.41-.566 1.986-3.572 1.386-3.853 3.66zM353.98 118.078c.373-1.62 1.71-2.08 3.195-2.448-1.393-1.193-2.884-.084-3.998-.952-.235-.45-.284-.9.14-1.515h4.247l2.485 1.424c-.136 1.62-1.504 1.972-2.26 3.54l4.02 4.02c-1.352 1.636-3.572 2.56-6.576 2.588-.078-.3-.208-.6-.222-.903-.022-.482.034-.968.056-1.41 1.15-.985 2.64.125 4.11-1.02-2.343-.452-4.39-1.102-5.197-3.324zM20.232 242.895c-2.407.345-3.572.848-5.563 2.24-.9-1.197-2.707-1.69-2.696-4.103 3.72.682 7.085-1.586 11.026-.882 0 1.077.393 2.336-.07 2.947-1.744 2.307-1.606 5.327-2.72 7.57l-3.185-2.875v-1.34c2.143-.227 1.977-2.076 3.207-3.557zM128.998 232.998c.002.5.002.997.002 1.494-.8.914-1.76.48-2.814.3v-5.63c1.914-.58 2.254 1.203 3.346 1.827h6.88c1.828 1.415 3.072 3.193 3.614 5.428-2.27 2.054-4.172-.827-6.303-.418-1.728-.76-2.236-3.438-4.725-3.002.083-.482-.137-.785-.594-.888-.077-.017-.312.217-.294.294.103.457.406.677.888.594zm5.992.502c.677.726 1.343.726 2.02 0-.677-.726-1.343-.726-2.02 0zM169.132 247.356c-2.027-1.29-2.535-3.183-4.254-4.123-1.526-.834-2.614-2.47-3.873-3.728v-2.227c1.986-.808 4.543.615 6.04-1.406 1.6.714.71 1.83.9 2.69-.71.987-1.92-.026-2.806.784-.16.136-.096.564.308.567 1.342.013 2.257.816 2.473 1.874.23 1.122.993 1.52 1.66 2.14.98-.715-.077-1.94.79-2.803l1.54-.107c.354 2.672-.846 4.476-2.778 6.34zM184 60v-3.5c1.222-1.12 2.123-2.628 3.837-3.295l-2.703-.404-.153-1.3c1.16-.69 2.27-.913 3.325.305l2.273-2.776c-.447-.514-1.644.377-2.378-.157-.09-.52-.146-.83-.23-1.313 1.19-1.433 3.575.43 4.58-1.458l1.63 1.545c-1.696 3.503-3.512 6.898-7.257 8.734.49.64 1.22.924 1 2.178-1.13.46-2.24 1.562-3.923 1.442zM178.908 258.624c1.335-1.395 2-2.238 3.206-1.024-.526 1.742-1.77 2.8-3.213 3.512-1.067-.456-.896-1.152-.9-1.78-.004-.65 0-1.298 0-1.94-3.24-.914-4.256-3.593-5.34-6.246-1.127.12-.275 2.39-1.992 1.85-.49-1.757-.49-1.757 1.975-6.15 3.434 1.184 2.5 4.68 3.7 7 1.315 0 .127-1.512 1.293-1.8.216.017.667.055 1.015.085 1.082 1.31-.394 1.762-.653 2.582-.144 1.398 1.7 1.84.91 3.912zM111 251.988v2.5c-.686 1.04-1.876.144-2.696.672-.437.915 1.13 1.09.456 2.46-2.865.954-5.523 2.833-6.133 6.534-2.97-.6-2.59-3.703-4.705-4.597.946-.887 1.81-.394 2.7-.572l.587 1.725.35.23c.498-2.272 3.68-3.524 2.275-6.395 1.62-1.1 3.36-.123 5.077-.832-.104-1.14-2.887-.442-1.765-2.37 1.5-1.34 2.39 1.517 3.853.645zM208.933 287.978c.677.166 1.4-.297 1.95.405.598 1.706-1.232 2.028-1.814 3.072 1.546.528 2.7 2.148 4.435 1.508.795.942.365 1.786.472 2.584-2.2-.012-3.006 3.737-5.76 2.15-1.28-2.207 1.847-1.186 1.8-2.49-2.855-3.147-2.86-3.158-3.016-6.654-1.083-1.143-2.18-2.3-3.576-3.77l3.897-1.943c1.074.916-.016 1.113-.21 1.58.5 1.245 2.623 1.658 1.823 3.558-.417-.06-.72.16-.823.618-.018.077.217.312.294.294.457-.103.677-.406.53-.912zM220.68 134.185l-2.747-.443c.897-1.337 2.38-2.01 2.447-3.637 1.472.41 1.376 1.95 2.084 2.906.834 1.128 1.937 1.02 3.242 1.02-.197 1.502-1.738 3.153.273 4.448-1.043 2.21 2.33 2.195 2.03 4.03 2.204.527 2.22 3.075 4.09 3.953-1.092.93-1.643.435-2.32-.15-2.19-1.885-3.662-4.616-6.81-5.704.322-2.413-.362-4.606-2.29-6.42zM288.557 124.213c-2.448-3.707-2-4.59 2.834-5.692-.833-.41-1.393-.688-1.953-.965-.53-.538-.74.852-2.182.203-.167-.175-.874-.666-1.204-1.34-.258-.53-.05-1.286-.05-2.34 3.533.066 6.273 1.85 9.29 3.396-1.354 3.434-5.12 3.785-6.733 6.74zM248.88 280.02h-3.334c-.732.546-.508 1.056-.503 1.54 1.073 1.075 2.57-.09 3.79.744.234 1.19.378 2.435-.322 3.92-3.004-1.592-6.21-2.636-9.106-5.14 2.826-2.2 6.172-2.563 8.1-5.037 1.314.864 1.784 2 1.375 3.974zM503.712 308.825c-1.462.515-2.58.113-3.667-1.376 1.76-1.75 3.806-3.5 4.022-6.492 1.01.067 1.943-.13 2.522.233.75.473 1.317 1.17 1.51 2.33.268 1.61 1.232 3.105 1.963 4.8l-1.182 1.34c-1.12.655-1.19-1.97-2.266-.524-1.188-1.285-.247-2.73-.596-3.584-.503-.567-.647-.27-.985-.138-1.74.677-.543 2.453-1.32 3.41zM47 295c-1.793.443-2.353 2.605-4.377 3.255-.58-1.166-1.66-2.302-1.51-3.242.353-2.226-1.103-3.96-1.113-6.013h3.87c.446 1.886-1.82 3.056-.643 4.708 2.365-.163 1.438-2.3 2.088-3.607h3.29c.747.707.222 1.585.414 2.422l-2.02.933V295zM476.325 288.157l-5.318-2.697c-.12-2.17 1.67-2.174 3.01-2.903-.074-2.206-1.547-3.628-2.977-5.018 1.43-2.417 3.698-1.226 5.56-1.578.862 1.826.15 2.343-1.274 2.03-.588 1.516-.255 2.73-.226 4.293l1.397-1.255c1.074.742.094 1.77.622 2.522l-2.22.877c1.152.66 2.452.87 2.97 1.882l-1.545 1.845zM298.014 209.104c1.8-.58 3.95.846 5.494-1.07l1.028.923c.51-.433.83-1.103 1.656-.947 1.87.687 1.78 2.765 2.82 3.983-.096 1.016-1.02 1.3-1.46 1.958-1.287-1.44-2.83-1.067-4.37-.66-.126.488-.24.936-.354 1.383-.233.42-.465.404-.7-.046-.81-1.548-2.875-1.395-3.795-2.794-.636-.883-.204-1.89-.32-2.73zm4.996 2.396c-.677-.726-1.343-.726-2.02 0 .677.726 1.343.726 2.02 0zm1.212-.796c.482-.252 1.33.99 1.64-.376-.605-.483-1.158-.517-1.64.376zM514.13 274.182c-1.098.992-2.89 1.422-3.54 2.754-1.343.27-1.68-.666-2.444-1.253v-6.776l1.9-1.254-.995-1.276c2.662-1.332 3.54.97 4.92 2.105-.803 1.51-2.322 1.515-3.73 1.71-.024.99 1.19 1.446.916 2.466.675 1.062 2.422-.57 2.973 1.524zM456.056 186.473c-2.68 1.975-2.634 5.95-5.837 7.467-2.152-1.418-2.152-1.418-4.08-7.613 1.064-.66 2.24-.185 3.357-.33 1.16 1.057.09 2.535.436 3.272.495.804.62.617.985.362 1.242-.87 1.246-2.163 1.024-3.453 1.616-.166 2.885-.514 4.114.293zM330.494 192c-1.26 1.278-2.536 2.57-3.832 3.88l-2.296.24c-.69.703.293.73.384 1.522-.187.555-.806 1.093-2.157 1.49-.55-1.55-2.07-2.762-1.455-4.998h3.266c.803-1.02.823-2.29 1.943-2.95.74-.31.655 1.04 1.16.804 2.34.112 1.99-2.335 3.334-3.01 1.29.233 2.05.923 2.17 2.232-1.2.722-1.2.722-2.516.79zM209.984 35.516l-1.426 1.426c-1.398.39-2.55-.71-3.273-1.36-1.285-1.157-2.696-1.573-4.312-1.822l3.506-2.86c.988-.156.115 1.65.933 2.03.686.133 1.323.204 1.57-.6.402-1.17-1.35-1.477-.864-2.957l2.384-2.146c.355 3.248 1.804 5.542 1.48 8.29zM175.112 317.356c-.44-2.27-2.165-.718-2.952-1.72-.39-.646-.123-1.444-.08-2.23.664-.793 1.556-.23 2.306-.413 1.53 1.13 2.462 3.027 4.572 3.43v2.19c-2.398.92-4.71 2.492-7.506 2.385-1.187-1.62.253-2.216.986-2.85.65-.563 1.917.28 2.674-.792zM157.505 102.404c-.855-1.764-.167-2.28.664-3.047-1.21-1.104-2.826-1.992-3.485-3.346-.678-1.39-2.08-1.95-2.79-2.898.55-1.88 1.803-.76 2.588-1.107.717.37.35 1.18.83 1.86h2.01c1.04.79.533 1.688.717 2.612 1.243.626 2.583 1.3 4.013 2.022-.225 2.88-3.023 2.382-4.548 3.904zM247.175 274.6c-1.51.614-2.642.38-3.75.323-.758-.535-.084-2.712-2.178-1.704-.097 1.134 1.648 2.004.144 3.68-.658.305-1.902.173-3.208-.093 1.782-2.363-.438-5.873 2.854-7.93 2.152 1.364 3.79 3.682 6.14 5.723zM237.113 138h-3.608c-1.13-1.035-.084-2.487-.68-3.69-.517-.2-1.183-.297-1.63-.662-.865-.705-1.607-1.56-2.31-2.264.586-2.284 1.954-2.66 3.752-2.25.475.878.543 2.162 2.195 2.01v3.942c.52 1.094 1.304.782 1.833 1.077.705.505.083 1.25.448 1.837zM135.374 77.92c1.907.202 2.386 1.668 3.436 2.37-.24 1.588-2.338 1.283-2.6 2.166-.365 1.233-1.103 1.96-1.905 2.7-.907.836-1.41 1.947-1.72 2.797-1.525.164-1.718-.936-2.96-1.402 1.057-.67 1.855-1.176 2.064-1.31.535-1.454-.06-2.34.59-3.038 2.614-.424 2.614-.424 3.094-4.282zM202.99 315.936c2.02.684 3.547-1.422 5.537-.91l1.403 1.403c-1.46 1.587-.64 4.296-2.747 5.575-1.02.157-1.312-.823-2.22-1.452l2.278-2.312c-2.082-.652-3.52 1.966-5.196.304-.722-1.24 1.11-1.52.947-2.608zM410.782 319.046c.29 1.24.366 2.156-.098 2.91-1.448.27-2-.705-2.584-1.407-.798-.958-1.86-.268-2.714-.664-.285-3.05-.23-3.477 1.905-3.796 1.5-.224 2.697-2.055 4.684-.695.29 1.99-1.362 2.357-2.784 2.94-.01.09-.072.236-.025.318.32.558.875.283 1.617.393zM195.457 300.957l-1.422-1.422.943-1.036c-.665-1.036-1.84-.13-2.643-.66-.583-1.867-2.23-3.548-.99-5.707 1.494-.635 2.122 1.23 3.817 1.52-.955.27-1.91.54-3.42.97 2.644 1.816 3.764 1.438 4.833.452l1.528 1.528c-.53 1.612-1.065 3.277-2.646 4.354zM473.495 269.078l-1.48-1.634c-.266-1.314.92-1.662 1.475-2.455.6 1.773 2.408.48 3.298 1.267.968 2.038-1.1 1.443-1.62 2.06-.82 2.048.656 3.018 1.835 4.17-1.574.485-2.79 2.06-4.74 1.377-.34-1.756-.926-3.496 1.232-4.786zM130.737 90.714c-2.415.503-2.52 3.337-4.4 4.524-1.505.952-1.754 3.504-4.466 3.444 1.18-4.24 6.397-5.91 6.3-11.208l2.567 3.24zM186.99 343.802l4.936 4.634c-1.39 2.922-4.87.2-6.275 3.723-1.242-3.677 1.132-3.72 2.315-4.624-1.37-.893-.91-2.284-.974-3.734zM368.31 160.37c.81 2.77 2.64 3.95 4.037 5.476l2.447 4.498c-2.546-1.255-4.262-2.72-5.093-5.19l-2.313-.266c-1.145-1.51.092-2.642.922-4.52zM356.78 105.71c.35 2.178-.04 4.253 1.48 6.064-2.428-.228-4.22-1.146-6.676-.725 1.206-2.745 2.606-4.344 5.197-5.34zm-1.77 3.79c.324.467.657.467.982 0-.325-.467-.66-.467-.983 0zM313.5 124c2-1.063 2-1.063 4.078-.075.565-.56 1.05-1.32 2.105-.718.56.783.44 1.68.022 2.59-1.37-.265-2.727-.652-4.107-.765-1.635-.134-3.29-.03-5.04-.03l-1.283-1.99c1.364.206 2.98-.685 4.225.988zM85 143c-.133.613.396 1.535-.36 1.81-2.48.905-2.686 3.534-4.256 5.19H78c1.046-3.686 3.314-5.954 7-7zM476.884 194.172c-.542 1.42-1.456 2.122-3.298 1.807l2.388 2.545c-.62.836-1.528.283-2.34.563l-2.556-2.446v-2.47h5.806zM161 101.002c1.526-.256 3.308.694 4.6-1.067 1.502 2.49-1.683 3.912-.204 6.477-2.675-.595-2.495-3.137-4.396-2.806v-2.604zM353.148 210.65c1.286-1.7.51-4.598 3.792-5.268 1.062.39 1.285 1.67.964 3.3l-1.675.586c-.67.783.31 1.988-.648 2.665-1.303.443-1.704-.72-2.434-1.283zM182.788 317.89c2.488.84 2.148 3.175 3.59 4.513-2.29 1.454-2.7-.777-3.82-1.325-.775.262-.443 1.03-.697 1.582-.525.506-1.09.512-1.953-.172.71-1.56.974-3.406 2.88-4.598zM296.964 17.48c.17 1.62-1.202 1.71-1.485 3.025-1.903-1.437-3.352-2.962-5.434-2.713-.225-1.843 1.15-2.06 1.484-2.825 1.54.093 1.97 1.11 2.652 1.753.814.767 2-.302 2.782.76zM353.886 107h-1.51c-.445-1.07-.963-2.175-1.348-3.324-.137-.408.052-.924.084-1.3.993-.89 1.558-.223 2.138.376.89.165 1.337-1.41 2.418-.59.68.66.156 1.533.328 2.277-.346.74-1.13.43-1.66.72-.708.506-.083 1.254-.45 1.84zM144.575 242.94c-1.592-1.128-2.53-3.117-4.715-3.303.368-1.933 1.754-2.577 3.117-4.094-.41 2.877.7 4.36 2.992 4.926.33 1.22-.725 1.67-1.395 2.47zM347 89c2.72 1.54 3.09 4.424 4 7h-3.598c-.71-1.083-.384-1.707.366-2.213-1.04-1.493-.74-3.166-.768-4.787zM298 209h-2.908v-2.022c2.226.157 4.376-.06 6.103-1.65.81-.745 1.873-.163 2.805-.328v1.472c-1.877 1.133-4.443.633-6 2.528zM350.298 95.188c2.747 1.865 2.966 3.68 4.134 5.353-2.046.686-3.7.447-5.243.37-.847-2.442 3.005-2.61 1.108-5.722zM161.927 49.903c1.192 1.59 1.37 3.208.808 5.235-1.785-.483-3.29-1.1-4.797-2.725 1.97-.026 2.515-1.9 3.99-2.51zM195.103 129.012c.5.123 1.202-.31 1.775.37l-.88 1.405c.038 1.967 1.972 2.072 3 2.503.072 2.43-2.108 1.45-2.584 2.663-.5-2.033-1.032-3.115-2.475-5.003l1.163-1.938zM237 138c.752.024 1.61-.233 2.098.608.658 1.133 1.928 1.33 2.902 1.943V142c-2.024.19-3.514-2.16-5.352-.866-1.746-1.676.582-2.085.352-3.134zM476.37 197.13l2.1-2.1c.537.927 1.657.817 2.47 1.395v2.036c-.157.365-.52.514-1.06.578-.428.05-.816.44-1.5.843-.557-.86-.47-2.207-2.01-2.75zM368.593 160.872c-2.11.394-3.9-.582-5.144 1.18-1.104-1.817-.297-3.026 1.283-4.14 1.737.262 2.214 2 3.86 2.96zM297.454 141.252c.104-1.653-1.977-2.252-1.33-3.923 1.8-.925 2.98-.17 3.883 1.398.002 1.332-.896 1.888-2.553 2.524zM302.96 22.382c.083.918-.016 1.365-.717 1.65-1.032.182-1.426-.955-2.204-1.468-.637-.42-1.364-.702-2.047-1.044.18-.793-.335-1.666.43-2.455 1.648 1.076 2.47 3.222 4.538 3.317zM156.034 57.84c-.168-1.69.79-2.263 1.818-2.893 1.167.455 2.222 1.017 2.157 2.647-1.37.723-2.69.342-3.976.245zM186.977 289.17h3.81c.66 1.67-.692 2.078-1.485 2.913-1.54-.444-2.547-1.27-2.325-2.912zM144 88.93c2.03.95 2.325 3.06 3.973 3.875.223.11.005.926-.75 1.247-1.52-.055-2.198-1.603-3.158-2.616-.394-.416-.065-1.517-.065-2.505zM184.003 59.985c-.192 1.054.195 1.878.946 2.567-.737.582-1.17 1.665-2.475 1.433-.877-1.11-.395-2.396-.368-3.587.557-.72 1.283-.253 1.896-.413zM346.972 89.36c-2.36-1.828-2.055-4.16-2.762-6.108 2.073 1.38 2.978 3.303 2.762 6.108zM111.17 252.003v-3.865c1.87-.41 2.34.806 3.05 2.228l-3.05 1.637zM328.538 202.01c-.802-.164-1.64.29-2.553-.49.986-1.057 2.303-1.95 2.373-3.55.617.097 1.155-.18 1.62.616.62 1.417-1.597 1.987-1.44 3.424zM195 129c-2.307.37-2.816-1.734-3.976-2.488-.086-1.278.397-1.546 1.258-1.513 1.296-.016.172 2.02 1.454 1.977 1.717-.058 1.19 1.136 1.263 2.024zM150.122 245.93c-.176.454-.19.66-.292.72-.253.15-.69.412-.798.322-1.04-.858-2.07-1.74-2.993-2.72-.162-.17.188-.824.342-1.4 1.977.467 2.858 1.864 3.74 3.08zM475.566 264.02c-1.896-.11-2.383-1.18-2.67-2.384.902-1.153 1.903-.263 2.634-.72.646 1.14.646 2.027.036 3.105zM475.663 258.92h-2.242c-.53-.53-.87-.108-.376-.35 1.583-.775.513-2.392 1.3-3.473h1.25c.757.594-.14.718-.198.938-.64 1.126 1.47 1.38.267 2.886zM482.005 199.505c.994-1.196 2.07-2.145 3.453-1.405l-2.432 2.426-1.02-1.02zM78 150c-.133.945.312 1.96-.342 2.842-1.26.644-1.695-.524-2.56-1.21.62-1.17 1.472-1.854 2.902-1.632zM172.693 277.835c-1.484.654-1.875-.74-2.684-1.35.756-.534 1.107-1.662 2.372-1.48 1.077.815.753 1.817.31 2.83zM204.812 279c.142 1.246.568 2.188-.276 2.972-1.21.327-1.66-.7-2.68-1.566l2.207-.86-.53-.546h1.28zM187 289c-1.58-.392-2.16-1.448-2-3h2.876c-.237 1.193-1.236 1.918-.876 3zM114.83 247.992c-1.146-.647-1.98-1.24-1.81-2.508.493-.604 1.063-.59 1.81-.26v2.768zM201.02 276.122h3.623c-1.43.9-1.655 2.04-2.978 1.877-1.085-.38-.53-1.304-.644-1.878zM85.024 143.156c-.244-1.584.432-2.442 1.727-3.115.704 1.946-.638 2.38-1.726 3.116zM154.96 61.04l.148-1.9 1.416-.12c.607.548.608 1.102.16 1.886l-1.724.134zM155.04 60.96l-.148 1.9-1.416.12c-.607-.548-.608-1.102-.16-1.886l1.724-.134zM181.086 66.987v-1.513c.424-.68.96-.41 1.506-.493.74 1.27.725 2.095-1.506 2.007zM493.018 202.575c-1.807 1.077-2.15-.428-3.036-1.15 1.806-1.077 2.15.428 3.036 1.15zM150 89h-2v-2h2v2zM184.976 286.156c-1.088-.737-2.43-1.17-1.727-3.115 1.294.674 1.97 1.532 1.726 3.116zM149.96 88.96l1.9.148.118 1.405c-.542.656-1.108.547-1.877.26l-.14-1.813zM350.96 215.04l.148-1.9 1.416-.12c.607.548.608 1.102.16 1.886l-1.724.134zM233.1 148.39l1.474 1.475-1.034.18c-.776-.72-.685-1.384-.44-1.655zM377.4 172.104l-.95-1.946c1.35-.675 1.523.216.95 1.946zM487.392 202.114l-.738-2.06c1.077-.6 1.272.304.738 2.06zM151.246 248.085h1.374c.557.632.544 1.183-.233 2.117l-1.14-2.117zM324.456 114.163c1.14-1.343 1.775-1.427 2.467-.758-.388 1.052-1.28.417-2.467.758zM189.837 121.456c1.343 1.14 1.427 1.775.758 2.467-1.052-.388-.417-1.28-.758-2.467zM201.163 276.544c-1.343-1.14-1.427-1.775-.758-2.467 1.052.388.417 1.28.758 2.467zM350.403 216.927c-.622-.693-.657-1.677.15-1.84 1.02-.208.147.887.418 1.327.025.04-.36.33-.567.513zM181.004 68.996c-.086-.48.135-.783.592-.886.077-.018.312.217.294.294-.103.457-.406.677-.886.592zM180.996 69.004c.086.48-.135.783-.592.886-.077.018-.312-.217-.294-.294.103-.457.406-.677.886-.592zM147.996 86.996c-.48.086-.783-.135-.886-.592-.017-.077.217-.312.294-.294.457.103.677.406.592.886zM546.5 234.995c-.466-.328-.466-.66 0-.99.466.328.466.662 0 .99zM539.5 228.995c-.466-.328-.466-.66 0-.99.466.328.466.662 0 .99zM528.5 220.005c.466.328.466.66 0 .99-.466-.328-.466-.662 0-.99zM495.01 203.5c.324-.467.657-.467.982 0-.325.467-.66.467-.983 0zM265.5 156.995c-.466-.328-.466-.66 0-.99.466.328.466.662 0 .99zM263.99 156.5c-.324.467-.657.467-.982 0 .325-.467.66-.467.983 0zM523.5 217.005c.466.328.466.66 0 .99-.466-.328-.466-.662 0-.99zM525.005 218.5c.328-.466.66-.466.99 0-.328.466-.662.466-.99 0zM88.99 138.5c-.324.467-.657.467-.982 0 .325-.467.66-.467.983 0zM330.01 196.5c.324-.467.657-.467.982 0-.325.467-.66.467-.983 0zM189.996 121.996c-.48.086-.783-.135-.886-.592-.018-.077.217-.312.294-.294.457.103.677.406.592.886zM555.5 244.005c.466.328.466.66 0 .99-.466-.328-.466-.662 0-.99z"/></svg>