<?xml version="1.0" encoding="utf-8"?>
<!-- Generator: Adobe Illustrator 17.0.0, SVG Export Plug-In . SVG Version: 6.00 Build 0)  -->
<!DOCTYPE svg PUBLIC "-//W3C//DTD SVG 1.1//EN" "http://www.w3.org/Graphics/SVG/1.1/DTD/svg11.dtd">
<svg version="1.1" id="Layer_1" xmlns="http://www.w3.org/2000/svg" xmlns:xlink="http://www.w3.org/1999/xlink" x="0px" y="0px"
	 width="562px" height="356px" viewBox="0 0 562 356" enable-background="new 0 0 562 356" xml:space="preserve">
<g>
	<g>
		<path d="M273.987,209.513c0,0.017,0-0.979,0-2.024c0.822-0.787,1.662-1.592,2.557-2.45c1.292,0.185,2.943-0.76,4.19,1.529
			c0.716,4.689,3.355,9.283,5.582,14.271c1.952,0,4.076,0,5.959,0c1.231,0.881,0.362,2.072,0.733,2.653
			c1.857,1.984,3.885,2.718,6.44,2.488c3.898,4.392,9.553,6.299,14.494,9.077c0,1.978,0,3.629,0,5.412
			c-0.396,0.917-1.779,1.271-2.006,2.932c1.027,0.554,2.183,1.176,3.238,1.745c2.391-1.636-1.499-2.505-0.145-3.625
			c-0.211-1.876,1.883-2.033,1.971-3.454c0.409-3.213-3.106-4.162-3.873-6.72c0.739-0.472,1.004-1.204,0.931-1.992
			c4.356-1.579,8.358,1.469,12.549,0.539c1.06-1.059,2.121-2.12,3.395-3.394c-0.757-2.6,1.345-3.358,3.685-4.186
			c2.532,0.844,2.452,3.764,3.202,5.935c0.584,1.691,1.081,3.271,2.634,4.761c0.542-0.034,1.594,0.227,2.06-0.181
			c5.119-4.481,12.538-5.646,17.282-11.693c0.808,0,2.261,0,3.743,0c0.583,1.344,2.654,0.312,2.891,2.206
			c1.789-1.297,4.036-1.286,4.628-3.736c-1.583-1.176-2.931-0.661-4.086,0.756c-0.75-0.651-1.228-1.066-1.682-1.461
			c-0.273-3.317-0.273-3.317,1.828-8.687c1.164-0.359,2.401-0.319,3.743-0.007c0.035,0.757,0.066,1.401,0.099,2.108
			c0.034,0.08,0.063,0.248,0.159,0.359c1.068,1.248,2.145,2.487,2.811,3.256c2.376,0.211,2.529-1.888,3.653-1.921
			c1.365-0.095,1.505,1.059,2.441,1.332c-0.833,4.038,1.163,6.86,4.113,9.293c-0.837,1.636-1.61,3.145-2.478,4.842
			c1.647,2.101,1.334,4.553,1.249,6.425c-0.69,0.958-1.163,1.614-1.561,2.168c-1.771-0.286-2.351-1.336-2.564-2.765
			c-4.552-0.973-9.142-1.872-13.152-3.29c-1.654-0.103-2.041,0.94-2.782,1.67c0.617,1.231,0.86,2.661,2.015,3.766
			c0,2.552,0,5.199,0,7.977c-0.616,1.131-1.598,1.841-3.135,1.555c-0.238-0.142-0.719-0.279-0.739-0.465
			c-0.227-2.101-1.486-2.736-3.518-2.456c-2.024,1.121-1.863,3.823-3.64,5.579c0,1.241,0,2.7,0,3.784
			c-1.132,1.988-2.731,1.519-4.552,1.591c-0.121-2.7-3.494-3.306-3.722-6.029c-1.812-0.041-2.408,1.886-4.596,1.333
			c-0.28-0.346-1.079-1.333-1.747-2.158c-1.891,0-3.35,0-4.758,0c-3.56,1.94-4.014,6.72-7.925,8.657
			c-1.103-1.401-2.819-0.498-4.252-0.97c-0.553-1.626-1.681-3.07-1.357-4.951c0.302-1.75-1.372-2.565-1.49-4.05
			c-2.284,0.415-1.021,2.063-1.688,2.842c-4.047,1.11-7.892,2.992-12.653,2.346c-0.084-0.515-0.379-1.969-1.472-3.456
			c0.884-0.574,1.716-1.114,2.612-1.695c-0.752-0.805-1.178-1.26-1.85-1.978c-2.013,1.063-4.494,1.232-6.462,2.784
			c-0.082,1.436,1.325,1.795,1.971,2.829c0,0.88,0,1.868,0,3.14c-3.982,1.689-8.18,2.743-12.573,2.276
			c-0.971-1.398,0.348-3.1-1.125-4.304c-0.435-0.355-0.449-1.631-0.207-2.329c0.58-1.67,1.118-3.279,0.979-5.105
			c-0.139-1.822-0.031-3.664-0.031-5.553c-1.888-2.719-4.774-3.36-7.845-3.653c-3.073-0.293-5.165,1.355-7.086,3.427
			c-0.906,0.977-1.879,1.891-2.971,2.983c-0.054,0.963-0.116,2.084-0.145,2.598c-0.762,2.614-3.114,1.42-3.956,2.412
			c-0.664-0.667-1.408-1.414-2.151-2.16c-1.994-5.547-3.708-11.491-9.262-14.901c-5.373,0.607-8.496,5.693-13.464,6.737
			c-2.328-0.768-2.758-2.852-1.998-4.037c1.685-2.629-0.093-5.789,1.831-8.284c0.851-1.103-1.183-1.837-0.879-3.454
			c0.365-0.282,0.999-0.773,1.902-1.471c1.463,1.397,3.684,1.998,5.322,4.062c-2.249,2.201-3.322,4.986-3.96,8.248
			c3.67-1.058,4.419-4.391,5.893-7.106c1.022,0.722,1.991,1.134,3.078,0.96c0.833-0.289,0.675-1.015,0.741-1.545
			c0.762-1.047,2.022,0.09,2.918-0.939c-0.468-2.594-2.316-5.013-1.965-7.935c1.635-0.926,3.201-2.098,5.721-1.384
			c0.652,0.785,1.599,1.924,2.316,2.786c3.16,0,5.823,0,7.474,0C269.84,213.66,271.657,211.843,273.987,209.513z M341.862,242.917
			c0.667,1.224,1.175,2.155,1.809,3.317c2.104-1.438,5.281-1.096,6.341-4.242c-0.724-2.859-3.914-1.377-5.549-3.373
			C344.567,240.809,342.721,241.367,341.862,242.917z M330.486,235.887c-1.363,2.399-5.062,2.352-5.585,5.584
			c1.236,0.906,2.51,0.456,3.916,0.422c0.77-1.524,2.682-2.199,3.304-4.145C331.701,237.271,331.288,236.801,330.486,235.887z
			 M297.078,239.146c0.882-0.169,1.329-0.254,1.696-0.325c0.552-1.513,0.192-2.592-0.928-3.516
			c-0.346-0.285-0.478-0.392-0.768,0.174C297.078,236.46,297.078,237.558,297.078,239.146z M267.086,228.655
			c0.856-1.513,3.028,0.017,4.409-1.877c-1.898,0.447-3.114-0.159-4.409,0.563C267.086,227.77,267.086,228.213,267.086,228.655z
			 M287.48,238.606c2.425,0.192,2.425,0.192,2.11-1.317C289.097,237.597,288.481,237.982,287.48,238.606z M276.778,224.296
			c-0.482,0.252-1.331-0.989-1.64,0.376C275.743,225.155,276.296,225.189,276.778,224.296z"/>
		<path d="M80,200.603c0,1.063,0,1.729,0,2.834c-0.962,0.584-2.198,1.335-3.998,2.428c-3.8-1.033-7.493-4.442-12.428-6.869
			c1.575,3.238,2.896,5.953,4.231,8.696c-0.974,1.769-2.789,1.564-4.327,1.224c-5.231-1.158-5.618-1-9.789-0.204
			c-2.95,0.563-6.116,1.104-9.054-1.001c-0.804,1.027-1.515,1.936-2.074,2.651c1.14,1.137,2.498,2.492,3.857,3.846
			c0.291,1.173,1.193,0.628,1.511,0.699c1.296,1.071,2.293,1.895,2.963,2.449c0.225,1.05-0.071,1.487-0.492,1.723
			c-2.427,1.361-4.879,2.676-7.158,3.917c-1.247,0.092-1.393-1.056-2.185-1.294c0-1.407,0-2.724,0-4.203
			c-1.205-1.021-2.468-2.09-3.833-3.246c-0.816,1.722,0.748,4.316-1.45,5.731c1.86,2.247,1.86,2.247,2.228,4.443
			c-0.33,1.02-2.491,0.124-2.159,2.106c0.046,0.277-0.613,1.686-1.227,2.362c-0.738,0.272-1.287,0.057-1.743-0.516
			c-0.405-0.509-0.839-0.994-1.215-1.436c-2.592,1.275-4.526,1.111-4.507-0.453c0.032-2.611-1.599-3.221-3.27-4.127
			c-0.281-0.152-0.477-0.459-0.713-0.695c-0.289-1.342-0.52-2.666,1.186-3.397c1.286-0.728,3.307,0.524,4.313-1.52
			c0.722-7.817,0.593-10.725-0.603-13.312c0.471-0.471,0.942-0.942,1.573-1.573c3.729,1.744,7.744,2.521,12.307,2.009
			c-0.653-1.082-1.326-2.137-0.914-3.432c1.04-1.061,2.527,0.032,3.861-0.749c1.035-1.531,2.174-3.215,3.266-4.83
			c-1.014-1.558-1.233,0.222-1.869,0.158c-0.824-0.083-1.663-0.02-2.737-0.02c-0.828,1.006-1.768,2.147-2.46,2.987
			c-1.225,0-1.888,0-2.545,0c-1.153-1.842-2.309-3.691-3.476-5.555c0.407-0.407,0.878-0.878,1.432-1.432
			c2.403,0,4.903,0.16,7.373-0.046c2.339-0.196,4.481-1.641,7.108-0.673c-0.925-3.519-0.903-4.263,0.02-6.696
			c-0.684-0.926-2.151-0.668-2.966-2.32c0.206-1.538-0.257-3.517-1.191-4.736c0.502-2.229,1.961-2.32,3.042-2.902
			c0.665-1.562-1.855-2.42-0.807-4.107c0.155-0.129,0.369-0.457,0.629-0.499c2.912-0.474,4.923,1.58,7.27,2.497
			c0.309,1.888-2.26,2.073-1.959,3.958c1.024,0.974,2.349,0.37,3.557,0.452c0.998-0.718-0.099-1.967,0.816-2.823
			c1.347,0,2.798,0,3.848,0c1.824,0.938,3.32,1.706,4.761,2.446c0.145,1.548-1.28,1.902-1.94,2.961c0,0.848,0,1.831,0,2.957
			c-2.568,2.384-4.744,5.281-8.114,6.847c0.296,2.8,2.714,4.308,3.539,6.72c1.995-0.013,2.422-1.89,3.617-2.591
			c-0.324-2.09-3.348-2.644-1.812-5.092c3.121-1.845,6.321-4.052,10.005-5.361c1.369-0.486,1.517-1.931,2.18-2.98
			c0.996,0,1.992,0,3.32,0c0.478,3.148,0.407,6.263-1.038,9.369c0.998,0.823,1.888,1.558,2.728,2.251
			c3.442-1.355,7.222-0.248,10.779-0.7c1.312,0.818,2.014,1.821,1.669,3.596c-0.942,0.792-2.075,1.745-3.235,2.721
			c1.144,2.323-0.739,3.881-0.737,5.833c0.002,1.831,1.772,3.032,1.503,4.884c1.154-1.839,2.307-3.677,3.461-5.515
			c-1.504-1.008-0.782-2.601-0.878-3.995c1.072-1.072,2.131-2.131,3.285-3.285c1.082,1.143,2.52,0.867,3.878,0.81
			c1.334-0.056,2.416,0.459,3.625,0.908c1.241,0.461,2.93,0.468,3.984-0.933c1.416,0.877,3.322,1.042,3.723,3.047
			c0.772-0.175,1.659,0.354,2.344-0.381c-0.195-0.723-1.281-1.059-0.744-2.377c1.234-0.334,2.835-0.399,4.04-1.465
			c0.646,0.595,1.121,1.034,1.675,1.544c-0.569,1.116-1.143,2.242-2.054,4.028c3.984-1.802,7.378,3.263,10.181-0.239
			c2.096-0.289,2.195,1.113,3.165,1.326c-1.026,2.974-2.962,5.076-4.411,7.491c-0.737,0-1.383,0-2.217,0
			c-0.972-0.416-0.452-2.077-1.233-2.384c-2.049-1.253-4.397,0.476-5.813-1.54c-0.434,0.702-1.414,0.95-1.464,1.595
			c1.792,1.693,3.438,3.249,5.103,4.822c-0.229,0.206,0.134-0.12,0.552-0.496c1.62,0.222,2.24,1.695,3.259,2.567
			c-1.695,2.552-2.974,5.338-5.497,7.55c-0.651-0.873-1.317-1.766-2.346-3.145c0-0.208,0-1.185,0-2.31
			c-4.89-4.603-7.766-10.897-12.489-15.561c-0.823,0-1.482,0-2.093,0c-0.543,0.343-0.496,0.845-0.501,1.336
			c-0.024,2.568,1.858,2.638,3.948,2.819c-1.344,1.919-1.532,4.339-3.478,5.789c-0.49-0.49-0.961-0.961-1.451-1.451
			c0-0.643,0-1.304,0-2.038c-0.832-0.754-1.692-1.535-2.534-2.298c-2.206,3.242-4.491,6.602-6.608,9.713
			c-2.632,0.669-3.539-1.211-4.957-2.462c0.623-1.963-0.559-3.581-1.326-5.373c-0.624,0-1.273,0-1.978,0
			C81.841,203.621,81.076,202.203,80,200.603c0.116-0.202-0.319-0.939,0.312-1.398c1.454-1.058,1.826-2.783,2.561-4.38
			c0.655,0.071,1.405,0.121,1.892,0.505c0.664,0.522,1.187,1.018,2.113,0.332c0.03-0.371,0.065-0.808,0.134-1.654
			c-1.411,0.234-2.735-0.465-4.139,0.818c-2.107-0.166-2.749,1.754-3.929,2.865C79.446,198.842,78.044,200.448,80,200.603z
			 M51.208,203.875c2.416-1.397,4.987-0.718,6.794-0.861c1.321-1.08,2.206-1.803,2.971-2.428c0-0.841,0-1.49,0-2.161
			c-1.592-0.386-2.81-2.173-4.983-1.034C55.085,199.816,52.916,201.521,51.208,203.875z M68.055,195.239
			c2.361,1.795,4.748,2.796,6.698,5.075c-0.055-4.381-1.054-6.037-4.354-7.261c-0.63-0.234-1.62-0.386-2.345,0.367
			C68.055,194.032,68.055,194.676,68.055,195.239z M72.044,187.477c-0.876-0.624-1.511-0.915-1.967,0.28
			C70.706,188.035,71.256,188.24,72.044,187.477z"/>
		<path d="M266,209.011c-2.391-0.025-3.877-1.663-5.615-2.971c-2.17-1.632-4.816-2.642-6.091-6.009
			c0.089-0.781-0.291-0.489-0.265-0.445c0.268,0.441-0.603,1.535,0.419,1.328c0.806-0.163,0.772-1.147-0.154-0.882
			c-0.578,0.851-0.964,0.814-1.131,0.604c-1.966-2.475-4.426-4.119-7.758-4.499c-0.198,0.184-0.557,0.518-0.496,0.462
			c-0.76-0.381-1.509-0.758-1.696-0.852c-0.549-1.644,1.003-1.754,0.788-2.735c0.158-0.599-0.418-0.806-0.677-1.198
			c-0.982-1.486-3.417-0.115-4.126-2.194c0.449-1.637,2.857-2.038,2.846-4.142c-1.126-0.592-1.812,1.15-2.948,0.626
			c-1.825-1.177-3.379-2.86-5.711-3.199c-0.515-1.073-1.047-2.184-1.734-3.617c-1.386-0.94-3.303-1.526-5.579-1.314
			c-0.225-2.25,1.782-3.445,1.951-5.56c-1.415-0.891-3.058-0.219-4.584-0.426c-0.242,2.296-0.229,2.381,0.562,3.985
			c0.028,0.997-0.973,1.248-1.35,1.85c-2.752,1.137-4.912-1.183-7.559-0.783c-0.052-0.978-0.086-1.617-0.133-2.519
			c3.232-2.92,6.099-6.262,6.12-11.413c-2.144-0.509-3.644,2.481-5.69,0.451c-1.879-2.13-1.879-2.13,0.793-5.965
			c-0.965-0.772-1.977-1.582-3.208-2.568c-2.575-0.788-5.736-1.17-7.977-3.527c-0.095-2.868,3.219-2.047,3.947-4.045
			c-3.147-3.509-8.697-2.354-11.877-5.878c-0.005-0.951-0.406-1.963,0.565-2.718c0.836-0.651,0.044-1.591,0.719-2.699
			c1.171-0.156,2.7-0.74,4.059,0.732c1.845-1.732,4.446-2.538,5.897-4.844c2.928,1.689,1.156,4.389,1.863,6.756
			c-1.712,0-3.157,0-4.443,0c-0.794,0.898-1.835,1.321-1.769,2.44c0.635,1.142,2.193,1.046,5.236-0.245
			c2.517,0.832,1.576,3.221,2.006,5.791c0.939-1.494,1.457-2.318,1.749-2.782c1.578,0,2.574,0,3.957,0
			c-0.3,1.908,0.498,3.413,1.932,4.276c1.001,1.828-1.166,2.75-0.813,4.215c0.343,0.544,1.003,0.704,1.309,0.463
			c1.134-0.894,2.156-1.93,3.22-2.913c0.679,0.73,0.383,1.982,1.432,2.439c-0.332,0.357-0.666,0.715-1.17,1.257
			c1.891,3.437,4.259,6.378,8.176,7.712c0.05,1.168,0.217,2.335-0.965,3.093c0.973,0.936,2.693-0.129,3.46,1.404
			c0.63,1.259,1.874,1.121,3.092,1.004c1.156-1.222-0.498-3.372,1.495-4.45c-2.701-2.253-5.62-4.021-8.433-5.131
			c-0.368-0.745-0.609-1.016-0.623-1.298c-0.049-0.957-0.019-1.917-0.019-2.723c2.645-2.162,5.914-1.836,8.679-3.863
			c0.194-1.87,2.177-2.661,3.88-3.268c0.79-1.607,0.261-2.95,0.442-4.228c0.814,0.011,1.558,0.077,2.233-0.683
			c1.325-1.493,2.801-2.851,4.202-4.251c1.423-0.286,2.628-0.024,3.496,1.439c0,1.503,0,3.15,0,5.109
			c1.021,0.821,2.177,1.751,2.962,2.382c0.225,1.344-0.159,2.21,0.534,3.048c1.033-1.146,0.282-2.511,0.726-3.786
			c1.17-0.421,2.408-0.353,3.655-0.071c0.062,0.987-1.688,1.414-0.174,2.821c1.462,0.175,2.195-0.86,2.354-2.49
			c0.174-1.783,1.1-2.607,3.2-2.501c1.697,1.202,3.623,2.568,5.653,4.007c1.455,0.164,1.683-1.816,3.435-2.103
			c3.023,1.877,2.276,6.193,5.061,8.371c-0.602,0.377-0.858,0.67-1.132,0.686c-0.968,0.059-1.942,0.023-2.698,0.023
			c-1.03-0.958,0.071-2.209-0.924-2.925c-0.798,0.73-2.096,1.113-1.552,2.469c-1.855,1.204-3.754-0.663-4.895,0.037
			c-1.939,1.191-2.987-0.422-4.724-0.632c-0.583,0.802-1.265,1.741-2.053,2.826c-0.022-0.028,0.246,0.306,0.52,0.647
			c-0.313,0.466-0.643,0.958-0.752,1.121c-0.447,1.403,1.167,1.484,0.879,2.477c0.085,1.353-1.305,0.649-1.699,1.221
			c-0.337,0.488-0.437,1.14-0.696,1.874c-2.043-0.59-4.334,0.899-6.09-1.088c-1.486,0.665-1.663,2.315-2.384,3.494
			c-0.675,1.105,0.436,2.95-1.955,4.559c3.915-0.724,6.56,1.242,9.593,1.012c0.141,1.186-1.789,1.336-0.418,2.737
			c-1.809-0.09-2.031-1.596-2.871-1.778c-1.011-0.19-1.425,0.344-1.842,0.847c-1.232-0.852-2.569-1.772-3.752-0.22
			c-1.022,1.341-2.388,1.494-3.781,1.351c-0.203,3.177,3.443,5.495,0.92,8.725c2.241,0.134,4.03,0.986,4.975,3.134
			c0.816,1.854,2.525,3.174,3.027,5.25c0.323,1.335,1.7,1.917,2.519,2.825c1.713,0,3.369,0,4.981,0
			c1.204-1.122,2.121-2.785,4.527-1.585c-0.53,1.785-1.367,3.617-1.108,5.893c-2.206-0.612-3.868-2.121-6.033-0.765
			c0.627,2.565,2.875,2.275,4.743,2.641c0.947,0.707-0.266,1.987,0.898,2.876c2.035-0.089,3.525-2.507,6.008-1.992
			c0.372,0.42,0.812,0.917,1.41,1.593c0.632,3.539-2.77,6.587-1.979,10.378c-0.752-0.024-1.565,0.206-2.108-0.602
			c-0.698-1.039-1.753-1.578-2.892-1.665C266,209.942,266,209.471,266,209.011c0.973-0.468,1.938-0.943,3.15-1.539
			c-0.635-0.697,0.564-1.854-0.794-2.471c-1.252-0.224-1.6,0.961-2.356,1.499C266,207.34,266,208.17,266,209.011z M244.004,178.004
			c-0.086,0.48,0.135,0.783,0.592,0.886c0.077,0.018,0.312-0.217,0.294-0.294c-0.103-0.457-0.406-0.677-0.728-0.052
			c-0.341-1.187,0.294-2.079-0.758-2.467C242.736,176.769,242.82,177.404,244.004,178.004z M235.479,171.874
			c-1.444,0.356-2.61-0.421-3.902,1.323c1.481-0.575,2.493,0.449,3.547-1.351c0.929-1.154,0.929-1.154,0-2.813
			C235.123,170.168,235.123,171.084,235.479,171.874z M250.125,159.375c-1.384,1.383-2.393,2.432-3.448,3.433
			c-0.666,0.632-1.057,1.246-0.121,2.299c0.895-1.153,1.77-2.279,2.611-3.361c0.701,0.609,1.044,0.907,1.38,1.199
			c1.658-1.379-0.759-1.892-1.026-2.819c1.444-0.356,2.61,0.421,3.902-1.323C251.942,159.378,250.931,158.354,250.125,159.375z
			 M247.244,142.744c0.103,2.13-1.874,2.834-2.428,4.482c2.077,1.137,0.522,3.392,1.735,4.947c0.193-1.852,1.544-2.624,2.448-3.708
			c0-1.322,0-2.643-0.001-3.965C248.531,144.031,248.064,143.564,247.244,142.744z M239.696,157.813
			c0.901-0.972,1.856-1.963,3.37-2.23c-0.951-0.959-1.757-1.772-2.565-2.587c-1.076,2.221-4.702-0.458-5.242,2.678
			C236.643,156.341,238.01,157,239.696,157.813z M222.942,158.436c-0.786-0.788-1.667-0.257-1.391-0.192
			c-1.25,1.251-2.097,2.099-2.71,2.712c0.121,0.006,0.764,0.036,1.621,0.077C221.23,160.23,222.085,159.334,222.942,158.436z
			 M241.6,170.986c-0.437,2.227-2.619,2.092-1.749,4.273C240.966,174.463,242.333,174.029,241.6,170.986z M257.086,153.987
			c2.231,0.088,2.247-0.738,1.472-2.064c-0.518,0.099-0.964,0.185-1.472,0.282C257.086,152.77,257.086,153.213,257.086,153.987z
			 M247.08,154.256c0.526-0.167,1.281-0.407,2.12-0.673c-0.961-0.731-1.513-0.765-2.12-0.189
			C247.08,153.786,247.08,154.223,247.08,154.256z M251.477,156.137c0.777-1.269,0.633-2.161,0.042-3.268
			C250.801,154.033,250.847,154.919,251.477,156.137z M231.041,167.549c0.486,0.473,0.992,0.964,1.614,1.569
			c0.471-1.112,0.417-1.675-0.177-2.121C232.04,167.064,231.513,166.799,231.041,167.549z M256.01,155.5
			c-0.677-0.726-1.343-0.726-2.02,0C254.667,156.226,255.333,156.226,256.01,155.5z M243.934,157.524
			c0.923,0.615,1.563,0.92,1.945-0.182C245.257,156.845,244.704,156.811,243.934,157.524z M225.5,168.005
			c-0.466,0.328-0.466,0.661,0,0.989C225.966,168.667,225.966,168.333,225.5,168.005z M237.5,181.005
			c-0.466,0.328-0.466,0.661,0,0.989C237.966,181.667,237.966,181.333,237.5,181.005z M238.5,166.995
			c0.466-0.328,0.466-0.661,0-0.989C238.034,166.333,238.034,166.667,238.5,166.995z M259.991,155.5
			c-0.325-0.467-0.658-0.467-0.983,0C259.333,155.967,259.667,155.967,259.991,155.5z M244.005,172.5
			c0.328,0.466,0.661,0.466,0.989,0C244.667,172.034,244.333,172.034,244.005,172.5z"/>
		<path d="M124.385,301.11c1.834-0.284,2.238-1.6,3.546-2.261c2.193,1.524,3.57,4.424,7.58,5.637
			c-2.056-2.414-0.603-5.893-4.429-5.682c-0.762-3.342,2.418-3.857,3.244-5.978c0.569,0.569,0.922,0.922,1.621,1.621
			c-0.351,4.002,1.653,7.785,3.153,12.022c-0.877,0.758-1.854,1.602-2.99,2.584c-3.27-1.638-6.715-3.364-10.5-5.26
			c-0.7,1-1.451,2.072-2.201,3.144c-0.198-0.136-0.397-0.272-0.595-0.408c0,2.121,0,4.242,0,6.317
			c-1.766,0.649-2.803-2.016-4.63-0.604c-1.202,0.929-2.707,1.467-4.042,2.162c0.717,2.951,4.024,0.469,5.233,2.47
			c1.065-0.356,1.395-1.739,2.658-1.88c0.952-0.008,1.2,0.992,1.837,1.388c0,2.146,0,4.264,0,6.337
			c-0.893,0.454-2.053,0.586-2.423,0.122c-2.594-3.252-6.973-2.663-10.026-4.842c-2.28,0.556-3.146-1.348-4.419-2.539
			c-0.276-1.66,0.329-2.75,1.902-3.486c2.655-1.243,5.173-2.796,7.878-3.904c1.187-0.487,1.988-0.943,2.31-2.587
			c-2.762-1.113-5.353-2.851-8.654-2.422c-1.727,1.999,1.455,3.488,0.427,5.664c-2.167,1.339-4.302-2.069-6.603-0.488
			c-1.375,2.596,1.669,4.839,0.583,7.429c-1.222,0.222-2.042,1.502-4.08,1.254c-1.375-0.704-3.297-1.687-5.832-2.983
			c-0.77,0-2.222,0-3.356,0c-1.39-0.785-1.332-2.12-2.081-2.938c-1.221-0.235-1.689,0.808-2.413,1.418
			c0.297,0.687,1.313,1.053,0.917,2.051c-1.298,1.156-3.273,1.102-4.362,2.381c-1.542,0-2.997,0-4.37,0
			c-0.97-2.14,0.463-3.154,1.793-4.333c-0.791-4.369,1.681-8.542,0.905-12.739c1.285-2.591,3.521-1.517,5.422-1.843
			c1.162,2.819,3.663,4.299,5.254,6.256c2.24-0.668,0.875-2.202,1.684-3.138c0.822-0.95,2.089-0.797,2.845-1.698
			c1.024-1.22,2.032-2.633,2.63-3.923c0.676-1.459,1.884-2.193,2.644-3.41c1.004,0,1.998,0,3.14,0
			c1.297,2.498,2.139,5.263,2.753,8.025c2.366-0.199,2.815-2.572,4.775-3.103c1.606,0.294,0.802,3.025,2.991,3.155
			c1.218,0.073,2.377,1.142,3.939,1.959c-0.582-3.757-2.766-5.761-5.993-7.139c0.381-1.478,1.935-2.004,2.189-3.513
			c0.23-1.364,1.858-1.663,3.437-1.334C120.378,294.037,122.998,297.246,124.385,301.11z M99.004,311.004
			c-0.086,0.48,0.135,0.783,0.592,0.886c0.077,0.018,0.312-0.217,0.294-0.294c-0.103-0.457-0.406-0.677-0.89-0.596
			c-0.151-0.758,0.496-1.915-0.965-2.017c-0.045-0.583-0.092-1.18-0.132-1.708c-1.069-0.327-1.951-0.542-2.78,0.102
			c0.585,1.205,1.464,1.888,2.877,1.623C98.151,309.758,97.504,310.915,99.004,311.004z M103.559,297.754
			c-1.547,3.512-1.547,3.512-1.19,7.264c0.657-0.194,0.482,1.135,1.46,0.714C106.217,303.244,104.767,300.754,103.559,297.754z
			 M87.992,306.234c-0.588-0.973-0.588-0.973-1.871-1.868c-0.028,0.906-0.558,1.881,0.381,2.624
			C87.157,307.03,87.833,307.139,87.992,306.234z"/>
		<path d="M40.101,288.984c-2.885,0.469-1.378,3.879-3.606,4.924c-1.135-1.146-2.823-1.962-2.47-4.273
			c0.778-1.091,3.915-0.903,2.432-3.821c-1.906,0.496-2.626,2.167-4.013,3.167c-1.053-1.185-2.143-2.412-3.391-3.817
			c0.287-3.948-4.914-5.461-5.234-9.742c-1.785-0.385-2.857-2.085-4.283-3.362c-0.959,0.512-0.37,1.431-0.595,2.38
			c1.043,1.045,2.179,2.182,3.655,3.661c-2.651,1.395-4.911,2.583-7.207,3.79c-0.365-0.365-0.836-0.836-1.307-1.307
			c-0.567-2.148,1.588-3.834,0.954-6.055c-0.471-1.65-0.035-3.325-0.817-5.163c-0.832-1.956-0.881-4.767,1.094-6.694
			c-1.993-1.523-4.448,0.506-5.783-1.708c-0.786,1.193-1.921,1.132-3.071,0.986c-0.51-0.32-0.472-0.825-0.457-1.314
			c0.052-1.686,0.983-2.948,2.477-4.825c0.241-0.351,1.458,0.625,2.423-0.176c0-1.307,0-2.759,0-3.895
			c1.065-1.065,1.884-1.884,2.74-2.74c2.222-0.588,3.89,1.206,4.165,2.569c0.421,2.086,1.59,3.714,2.197,5.624
			c0.93,2.93,0.95,3.146,0.208,6.758c2.629-0.228,4.8-2.288,7.959-1.841c-0.685,2.013-1.296,3.81-1.936,5.692
			c2.418,0.933,3.925-1.431,5.746-1.889c1.968,0.707,2.153,2.119,2.784,2.968c1.139,1.373,2.279,2.747,3.475,4.189
			c1.152-0.797,1.144-2.044,0.392-2.816c-0.891-0.915-0.435-1.856-0.704-2.808c-1.02-0.565-2.357-0.82-3.012-2.32
			c0.463-2.286,3.104-2.372,4.481-3.847c0.935-1.001,2.437-0.242,3.394,1.055c-2.719,5.058,1.388,10.185,0.014,15.364
			c-1.882,2.283-3.949,1.323-6.085,0.2c-0.839,0.752-1.663,1.492-2.385,2.139c-1.562-0.094-1.921-1.467-2.915-2.044
			c-0.75,0.126-1.613-0.254-2.384,0.358c-0.19,3.593,4.195,1.778,4.841,4.241c-0.248,0.295-0.535,0.635-0.853,1.014
			c1.183,0.602,2.137,0.707,3.183-0.254c0.928-0.853,2.219-0.069,3.213-0.43c0.58,0.58,1.051,1.051,1.671,1.671
			C40.816,286.001,39.457,287.304,40.101,288.984z M16.046,258.5c-1.046-0.789-2.046-0.789-3.092,0
			C14,259.289,15,259.289,16.046,258.5z M30.201,274.72c0.871-0.052,1.871,0.716,2.843-0.272
			C31.943,273.824,31.057,273.824,30.201,274.72z"/>
		<path d="M90.754,274.03c-0.588,2.105,2.686,2.564,2.212,4.55c-1.119,0.814-2.31,0.258-3.487,0.432
			c-1.121-1.056,0.387-3.569-2.428-3.828c0.079,2.241-0.673,4.622,1.016,6.892c-0.988,0.972-1.99,1.956-3.104,3.051
			c-1.556-0.515-2.239-3.231-4.718-1.822c-0.66,1.074,2.174,1.155,0.542,2.513c1.338,0.147,2.125,0.234,2.85,0.313
			c0.639,0.606,0.498,1.396,0.316,1.915c-0.495,1.412-1.694,2.255-3.237,3.399c-1.766-3.486-3.37-6.79-5.527-9.758
			c0.269-0.999,1.344-1.58,1.06-2.536c2.104-0.849,3.231,1.317,5.301,0.747c1.987-1.498,2.792-3.74,2.305-6.846
			c-1.785,0.006-3.916,0.173-5.3-1.119c-1.655-1.544-3.42-0.609-5.501-1.057c0.508,1.326,1.409,2.341,0.886,3.717
			c-0.386,0.352-0.876,0.798-1.437,1.308c-3.866,0.628-8.049-0.892-11.891,1.091c-0.786-0.302-0.513-1.079-0.712-1.557
			c-0.366-0.634-0.92-0.362-1.383-0.439c-1.985-0.326-2.375,2.426-4.684,2.194c-1.372-0.138-3.174,1.263-4.262,2.737
			c-0.771,1.045-1.8,1.38-3.311,0.841c0-1.983,0-4.213,0-6.517c1.238-0.523,2.436-0.533,3.356,1.037
			c1.584-1.561,4.174-0.713,5.553-3.224c-1.826,0.275-3.143-0.653-4.618-1.116c-1.683-0.528-2.588,1.285-4.318,1.01
			c0-2.212,0-4.446,0-6.692c0.351-0.351,0.704-0.704,1.167-1.167c2.838,2.755,6.766,3.349,10.142,5.062
			c3.594,1.823,7.188,2.948,10.947,2.837c-0.777-0.889-1.577-1.805-2.645-3.028c-0.582-0.033-1.926,0.483-2.444-1.776
			c0.493-1.006,1.266-2.583,2.031-4.144c1.269-0.364,2.167,0.613,2.354,1.341c0.595,2.312,2.67,3.127,3.757,4.699
			c2.241-0.367,2.663-2.776,4.533-3.133c1.093,1.534,2.557,2.863,4.333,3.948c1.102-0.419,0.375-1.374,0.685-2.308
			c-1.044-1.045-2.169-2.172-3.574-3.579c1.713-1.447,2.455-3.798,5.5-2.695c-0.217,3.134,0.308,6.189,2.484,8.745
			c4.989-0.498,7.995-3.919,10.875-7.006c0.948,0,1.597,0,2.305,0c0.998,1.536-0.896,3.834,1.333,4.542
			c-0.014,1.444-1.119,1.603-1.374,2.396c-1.444-0.903-2.001-2.135-1.841-3.931c-0.899,1.129-1.365,2.397-2.656,3.219
			c0,1.329,0,2.785,0,4.066c-0.645,0.645-1.116,1.116-1.577,1.577C91.963,274.753,91.811,273.831,90.754,274.03
			c0.893-0.251-0.251-1.435,0.574-1.909c0.797-0.457,1.021-1.232,0.287-2.03C90.052,271.068,89.295,272.257,90.754,274.03z"/>
		<path d="M397.989,205.53c-1.775-2.165-4.512-2.594-6.887-3.88c0-0.914,0-1.885,0-3.184c0.904-0.743,2.045-1.683,3.234-2.661
			c-1.645-1.568-2.962-2.824-4.572-4.359c0.683-0.344,1.247-0.628,2.645-1.332c0.976,0,3.093,0,5.21,0
			c0.94,1.109-0.163,2.598,0.794,3.823c3.453,0.332,1.772-3.685,4.122-4.762c1.384,0,3.175,0,5.193,0
			c0.583,0.45,0.548,1.724,0.211,2.055c-2.173,2.133-2.455,5.006-3.337,7.649c-0.095,0.284-0.399,0.498-0.646,0.792
			c1.636,2.49,0.86,5.276,1.07,7.88c-1.28,0.757-2.292,0.568-2.951,0.072c-0.818,0.773-1.693,1.6-3.09,2.92c0-0.338,0,0.325,0,0.873
			c-2.035,1.319-4.008,2.597-5.99,3.881c0.268,0.353,0.446,0.589,0.807,1.065c-1.717,2.23-2.853,5.008-5.809,6.78
			c-1.16-1.299-2.938-1.23-4.48-1.128c-0.903-0.903-1.61-1.61-2.317-2.316c-0.066-0.306-0.187-0.611-0.189-0.917
			c-0.014-2.997-0.078-5.997,0.014-8.992c0.072-2.324-0.202-4.473-1.933-6.224c1.012-1.45,2.023-2.096,3.974-1.094
			c3.748,1.924,8.043,2.23,12.039,3.471C395.914,206.193,397.063,206.37,397.989,205.53z M390.468,212.131
			c-0.825-2.051-1.362-3.237-3.622-3.098C387.222,210.859,387.788,211.934,390.468,212.131z"/>
		<path d="M204,309c-0.936-0.117-1.928,0.275-2.804-0.294c-0.071-0.155-0.171-0.288-0.191-0.431c-0.166-1.201,0.94-1.547,1.502-2.24
			c0.352,0.315,0.693,0.621,1.021,0.914c0.537-0.334,0.469-0.835,0.471-1.698c-2.447,0.216-3.868-1.908-5.969-2.762
			c-1.028-0.418-1.173-1.455-1.031-2.489c1.088-0.149,2.25,0.365,3.236-0.679c0.793-0.84,1.78-0.036,2.644-0.352
			c0.068,0.766,0.097,1.087,0.123,1.41c-0.622,1.373-2.275-0.056-2.987,1.114c0.945,1.028,2.17,0.289,3.588,0.59
			c1.548,2.702,5.1,3.154,7.194,5.104c1.049,1.678-1.772,1.927-0.604,3.402c-0.622-0.518-0.336,0.581,0.221,0.351
			c1.376-0.568,1.255-2.082,2.109-2.941c0.898,0.001,0.898,0.001,2.398,1.423c-0.156,0.614-1.085,0.764-0.79,2.205
			c0.71,1.314,2.637,1.663,4.127,2.533c1.384-1.143,0.458-2.141,0.615-3.457c-0.732,0.643-1.078,0.947-1.422,1.249
			c-0.392-0.392-1.003-0.71-1.058-1.105c-0.348-2.499-1.598-4.819-1.455-7.408c-1.347-0.667-2.693-1.335-4.214-2.089
			c1.326-3.082,4.559-2.815,6.255-4.494c1.686,0.72,0.769,1.85,0.955,2.708c-0.719,0.965-1.936-0.007-3.09,0.928
			c3.688,0.745,3.59,6.004,7.515,5.521c-0.69,0.791-1.474,1.69-2.582,2.961c-0.334-0.334-0.988-0.988-1.658-1.658
			c-0.32,0.214-0.27,0.872-0.059,1.187c0.776,1.161,1.838,1.894,3.58,1.422c0.817,2.729,4.753,2.483,5.464,5.492
			c-2.701,2.244-3.572-1.689-5.63-1.433c1.839,3.477,1.839,3.477,9.219,6.057c0.651-3.052,3.413-5.241,3.371-8.61
			c0.64-0.716,1.965-0.3,2.397-1.388c3.409,2.408,3.654,6.938,6.493,9.761c0.321,0.319,0.043,1.239,0.043,1.813
			c-0.762,0.279-1.339,0.49-1.938,0.709c2.047,2.87,2.053,6.509,3.82,8.417c0.282,2.18-0.839,2.545-1.487,3.326
			c-4.499-0.526-8.364-3.734-13.237-3.014c-0.718-2.646,3.037-2.795,1.893-4.915c2.802-0.564,3.793,0.718,4.201,2.674
			c1.2,0.348,2.563-0.153,3.372,1.115c1.012-1.493-0.621-3.809-3.549-5.349c-0.468-2.124,0.971-3.537,1.879-5.25
			c-0.906-2.341-1.031-2.477-2.602-3.466c-0.803,1.922-0.003,3.942-0.558,5.971c-1.386,0-2.845,0-4.229,0
			c-0.531,1.243-1.8,0.922-2.489,1.591c-0.061,0.789-0.123,1.578-0.2,2.575c-3.118,0-6.089,0.012-9.059-0.021
			c-0.268-0.003-0.533-0.301-1.004-0.585c1.13-1.83,2.267-3.67,3.308-5.354c-0.568-1.485-2.189-0.966-2.73-2.046
			c-2.143,0.227-3.599,2.765-6.095,1.807c-0.57-0.732-0.193-1.565-0.245-2.367c1.078-1.061,2.582,0.108,3.819-0.77
			c0.028-0.367,0.062-0.818,0.092-1.215c-1.173-1.018-2.667,0.102-3.781-0.768c-0.118-0.451-0.236-0.902-0.393-1.505
			c-1.129,0.166-2.064,1.548-3.609,0.401c-0.665-1.483,0.267-3.53-0.418-5.492C206.465,308.443,204.841,306.89,204,309z"/>
		<path d="M302.968,122.177c-0.404,0.977-1.491,1.958-0.739,3.733c1.549-1.305,3.418-0.809,5.163-0.925
			c0.797,0.361,0.468,1.164,0.867,1.841c0.345,0.071,0.8,0.164,1.356,0.278c1.05,0.974-0.601,3.081,2.276,3.579
			c-2.1,1.686-2.949,3.379-3.802,5.206c-2.528-0.628-3.979-2.632-6.09-3.388c0.001-0.501,0.001-1.001,0.003-1.503
			c0.482,0.083,0.785-0.137,0.888-0.594c0.017-0.077-0.217-0.312-0.294-0.294c-0.457,0.103-0.677,0.406-0.594,0.888
			c-0.635-0.112-0.962,0.274-0.984,0.795c-0.056,1.303-0.018,2.609-0.018,4.354c-2.258-0.567-3.983-1.263-5.062-2.781
			c0.221-2.124,2.879-0.732,2.692-2.893c0.04-0.589-0.646-0.942-1.194-1.409c-0.479,0.415-0.809,1.084-1.78,0.898
			c-1.095-0.504-0.52-2.756-2.401-2.718c-1.153,1.344,1.107,1.833,0.742,2.989c0.003,1.387-1.529,0.279-1.903,1.232
			c0.247,0.298,0.528,0.637,0.683,0.824c-0.797,0.977-1.599,1.961-2.199,2.697c-2.06,0.099-2.265-2.44-4.496-1.866
			c0.608,1.181,1.19,2.311,1.802,3.501c-0.709,0.697-1.539,1.511-2.434,2.391c-0.409-0.476-0.834-0.971-1.397-1.626
			c-0.346-2.105,0.628-4.664-1.082-6.464c0.671-0.822,1.177-1.443,1.7-2.084c1.53,0.784,2.901,1.488,4.214,2.161
			c1.076,0.039,1.33-0.962,2.175-1.495c0-2.009,0-4.127,0-6.086c1.525-1.358,2.006,0.951,3.16,0.587
			c1.409-0.462,0.43-2.73,2.386-2.663c0.571,0.828,2.315,0.286,2.793,1.755c0.694-0.641,0.876-1.663,0.343-1.764
			c-2.541-0.484-2.776-2.735-3.749-4.417c1.069-2.207,2.395-4.213,3.843-5.996c1.931,0.42,0.815,1.724,1.167,2.514
			c-0.656,0.702-1.312,1.402-1.963,2.097c1.359,1.644,1.903-0.698,2.943-0.533c1.256,0.102,1.564,1.519,2.703,1.919
			c0.882-1.487-0.259-3.262,0.628-4.735c1.883-1.047,3.193,1.43,5.019,0.806c1.143-0.182,0.261-1.548,1.142-1.947
			c0.679,0.635,1.369,1.279,2.069,1.933c0.882-1.147,1.791-1.473,2.777-0.138c0.818,0.075,0.996-1.405,1.832-0.824
			c1.835,0.302,1.238,2.625,2.849,2.988c-0.083,0.482,0.137,0.785,0.594,0.888c0.077,0.017,0.312-0.217,0.294-0.294
			c-0.103-0.457-0.406-0.677-0.888-0.594c-0.002-0.593-0.002-1.184-0.002-1.6c1.765-1.13,2.805,0.107,4,0.598
			c0,0.826,0,1.651,0,2.477c-3.335,1.971-7.068,1.447-10.243,1.523c-1.226,0.527-0.1,2.072-2.275,1.844
			c-1.001-0.739-2.593-1.742-2.694-3.844c-0.797,0-1.292,0-1.79-0.002c0.083-0.482-0.137-0.785-0.594-0.888
			c-0.077-0.017-0.312,0.217-0.294,0.294c0.103,0.457,0.406,0.677,0.888,0.594c-0.157,1.186,0.228,2.192,1.371,2.806
			C307.699,121.478,305.234,121.502,302.968,122.177c0.324-1.81,1.872-2.018,3.081-2.793c-1.554-0.914-3.537,0.41-4.678-1.406
			C300.358,119.971,301.351,121.014,302.968,122.177z M300.473,125.179c-1.925-0.094-3.196-0.561-4.439,0.232
			c0.598,0.669,1.02,1.141,1.459,1.631C297.992,125.983,299.141,126.178,300.473,125.179z M315.222,115.704
			c0.482-0.252,1.331,0.989,1.64-0.376C316.257,114.845,315.704,114.811,315.222,115.704z M305.5,126.991
			c0.467-0.325,0.467-0.658,0-0.983C305.033,126.333,305.033,126.667,305.5,126.991z"/>
		<path d="M105.071,231.91c2.675-0.05,1.976,2.28,3.004,3.309c-2.202,2.132-5.242,1.708-7.764,2.749
			c-1.476,0.61-2.455-0.457-3.379-1.605c0.094-2.059,3.107-2.437,2.635-3.938c0.997-2.729-0.506-5.068,1.27-6.804
			c-0.751-3.763-4.683-4.476-6.733-7.017c-0.167-1.623-0.532-3.299,1.523-4.609c2.798,0.763,5.531-1.594,8.655-0.927
			c0.877-0.761,1.719-1.491,2.393-2.076c1.49,0.013,1.581,1.289,2.249,1.461c0.224,1.169-0.44,1.501-0.783,1.895
			c0.412,0.856,0.619,1.863,1.229,2.46c3.465,3.397,5.411,8.024,9.179,11.194c0.628,0,1.292,0,1.956,0
			c-0.22,0.221-0.439,0.442-0.659,0.663c1.701,1.515,3.401,3.029,5.691,5.068c-3.111-0.731-5.261,2.814-8.419,0.16
			c-1.307,0.756-2.901,1.52-4.657,1.021c-0.524-0.499-1.004-0.957-1.46-1.391c-0.03-1.338-0.318-2.704,1.735-3.441
			c-2.84-2.206-4.34-4.686-5.841-7.365C106.319,225.873,104.735,228.519,105.071,231.91z M100.747,217.35
			c-0.586,0.312-1.239,0.66-1.963,1.046c1.187,0.848,1.653,2.3,3.055,1.27C102.527,218.22,101.068,217.841,100.747,217.35z"/>
		<path d="M416.728,178.061c2.114,2.114,4.089,4.089,5.715,5.715c5.18,0.794,7.751-2.145,10.465-4.784
			c1.773,2.206,1.773,2.206,1.908,5.092c-2.142-0.461-4.013,0.289-5.535,1.23c0.435,0.582,0.91,1.218,1.186,1.587
			c2.06,0.572,3.182-1.613,5.09-0.827c1.168,0.575-0.229,2.21,0.933,2.916c2.409-5.077,2.661-5.336,6.029-6.032
			c0.486,1.553,1.555,3.222,1.347,4.712c-0.317,2.267,2.085,2.863,2.254,4.892c-1.548,0.861-3.173,0.272-5.071,0.481
			c0-2.026,0-3.952,0-5.878c-1.025,1.454-2.697,2.471-1.914,4.404c-1.574,0.776-3.078,0.268-4.449,0.441
			c-0.857-0.3-0.607-1.067-0.799-1.625c-2.984-1.293-6.461-1.138-9.312-3.166c-0.83,0.391-1.732,1.021-2.863,0.78
			c-0.138-0.067-0.384-0.115-0.4-0.204c-0.37-2.124-2.67-2.896-2.928-5.419c-1.97,1.374-1.138,2.817-1.386,3.946
			c0.428,1.068,1.845,1.394,2.055,3.13c-1.654,1.167-3.508,1.962-5.895,1.366c0.411-1.187,1.325-2.2,0.65-3.534
			c-0.917-0.73-0.672,1.07-1.514,0.71c-3.675-2.136-7.829-2.162-11.702-1.982c-1.25-0.947-1.882-1.845-1.463-3.66
			c2.612-3.001,7.555-4.394,8.694-9.414c1.786,1.565,2.767,3.803,3.14,6.625c-0.995,0.915-2.214,0.228-3.052,0.395
			c-0.916,1.108-1.698,2.053-2.4,2.902c1.765,0.261,3.819,0.585,5.394-0.913c2.43,0.48,1.639,3.356,3.855,3.888
			c0.568-1.357,0.209-2.986,0.211-4.544C414.973,179.675,415.262,178.383,416.728,178.061z"/>
		<path d="M139.339,326.921c-0.634-0.728-1.049-1.206-1.044-1.2c-0.732-1.473,0.852-1.647,0.406-2.545
			c-1.648-0.984-2.675,2.472-4.628,0.164c-0.032-0.67-0.086-1.789-0.14-2.908c-1.584-0.18-2.384-1.493-3.469-2.44
			c-1.053,1.378-0.006,2.94-0.739,4.536c1.176,0.958,2.31,1.882,3.428,2.793c-1.912,2.256-4.577,2.433-6.41,3.923
			c-0.43-0.43-0.594-0.527-0.658-0.668c-0.862-1.887,2.011-3.481,0.82-4.957c-1.527-1.892-0.66-3.785-0.861-5.651
			c-0.195-1.806-0.042-3.649-0.042-5.522c3.207-1.88,4.921,1.191,7.141,2.297c1.677,0.836,2.645,2.639,4.476,3.609
			c1.595,0.845,3.707-0.181,4.671,2.9c0.534-3.446,3.666-4.294,2.692-6.914c4.007-1.42,3.64,2.244,5.2,3.685
			c-1.336,2.82-6.046,1.535-6.183,5.434c1.046,1.311,1.247-1.188,2.342-0.518c0.584,0.357,1.566,0.063,2.159,0.063
			c0.796-0.796,1.384-1.384,2.161-2.161c0.236,2.1,2.749,1.559,3.476,3.518c0.512,1.38,2.303,2.286,3.549,3.428
			c-0.108,0.084,0.1,0.004,0.112-0.1c0.112-0.966,0.189-1.936,0.284-2.986c-0.737-0.825-1.474-1.649-1.992-2.229
			c-0.224-0.944,0.146-1.329,0.544-1.581c1.175-0.741,2.393-1.413,3.574-2.1c1.582,1.585,0.688,2.748-0.318,4.053
			c1.888,2.365,0.855,5.16,1.128,7.558c-0.95,1.248-1.84,1.891-3.049,1.608c-2.429-1.592-4.603-3.652-7.182-4.554
			C147.202,326.202,143.272,327.265,139.339,326.921z"/>
		<path d="M46.975,294.829c2.716,0.442,4.261,2.579,6.659,2.275c0.706,0.702,0.114,1.623,0.396,2.348
			c0.293,0.753,0.821,1.415,1.259,2.14c4.219-2.899,8.851-3.584,11.717-7.144c-0.133-2.487-3.987-4.505-0.846-7.128
			c3.913,0.799,7.666,1.881,11.722,1.741c0,1.315,0,2.431,0,3.357c-1.844,3.02-5.495,4.042-6.932,7.464
			c-1.607,0.023-3.197,0.717-4.487-0.844c-0.914,1.153-2.769,0.995-3.434,2.484c1.924,0.78,3.757,2.867,5.68,0.483
			c1.314-0.086,1.449,1.073,2.371,1.335c0,1.85,0,3.639,0,5.367c1.954,0.915,2.275-1.006,3.544-1.702
			c0.66,1.347,0.455,2.631,0.036,4.068c-0.469-0.426-0.818-0.742-1.182-1.072c-1.64,0-3.306,0-4.948,0
			c-1.219-0.661-1.455-2.013-2.14-2.997c-2.257-0.214-1.901,2.279-3.208,3.011c-2.031-0.109-0.801-1.77-1.231-2.528
			c-0.365-0.611-0.895-0.462-1.371-0.489c-0.974-0.334-0.209-1.612-1.186-2.04c-1.914-0.008-2.292,2.148-4.221,2.911
			c-0.247-0.342-0.687-0.951-1.207-1.672c0.377-1.396,1.164-2.484,3.17-2.545c-2.013-0.551-3.729-1.134-4.592-2.645
			c-2.192-0.071-2.584,3.317-5.07,1.816c-0.939-0.589-0.402-1.574-0.302-2.496c1.114-0.873,2.606,0.232,3.708-0.706
			c-0.567-1.804-2.145-1.591-3.515-1.752C46.678,296.971,47.138,295.949,46.975,294.829z M70.437,294.991
			c0.528-0.351,2.317-2.314,2.472-2.818c-1.373-0.131-2.701-0.56-3.836,0.214C68.761,293.671,69.631,294.041,70.437,294.991z"/>
		<path d="M253.021,134.26c3.028-1.979,5.772-3.773,8.712-5.695c0.369-1.177,1.731-2.361,1.295-4.14
			c1.574-0.183,2.531-2.196,4.959-0.97c-0.426-0.352-0.207-0.261-0.193-0.146c0.116,0.966,0.195,1.937,0.329,3.383
			c0.607,0.56,1.523,1.403,2.706,2.494c0.272-2.51,0.593-4.693-1.138-6.621c1.681-0.947,3.58-0.127,4.341-1.951
			c0.756,0.705,1.116,1.039,1.324,1.233c3.096-1.122,4.864-3.778,7.214-5.86c1.212-0.347,1.537,0.943,2.305,1.303
			c0,1.232,0,2.349,0,3.451c-2.978,0.312-2.978,0.312-5.174,2.017c2.057,0,3.828,0,5.705,0c0.634,1.356,1.193,2.55,2.053,4.389
			c-4.528-0.84-8.419-1.426-12.218-2.885c-0.23,0.23-0.583,0.583-1.239,1.239c0,0.982,0.256,2.342-0.073,3.543
			c-0.322,1.18-1.229,2.201-1.008,3.548c-1.037,0.9-2.267,0.036-3.358,0.574c-1.671-2.104-2.784-4.522-5.032-6.009
			c-1.731,1.112,0.366,1.69,0.449,2.558c0.093,0.969,0.021,1.954,0.021,3.347c-2.784-0.361-5.149,0.353-6.982,2.422
			c1.171,1.349,3.351-0.447,4.521,1.71c0.604-0.875,1.146-1.659,1.609-2.329c2.365,1.183,1.511,3.687,2.857,5.075
			c0.005,1.22-1.281,1.309-1.684,2.888c-2.754-3.755-6.591-3.748-9.969-4.764C253.326,137.456,252.848,136.307,253.021,134.26z"/>
		<path d="M162.675,128.825c-0.876,0.876-1.229,1.229-1.582,1.582c1.047,1.35,1.311,3.239,2.893,4.048
			c0.131,1.559-0.117,2.794-1.83,3.546c-0.812,0-2.01-0.176-3.13,0.046c-1.322,0.262-1.986-0.948-3.29-1.07
			c-0.382,0.283-0.881,0.654-1.369,1.015c-1.048,0.252-1.426-0.645-2.141-1.248c0.607-1.302,0.905-2.81,2.258-3.728
			c2.079-0.391,2.588,3.481,5.381,1.546c0.542-0.719-1.846-0.972-0.875-2.072c-0.84-0.715-2.147-0.698-2.784-1.799
			c0.584-1.36,0.98-2.865,2.427-3.69c0.957-0.395,1.262,0.764,2.01,0.85c1.443-1.372,2.452-2.94,2.357-4.924
			c-0.103-1.059-0.812-0.944-1.46-0.922c-1.822-2.018-1.009-5.675-4.23-6.817c-0.253,0.253-0.488,0.488-0.781,0.781
			c-0.454-0.426-0.909-0.854-1.358-1.275c0.293-1.549,1.852-1.422,2.769-2.134c-1.311-1.593-2.579-3.246-4.843-2.582
			c-0.242-1.768,0.367-1.911,1.344-2.046c0.679-0.093,0.703-0.947,0.387-1.604c-1.449-1.606-2.06,1.627-3.501,0.52
			c-0.828-0.851,0.855-0.716,0.621-1.47c-0.763-1.843-1.014-4.253-3.88-4.648c0.344-0.57,0.637-1.056,0.93-1.541
			c0.098-1.465-1.578-1.601-1.846-2.859c0.313-0.298,0.792-0.754,1.278-1.218c2.28,1.116,2.581,3.958,4.555,5.366
			c-0.321,0.353-0.638,0.703-0.957,1.053c4.45,3.389,4.658,3.293,6.855,8.083c0.751,1.637,2.129,2.406,3.157,4.167
			c0,1.037,0,2.491,0,4.002c1.518,0.136,0.441-1.375,0.569-1.389c1.595-0.417,2.536-0.758,3.367,0.08
			c0.302,1.601-1.404,1.989-1.979,3.218c2.228,0.445,4.392,0.922,5.916,2.721c-0.343,0.489-0.686,0.978-0.923,1.315
			c0.039,1.689,2.05,1.894,2.007,3.651c-0.29,0.333-0.706,0.811-1.255,1.442C167.414,128.825,164.961,128.825,162.675,128.825z"/>
		<path d="M194,308c0-0.499,0-0.997,0-1.515c-1.01-0.951-1.732,1.415-2.992-0.01c-0.306-1.302,1.842-2.506,0.698-4.268
			c-0.573-0.54-1.44-0.046-2.218-0.199c-0.713,0.841-0.697,2.146-2.158,2.991c-0.732,0-1.893,0.158-2.989-0.042
			c-1.223-0.224-1.687,1.768-3.033,0.854c-0.625-0.695-0.16-1.552-0.293-2.358c1.077-1.068,2.561,0.031,3.631-0.62
			c0.4-0.288,0.363-0.547-0.072-0.755c-2.521-1.201-3.408-4.027-5.593-5.506c0.791-1.702,3.024-1.339,3.929-3.368
			c-0.394-0.26-1.021-0.674-1.942-1.282c-1.353-0.252-1.538,2.307-3.241,2.084c-1.432-0.537-0.439-1.709-0.684-2.541
			c0.319-0.893,1.67,0.043,1.856-1.079c-0.707-0.969-1.959,0.152-2.689-0.666c-0.974-1.931,0.994-1.473,1.736-2.162
			c-1.07-1.249-2.793,0.078-3.86-0.974c-0.03-0.313-0.06-0.632-0.084-0.881c0.272-1.117,1.571-0.327,1.938-1.199
			c-1.044-1.356-2.323-2.482-4.024-3.003c0.466-2.187,1.746-2.789,3.638-2.462c0.815,0.626,0.297,1.529,0.511,2.576
			c2.986,1.749,3.452,5.988,6.842,7.94c0.07,0.6,0.163,1.386,0.243,2.069c1.235,1.505,2.992,1.838,4.536,2.559
			c0.105,0.123,0.321,0.274,0.298,0.364c-0.518,2.03,0.912,3.657,2.2,3.945c2.477,0.553,2.527,3.516,4.78,3.97
			c-0.2,1.422,1.162,1.849,1.743,2.772c0.666,1.058,2.261,0.531,2.984,2.235c0.376,1.098,0.923,2.699,1.484,4.336
			c1.363,0.069,0.461-1.255,1.11-1.628c0.594-0.342,1.826,0.182,1.716-1.179c1.264-0.005,1.154,1.009,0.959,1.652
			c-0.55,1.814-1.293,3.57-1.959,5.348c-1.057,0.156-2.003-0.057-2.535-1.055c-0.648-1.216-1.198-2.483-1.817-3.783
			c-1.299-1.008-1.992,1.673-3.343,0.642c-1.179-1.143,0.353-1.612,0.607-2.426C195.217,309.007,195.015,307.951,194,308z
			 M186.316,298.146c-0.45,1.033-0.775,2.034,0.302,2.849c1.266,0.183,1.617-0.946,2.373-1.479
			C188.102,299.06,187.222,298.61,186.316,298.146z M183.005,296.5c0.328,0.466,0.661,0.466,0.989,0
			C183.667,296.034,183.333,296.034,183.005,296.5z"/>
		<path d="M155.232,149.313c-0.16-1.359-0.253-2.146-0.344-2.912c-0.789-1.357-2.488-1.297-3.503-2.328
			c-0.8,1.048-0.195,2.248-0.39,3.328c0.549,1.006,1.916,1.371,2.033,2.74c-0.452,1.376-2.787,0.724-2.858,2.538
			c0.756,0.874,2.018-0.266,2.997,1.079c-1.186,1.744-2.454,3.61-3.809,5.602c-2.518-1.466-4.215-4.143-7.3-3.122
			c-0.367,3.955,5.766,2.974,4.886,7.327c-1.301,1.065-2.323,2.797-4.733,3.882c0.505-5.64-4.359-8.7-5.399-13.734
			c1.015-0.746,2.064-1.516,3.054-2.244c1.543,1.988,4.836-0.923,6.711,1.523c2.114-4.804,1.828-5.874,0.323-12.582
			c0.501-0.28,1.223-0.684,2.617-1.463c3.982,0.524,6.687,5.387,11.626,5.878C159.812,147.601,157.028,147.252,155.232,149.313z"/>
		<path d="M316.772,85.03c0.75,0.886,1.704,2.014,2.6,3.073c1.613-0.186,2.671-1.77,4.606-0.748
			c-0.244,1.928,0.775,4.175-0.942,6.197c2.089,1.893,3.474,4.104,2.776,7.336c-1.243,0.716-2.584,1.488-3.871,2.229
			c-3.82-3.192-8.301-3.197-12.778-3.099c-0.065-1.707-0.494-3.012,0.627-4.397c1.879-2.323,2.622-5.247,3.162-8.127
			C313.344,85.397,314.519,84.869,316.772,85.03z"/>
		<path d="M251.382,325.331c1.025,1.007,2.163,2.126,3.703,3.639c0.08,0.009,0.867,0.102,1.594,0.188
			c0.808,1.158,0.115,2.896-2.33,5.943c-2.922-0.555-2.354-3.89-4.097-5.292c-1.95-1.567-2.497-4.089-4.304-5.496
			c0.474-2.345,2.224-2.272,3.769-2.509c0.225-3.933-0.508-5.534-4.696-10.294c0.327-0.369,0.715-0.7,0.955-1.116
			c0.145-0.251,0.063-0.634,0.102-1.257c4.333-0.806,8.394,2.228,12.813,0.434c0.069,1.382,0.1,2.024,0.147,2.965
			c-0.805,0.754-1.744,1.635-2.61,2.446c-1.63,0.243-1.756-1.495-3.672-1.856c-0.277,0-1.393,0-3.228,0
			c2.074,1.788,3.211,3.693,5.456,4.36c0.31,1.746-1.887,2.132-2.098,3.459c0.264,0.469,0.373,0.933,0.574,0.977
			c1.366,0.298,3.007-0.492,4.048,1.071c0.757-1.178,1.901-1.073,3.063-0.937c0.756,0.666,0.637,1.707,0.361,2.294
			c-0.646,1.376-2.441,1.961-2.323,4.073C255.072,325.083,254.958,325.04,251.382,325.331z"/>
		<path d="M132.534,188.988c0.54,1.096,1.08,2.195,1.674,3.401c-0.763,1.748-1.908,3.39-0.985,5.306
			c-2.606,0.682-3.952,0.062-4.321-2.263c-4.204-2.094-8.472-4.22-12.366-6.159c-0.827-1.536-0.446-2.688-0.507-3.804
			c1.209-1.317,2.685-2.181,4.45-2.457c1.601-0.25,2.814-1.761,4.153-1.86c1.814-0.135,3.247-1.14,4.961-1.449
			c1.302-0.235,2.115-2.545,4.269-1.39c0,2.349,0,4.792,0,7.323c-0.383,0.383-0.852,0.852-1.288,1.288
			c-1.073-0.626-2.135-1.245-3.333-1.944c-2.008,0.749-4.154,1.549-6.414,2.391C126.506,190.162,128.429,190.465,132.534,188.988z"
			/>
		<path d="M226.842,224.342c2.395-1.285,4.209-3.855,6.946-1.152c-2.171,3.947-2.292,8.327-3.037,12.559
			c-0.132,0.083-0.262,0.236-0.396,0.239c-0.831,0.022-1.663,0.011-2.798,0.011c-2.165-2.006-4.468-4.166-5.991-7.1
			c-1.109,1.137,0.184,3.002-0.793,3.326c-1.864,0.828-2.511-0.645-3.671-0.28c-0.875,0.275-1.906,0.054-2.944,0.054
			c0.068,1.18,0.931,1.88,1.391,1.903c0.926,0.046,1.387,0.641,2.022,1.027c0.253-0.253,0.489-0.489,0.743-0.743
			c0.824,0.138,1.161,0.884,1.852,1.554c-0.698,1.289-1.305,2.71-1.359,5.322c-2.991-4.233-6.859-5.947-9.855-8.578
			c0.128-1.749,1.618-2.218,2.428-3.443c1.354,0,2.806,0,3.259,0c3.971-1.418,5.97-4.913,10.094-3.889
			c0.901,0.605-0.389,2.19,0.831,2.911c1.053,0.622,1.381,1.711,1.754,2.79c2.212-0.899,1.701-2.743,1.605-4.432
			C228.323,225.823,227.735,225.235,226.842,224.342z"/>
		<path d="M297.135,190.644c0,0.605,0,1.392,0,2.249c4.165-1.964,8.591-2.243,13.574-3.891c-2.688,3.616-4.91,6.605-7.414,9.974
			c-0.936,0.448-2.566-0.276-4.079,0.909c-1.249,0.979-3.009-0.328-4.485-0.885c-1.387,1.66-2.774-0.857-4.214,0.048
			c-1.125-1.211-2.254-2.425-3.387-3.644c0.111-0.118,0.332-0.353,0.934-0.995c-0.962-0.174-1.969-0.356-2.976-0.538
			c0.337-0.39,0.675-0.781,1.012-1.171c0-0.783,0-1.567,0-2.331c0.334-0.136,0.611-0.326,0.905-0.356
			c1.786-0.186,3.218,1.095,5.072,1.106C293.761,191.129,294.81,188.945,297.135,190.644z"/>
		<path d="M136.179,167.084c-0.23,2.285-2.166,3.008-3.286,4.677c1.876,0,3.648,0,5.678,0c0.671-0.728,0.656-2.529,2.408-2.762
			c0.286,0.112,0.77,0.163,0.828,0.347c0.668,2.119,1.735,4,3.204,5.22c-0.02,1.428-1.007,1.681-1.405,2.316
			c-4.94-1.788-10.054-0.366-15.271-1.052c-1.465-0.847-1.565-2.435-1.199-4.207c2.519-3.609,6.419-6.493,7.16-11.558
			c4.752-0.59,3.699,4.241,6.065,5.932C139.081,167.557,137.669,166.728,136.179,167.084z"/>
		<path d="M216.002,19.002C216,18.501,216,18.001,216,17.501c0.813-0.894,1.77-0.49,2.878-0.264c0,1.407,0,2.861,0,4.285
			c2.352,0.401,2.19,3.112,4.066,3.695c-0.961,2.265-3.827,1.791-4.333,3.786c-1.734-0.458-3.021-0.798-4.573-1.208
			c0.651,2.316,2.117,2.262,3.643,2.274c0.504,1.224,0.404,2.464,0.029,4.204c-2.908-1.921-5.685-3.54-7.667-5.733
			c-0.16-1.483,0.942-1.677,1.237-2.463c1.705,0,3.348,0,5.256,0c0.621-0.809,1.324-1.723,2.116-2.755
			c0.068,0.125-0.001-0.226-0.185-0.304c-3.621-1.528-7.381-2.814-9.849-5.903c-2.145-0.726-3.066,0.913-4.276,2.056
			c-3.594-1.16-1.536-4.881-3.505-6.485c0.927-1.081,1.827-0.499,2.582-0.693c1.283,0.676-0.095,2.298,1.19,3.055
			c0.207-0.603,0.406-1.183,0.613-1.783c1.079-0.524,2.221-0.221,3.344-0.2c0.665,0.949,0.739,2.353,2.293,2.994
			c0-1.02,0-1.8,0-2.427c1.017-0.974,1.949-0.67,2.881-0.392c0.087,0.298,0.343,0.744,0.233,0.869
			c-1.198,1.362-1.141,2.922-0.825,4.542C214.031,19.32,215.052,18.864,216.002,19.002c-0.083,0.482,0.137,0.785,0.594,0.888
			c0.077,0.017,0.312-0.217,0.294-0.294C216.787,19.139,216.484,18.919,216.002,19.002z"/>
		<path d="M176.899,234.859c1.128,0.38,1.456,1.473,2.572,1.095c0.282-0.254,0.644-0.579,1.013-0.91
			c2.395,1.055,0.674,5.549,4.676,5.143c0,1.086,0,1.873,0,2.949c0.586-0.47,0.917-0.735,1.335-1.071
			c2.143,1.683,2.723,4.034,2.532,6.477c0.881,0.801,1.402,1.754,2.78,1.54c0,1.46,0,2.904,0,4.547
			c2.863,0.262,3.366,2.543,4.349,4.925c-0.541,0.344-1.217,0.775-1.952,1.243c-0.393-1.71-2.326-2.526-3.297-4.243
			c-0.898-1.588-2.58-2.732-3.904-4.058c0.462-0.462,0.697-0.697,0.936-0.936c-0.957-1.614-2.667-2.43-4.035-3.33
			c0.458-2.158,2.215-0.551,2.901-1.537c0.273-0.442,0.279-0.893-0.036-1.44c-0.764-0.651-1.357-0.199-1.991,0.446
			c-0.679,0.691-1.563,0.077-2.286,0.335c-0.952-1.099-0.287-2.31-0.509-3.445c-1.838-0.932-3.592-2.844-5.748-0.567
			c-2.2-0.735-4.02-1.894-5.26-3.693C171.603,234.126,176,237.662,176.899,234.859z M179.004,238.004
			c-0.086,0.48,0.135,0.783,0.592,0.886c0.077,0.018,0.312-0.217,0.294-0.294c-0.103-0.457-0.406-0.677-0.895-0.601
			c0.086-0.48-0.135-0.783-0.592-0.886c-0.077-0.017-0.312,0.217-0.294,0.294C178.213,237.861,178.516,238.081,179.004,238.004z"/>
		<path d="M186.958,343.826c-2.246,0-4.534,0-6.902,0c0.384-0.678,0.669-1.183,0.973-1.719c-0.007-1.799-2.355-0.877-2.677-2.222
			c-0.763-1.194-0.03-2.612-0.494-3.817c-1.722,0.434-1.517,2.061-2.348,2.926c-0.665,0.002-1.33,0.002-2.27,0.002
			c-2.112-4.111-7.25-4.548-10.647-7.885c2.78-3.273,6.993-3.688,10.182-6.784c0,2.279,0,3.847,0,5.598c-1.471,0-2.924,0-4.063,0
			c-0.852,0.497-0.67,1.035-0.726,1.577c1.423,1.103,3.17,0.081,4.678,0.653c0.962,1.457-0.285,3.246,0.736,4.797
			c1.988-1.184,1.907-4.128,4.85-4.907c0.038,0,0.691,0,1.322,0c0.827,1.762,1.959,3.392,1.24,5.689
			c1.365-0.063,2.343-1.223,3.784-0.64c0.317,2.039,2.425,3.015,3.248,4.306C188.274,342.903,186.791,343.045,186.958,343.826z
			 M185.147,341.488c-1.096-0.473-1.288-2.22-3.294-0.975C182.95,340.986,183.141,342.733,185.147,341.488z"/>
		<path d="M360.706,170.969c1.239-0.841,2.252-1.271,3.335-0.5c-0.357,3.13-3.923,2.639-5.188,5.201
			c-1.537-2.358-0.319-4.399-0.978-6.18c-0.289-0.876-1.614-0.024-1.852-1.147c-0.228-1.459,1.417-1.868,1.895-2.792
			c-0.472-0.954-1.486-0.099-1.896-1.421c1.319-1.729,0.952-4.145,0.981-6.977c-0.845-0.735-1.937-1.685-3.026-2.632
			c0.687-0.687,1.273-1.273,2.166-2.166c-0.805-0.492-1.611-0.985-2.222-1.359c0.333-1.03,1.242-1.186,1.078-1.996
			c1.924,0.313,3.497-0.226,4.362-2.064c0.693,0.65,1.172,1.1,1.924,1.806c-0.825,0.573-1.607,1.115-2.378,1.65
			c0.891,1.028,1.803,0.318,2.547,0.663c1.084,0.613,0.169,1.81,0.717,2.618c0.573,0.218,1.146,0.437,1.764,0.673
			c0,0.675,0,1.321,0,2.064c-0.898,0.833-2.701,0.811-2.937,2.559c-0.15,0.814,0.699,1.01,0.96,1.573
			c-0.461,0.461-0.931,0.931-1.425,1.425c-0.347-0.316-0.695-0.633-1.042-0.95c-0.844,0.595-0.321,1.506-0.554,2.278
			c0.917,0.885,2.433,0.889,3.128,2.441C361.802,167.004,360.554,168.324,360.706,170.969c-0.089,0.781,0.291,0.489,0.265,0.445
			c-0.268-0.441,0.603-1.535-0.419-1.328C359.746,170.25,359.781,171.234,360.706,170.969z M359.32,156.219
			c0.205,0.486-1.001,1.294,0.336,1.653C360.189,157.296,360.155,156.743,359.32,156.219z"/>
		<path d="M361.996,183c0.26,1.539-0.707,3.346,1.295,4.766c-2.272,1.769-0.069,5.376-3.24,6.646
			c0.542,0.961,1.536,0.16,1.836,1.036c0.499,1.401-0.433,1.586-1.636,1.665c-0.04,1.042,1.065,1.765,0.784,2.91
			c-0.292,1.186-1.559,1.534-1.915,2.599c0.764,0.7,1.469,1.408,0.265,2.456c-1.829-0.202-2.402-1.87-3.588-2.798
			c0.561-1.811,2.804-1.266,3.065-2.912c-0.799-0.677-2.369-0.242-2.523-2.094c1.956-0.688,1.239-3.322,2.626-4.821
			c-0.689-0.958-1.874-0.089-2.366-0.405c-0.768-0.655-0.579-1.146-0.533-1.615c3.59-0.929,3.59-0.929,3.765-4.123
			c-0.725-0.577-0.679,0.173-0.823,0.513c-0.119,0.282-0.157,0.599-0.232,0.901c-0.923,0.367-1.835,0.563-2.779-0.209
			c-0.162-2.132,2.257-2.518,2.519-3.169c0.206-3.581-2.935-5.129-2.441-8.277c2.622-0.264,5.256,0.494,7.523-1.374
			c0.204,2.351-0.021,4.083-0.662,5.494c0.294,0.426,0.631,0.915,0.969,1.404C363.235,182.012,362.988,183.009,361.996,183
			c0.085-0.484-0.135-0.787-0.592-0.89c-0.077-0.017-0.312,0.217-0.294,0.294C361.213,182.861,361.516,183.081,361.996,183z"/>
		<path d="M474.256,296.927c2.113,0,4.226,0,6.322,0c0.225,2.376,0.225,2.376-0.931,3.928c-1.015-0.821-2.492-0.606-3.412-1.737
			c0.006,3.117,2.67,3.004,4.66,4.347c0.501,0.685-0.056,1.873,0.107,2.978c-0.647,1.128-1.852,0.179-2.62,0.698
			c-0.595,0.355-0.316,0.903-0.38,1.372c1.017,1.071,1.716,0.336,2.435-0.454c1.041,0.946,2.23,1.761,2.695,2.936
			c-0.553,1.412-1.54,1.098-2.225,0.968c-2.572-0.488-5.114-1.129-7.771-1.737c0.372-2.104,1.377-3.186,2.994-3.957
			c-0.65-2.959-1.835-5.635-4.113-7.753c0.327-0.356,0.656-0.713,1.06-1.152c-0.075-1.333-1.784-2.358-1.304-3.257
			c1.148-1.131,1.79-1.763,2.523-2.486c-1.304-0.925-1.3,0.36-1.444,0.358c-2.161,0.15-2.467-1.167-3.223-2.592
			c2.531-0.73,4.791-0.132,6.821-0.455c0.933,1.039,2.217,1.625,1.691,2.535c-1.734,1.734-3.116,3.115-4.497,4.496
			C473.848,296.283,474.052,296.605,474.256,296.927z"/>
		<path d="M252.695,287.195c0.44,0.44,0.675,0.675,1.251,1.251c-0.673,1.115-2.372,1.844-2.308,3.609
			c-0.796-0.746-1.494-1.401-2.201-2.064c-0.758,0.201-1.655-0.39-2.416,0.481c-0.006,2.469,1.828,2.545,3.64,2.661
			c0.806,1.489,0.398,2.766-0.674,3.493c1.601,1.601,2.986,2.985,3.976,3.976c0,1.479,0,2.134,0,3.055
			c-3.594,1.887-7.746,1.484-12.184,2.695c0.539-2.318,1.185-3.802,2.39-5.161c1.719,1.222,3.602,0.678,6.172,0.915
			c-1.016-1.419-1.981-2.148-2.721-3.021c-1.151-0.064-2.273-0.127-3.832-0.215c0.67-1.625,0.906-3.116,2.216-4.403
			c-1.962-1.167-2.078-3.733-4.008-4.962c0.453-0.453,0.805-0.805,1.244-1.244C246.196,287.272,249.629,289.021,252.695,287.195z"/>
		<path d="M183.196,111.424c-0.93,1.689-1.491,3.455-1.175,5.147c-1.22,0.845-1.785,0.226-2.405-0.466
			c-1.908,0.924-2.559,4.058-5.743,3.079c1.51,0.949,3.329,0.681,4.066,2.32c-0.934,0.487-0.758,1.655-1.337,2.392
			c-2.135-1.559-5.14-1.809-6.433-4.524c1.026-1.449,2.71-2.399,4.092-3.093c1.223-1.292,0.529-2.515,0.749-3.623
			c-0.741-0.76-1.162-2.069-2.741-1.493c-0.551,0.912,1.106,1.031,0.758,1.933c-0.165,0.428-0.028,0.972-0.028,1.357
			c-0.38,0.61-0.89,0.546-1.757,0.544c0.06-3.096-2.304-5.166-3.754-8.131c-0.594,1.163-0.745,2.504-1.98,3.087
			c-0.438-0.414-0.896-0.847-1.591-1.503c2.029-0.899,1.772-3.609,4.3-4.609c0.843,1.285,1.479,3.094,3.01,3.792
			c1.379,0.628,2.66,1.797,4.384,1.478c0,1.933,3.256,1.475,2.311,3.933c1.78-0.894,3.13-1.571,4.479-2.248
			C182.667,111.006,182.931,111.215,183.196,111.424z"/>
		<path d="M199.923,20.879c-1.105,0.102-1.902,0.337-2.64-0.086c-0.81-1.155,0.316-2.64-0.645-3.669
			c-2.066,0.56-1.218,2.704-1.969,3.77c-1.437,0.726-1.682-1.178-3.242-0.774c-0.502,1.031-1.148,2.358-1.826,3.749
			c-3.986,1.016-5.331-3.451-8.477-4.247c-0.849-1.338,1.393-1.776,0.771-3.269c3.212-1.076,6.287-2.529,9.614-2.347
			c1.604,1.62-1.383,2.259-0.336,3.684c0.726,0.664,1.473,0.42,1.965-0.36c0.819-1.297,1.509-2.676,2.346-4.189
			c1.159-0.528,2.283-0.188,3.398,1.337c0.454,0.733-0.384,2.195,0.208,2.946C199.9,18.454,200.072,19.39,199.923,20.879z"/>
		<path d="M263.093,6.989c1.15,0.651,1.946,1.308,2.741,1.309c1.012,2.254-3.05,1.163-1.641,3.377
			c2.044-1.251,5.227,0.273,6.267-2.705c2.858,0.253,2.508,2.414,2.683,4.015c0.658,0,0.987,0,1.448,0
			c0.257-1.259-1.372-2.411-0.32-3.768c1.936-0.984,2.15,1.588,3.522,1.782c0.981,0.004,2.017,0.168,2.69-1.049
			c1.488,2.254,4.216,2.432,6.096,3.934c0.89-0.411-0.317-2.59,2.181-1.577c0.72,0.705,0.051,2.051,0.188,3.249
			c-0.679,0.438-0.946,1.403-1.911,1.446c-1.307-0.114-1.612-1.56-2.681-1.984c-1.816-0.65-3.128,1.765-5.151,0.747
			c-0.194-0.923,0.807-1.15,1.245-1.651c0.32-0.365,1.264,0.171,1.495-1.101c-3.723-0.254-6.801,3.068-10.67,1.793
			c-0.781-0.621,0.138-1.824-0.442-2.602c-1.561-0.143-0.247,1.478-1.186,1.674c-2.667,0.424-5.54-0.602-7.95,1.263
			c-0.582-0.554-1.057-1.004-1.526-1.45C260.781,11.279,263.591,9.954,263.093,6.989z"/>
		<path d="M163.895,309.331c0.087,0.857,0.167,1.643,0.253,2.48c2.132-1.319,4.349-0.612,6.949-0.899
			c-0.617,3.616-1.677,6.632-4.138,9.793c-0.905-1.66-1.53-2.808-2.028-3.722c0.316-1.427,1.639-0.593,2.022-1.434
			c0.06-0.641,0.257-1.34-1.086-1.585c-0.998-0.048-1.356,1.349-2.297,1.936c-2.497-1.433-3.317-4.735-6.259-5.711
			c-0.104,0.123-0.292,0.242-0.298,0.369c-0.03,0.658-0.014,1.318-0.014,1.906c0.421,0.919,1.729,0.105,2.071,1.467
			c-0.354,1.491-1.863,2.174-3.355,3.885c-1.131-3.691-1.258-6.965-2.715-9.804c2.05-2.327,2.061-2.35,4.095-1.407
			C159.324,307.638,161.471,308.864,163.895,309.331z"/>
		<path d="M511.207,299.271c-1.02,1.122-1.977,0.716-2.948,0.52c-0.635-1.206,0.435-3.237-1.981-3.559
			c-0.962,0.823,0.188,2.301-0.539,3.606c-1.142,0.267-2.377,0.294-4.064-0.179c2.198-3.196,4.224-6.283,3.244-10.032
			c0.815-1.174,2.036-0.179,2.859-0.894c-0.008-0.872-0.879-1.136-1.279-1.733c-0.236,0.236-0.471,0.471-0.936,0.936
			c-0.99-0.7-1.821-1.432-1.487-3.321c0.611-1.514,2.363-2.317,3.886-3.228c0.683-1.97-2.582-0.814-1.903-2.845
			c2.843-2.212,3.693,2.205,5.934,1.731c0,0.914,0,1.578,0,2.53c-1.682,0.062-3.198,0.841-4.904,1.526
			c0.985,2.134,3.801,1.75,4.912,3.49c0,0.273,0.034,0.577-0.005,0.587c-1.887,0.461-2.785,2.569-5.013,2.898
			C509.546,293.527,509.26,296.977,511.207,299.271z"/>
		<path d="M193.875,307.936c0.402,1.806-0.731,2.223-1.127,2.814c-1.784,1.107-2.981-1.152-4.678-0.711
			c1.227,1.151,2.262,2.122,3.273,3.071c-0.871,0.988-1.77,1.41-0.994,2.827c1.983-0.192,4.185-1.806,6.485-0.604
			c0.596,1.66-0.074,2.81-1.474,3.667c-1.231,0.523-1.654-1.851-2.626-1.076c-0.945,0.58-0.672,1.123-0.722,1.589
			c0.706,0.995,1.899,0.116,2.632,0.59c0.603,0.86,0.285,1.679,0.285,2.469c-0.472,0.471-0.944,0.943-1.425,1.424
			c-2.107-2.125-4.214-4.25-6.377-6.432c2.193-2.201,0.382-4.2-0.904-5.649c-1.326-1.494-1.256-2.883-1.105-4.909
			C188.07,307.444,190.981,308.54,193.875,307.936z"/>
		<path d="M350.973,128.526c-0.528,0.528-0.879,0.88-1.475,1.475c-1.905-1.996-4.236-3.609-4.672-6.697
			c-1.032-0.376-2.15-0.647-2.751-1.743c-0.058-1.102-0.116-2.219-0.18-3.452c-1.267-0.068-2.383-0.128-3.483-0.187
			c-0.433-0.695-1.428-0.943-1.409-2.426c1.958-1.333,3.652-3.662,6.975-3.483c-0.794,2.333-0.891,2.396-3.371,3.669
			c2.267,0.449,4.797,0.238,4.429,3.592c1.692-1.622,3.212-1.428,4.789-1.033c-0.37,0.856-0.715,1.653-1.106,2.555
			c-0.67,0.733-1.913-0.374-2.748,0.767c0.856,0.681,1.732,1.379,3.375,2.686c0.184,0.072,1.594-0.701,2.666,0.12
			c-0.026,0.527-0.041,0.852-0.058,1.179c-0.702,0.997-1.919-0.006-2.767,0.748C349.339,127.285,350.347,127.628,350.973,128.526z"
			/>
		<path d="M147.291,227.956c0.687,0.082,1.087,0.01,1.307,0.177c0.902,0.679,1.749,1.43,2.544,2.095
			c-0.896,1.344-2.558,1.785-2.163,3.107c0.867-0.867,1.838-1.838,2.531-2.531c2.035,0.736,2.415,2.457,3.988,2.196
			c1.171-0.708-0.212-2.337,1.082-3c1.227-0.207,1.646,0.895,2.389,1.47c0.888,1.39-1.932,1.637-0.475,3.354
			c1.061,0.241,1.182-1.96,2.647-1.809c0.975,0.398,1.957,0.923,1.838,2.716c-1.618,0.041-3.152,0.732-4.636,1.484
			c-0.706,0.357-1.197,1.137-1.727,1.667c-2.419-0.817-1.254-3.03-1.844-4.814c-2.478,1.27-4.881,2.501-7.316,3.749
			C146.37,236.494,146.37,236.494,147.291,227.956z"/>
		<path d="M145.797,299.532c0.621,3.201-1.974,5.099-0.251,7.575c0.703-0.936,1.38-1.838,2.49-3.315c0-0.273,0-1.385,0-2.44
			c0.456-0.155,0.91-0.424,1.011-0.326c1.391,1.344,3.284,0.868,4.936,1.022c0.153,3.204-3.583,2.574-3.896,4.576
			c-0.365,2.329-3.547,2.568-3.044,5.237c-1.374,0-2.482,0-3.646,0c-0.102-0.187-0.287-0.443-0.392-0.728
			c-1.416-3.857-0.652-8.027-2.064-11.734C143.092,298.089,143.791,301.787,145.797,299.532z"/>
		<path d="M21.506,225.019c0.718,0,1.375,0,2.292,0c0.333,3.275,2.917,5.09,5.098,7.396c0,0.989,0,2.1,0,3.204
			c-0.302,0.134-0.579,0.359-0.862,0.365c-1.654,0.034-3.309-0.003-4.963,0.022c-1.899,0.028-3.891-0.428-5.335,1.276
			c-0.687-0.733-1.138-1.214-1.592-1.699c0.871-1.014,0.971-2.575,2.503-3.631c1.478,0.458,3.14,1.817,5.085,0.824
			c0.189-0.96-1.278-1.346-0.844-2.4c-0.712-0.958-1.959,0.175-2.686-0.662C19.349,227.746,21.121,226.567,21.506,225.019z"/>
		<path d="M304,205c2.344-1.472,3.787-4.045,6.514-5.13c0.862-0.343,0.738-2.043,2.062-2.83c1.161,0,2.607,0,3.884,0
			c0.749-0.749,1.334-1.334,2.385-2.385c0.312,0.542,0.815,1.056,0.899,1.632c0.208,1.425,0.224,2.879,0.309,4.194
			c-1.681,1.333-2.794-0.038-5.016-0.78c-0.779-0.091-0.49,0.293-0.451,0.27c0.44-0.271,1.535,0.602,1.328-0.419
			c-0.163-0.806-1.147-0.772-0.877,0.149c0.964,0.786,1.163,1.543,0.93,1.714c-1.208,0.89-0.786,2.841-2.354,3.435
			c-0.465-0.282-0.953-0.578-1.777-1.078c-1.172,1.919-3.42,2.174-5.499,3.055C305.589,206.448,305.214,205.172,304,205z"/>
		<path d="M176,37c0-0.497,0-0.993,0.002-1.491c-1.85-0.682-3.282-1.813-4.07-3.47c0.467-1.831,1.75-0.674,2.523-1.035
			c0.734,0.355,0.398,1.154,0.614,1.504c0.466,0.69,0.991,0.44,1.465,0.47c1.06-1.032,0.278-1.713-0.404-2.349
			c0.75-2.718,3.437-0.961,4.914-2.005c-0.145-0.599,0.232-1.179-0.222-1.363c-1.516-0.992-1.967,1.211-3.436,0.64
			c-0.458-1.028-0.992-2.229-1.734-3.895c3.339-0.091,5.989,1.885,8.721,0.898c0.984,0.73,0.49,1.63,0.601,2.224
			c-2.047,2.046-4.024,4.021-5.968,5.965c0,1.348,0,2.464,0,3.448C177.956,37.308,176.944,36.869,176,37z"/>
		<path d="M232.757,296.514c1.541,3.799,2.924,7.208,4.284,10.562c-1.109,2.411-2.963,2.311-4.899,1.538
			c-2.308-0.923-4.622-1.776-7.188-1.725c0.094-2.724,2.7-3.119,3.339-5.016c1.682,1.31,2.144,3.593,4.485,4.009
			c0.831-2.609-0.55-3.814-2.671-4.183C229.372,299.048,231.506,298.374,232.757,296.514z"/>
		<path d="M173.998,39.998C174,40.825,174,41.649,174,42.475c-0.676,1.051-1.856,0.161-2.665,0.692
			c-1.375,0.749-1.131,2.646-2.407,3.418c-0.695,0.807-1.586,0.229-2.424,0.445c-1.332,1.012,0.265,2.851-0.948,3.932
			C164.173,51.305,163.4,49.509,162,50c0.191-0.831-0.804-0.925-0.891-1.609c0.399-0.399,0.864-0.864,1.355-1.355
			c0.343,0.312,0.688,0.624,1.025,0.931c0.246-1.314,1.099-2.035,2.388-2.332c0.225-1.13,0.4-2.245-0.865-3.076
			c0.433-0.467,0.847-0.913,1.625-1.753c0.327,0.97,0.642,1.902,1.116,3.307c1.479-1.929,2.152-2.806,2.909-3.794
			c-0.354-0.713-1.131-1.734-0.306-3.32c1.767,0,3.705,0,5.643,0c0,0.916,0,1.832,0,3C175.181,40,174.591,40,173.998,39.998
			c0.083-0.482-0.137-0.785-0.594-0.888c-0.077-0.017-0.312,0.217-0.294,0.294C173.213,39.861,173.516,40.081,173.998,39.998z"/>
		<path d="M455.017,190.483c0.395-0.395,0.748-0.748,1.102-1.102c2.416-1.957,5.083,2.432,7.304-0.106
			c2.42,0.595,3.762,2.507,5.489,4.115c0,0.718,0,1.502,0,2.425c-1.99-0.156-3.477,1.64-5.514,1.094
			c-0.798-0.651-0.143-1.567-0.454-2.228c0.685-1.248,1.89-0.321,2.698-0.827c0.357-0.355,0.357-0.355-2.164-2.876
			c-0.327,0.698-0.643,1.373-0.918,1.961c-1.447,0.858-1.707-1.964-3.186-0.723c0.511-0.604-0.688-0.299-0.341,0.239
			c0.714,1.107,1.837,1.546,2.957,2.084c-1.185,0.431-0.659,1.819-1.46,2.431c-0.469-0.016-1,0.226-1.351-0.294
			C457.787,194.611,456.4,192.542,455.017,190.483z"/>
		<path d="M198.987,43.004c0.439,1.634-0.774,2.266-1.41,2.884c-2.296,0.616-3.374-1.999-5.167-0.819
			c-0.628-1.088-0.385-1.883-0.325-2.649c1.394-1.824,2.38,1.958,4.018-0.089c-0.761-0.465-1.564-0.955-2.416-1.475
			c1.399-1.48,2.904-2.433,2.15-4.619c2.728,0,5.281,0,7.844,0C203.818,39.395,201.885,42.214,198.987,43.004
			c0.039-0.696-0.294-1.029-1.233-1.004c0.843-1.092,1.932-2.182,3.02-3.274c0.225-0.226,0.14-0.463-0.481-0.839
			c-1.042,0.509-2.22,1.084-3.338,1.63c0.169,1-0.302,1.892,0.798,2.484C197.975,42.692,198.308,43.025,198.987,43.004z"/>
		<path d="M206.51,232.974c0.65,0.693,1.095,1.168,1.625,1.733c-1.519,3.05-3.03,6.084-4.65,9.337
			c-1.005-1.375-2.99-2.029-2.287-4.73c0.822-0.623,2.008-1.521,3.243-2.456c-2.834-2.299-3.775,0.554-5.758,1.501
			c-0.687-1.769-2.129-3.027-1.639-4.932c1.393-1.187,1.843,0.317,2.906,0.65C201.716,232.447,204.061,233.11,206.51,232.974z"/>
		<path d="M309.841,212.45c0.265-3.6,3.714-3.08,3.534-5.34c1.309-0.436,1.604,0.709,2.113,0.836
			c1.613,0.35,2.192-2.132,3.843-0.584c1.419-1.665,2.691-3.158,3.696-4.338c1.211,0,1.865,0,2.497,0
			c0.978,0.848,0.11,1.821,0.59,2.633c-1.255,0.303-1.691-1.337-2.974-0.348c0.17,1,1.671,1.897,0.839,3.213
			c-0.818,0.818-1.636,1.636-2.442,2.442c-0.919-0.35-0.128-1.618-1.398-2.003c-1.545,0.095-2.127,1.534-2.558,3.718
			c-0.477-1.335-0.681-1.91-0.887-2.485c-0.647-0.354-1.214-0.266-1.684,0.297c0.321,0.349,0.641,0.696,0.959,1.042
			c-0.489,0.489-0.956,0.956-1.441,1.441C312.844,213.338,312.018,210.752,309.841,212.45z"/>
		<path d="M355,149c-1.158,0-1.82,0-2.531,0c-0.871-1.238-0.766-2.367,0.285-3.269c-0.942-2.782-1.863-5.504-2.778-8.206
			c0.505-0.505,0.973-0.973,1.47-1.47c1.396-0.376,2.489,0.732,3.27,1.37c1.057,0.864,2.301,0.057,3.38,1.169
			c-0.65,0.399-1.299,0.798-1.948,1.198c-0.749,0.597-1.046-0.562-1.801-0.643c-0.117,0.288-0.411,0.675-0.317,0.838
			c0.585,1.016,0.655,2.57,1.845,2.944c1.405,0.442,1.911,1.719,2.978,2.41C358.287,147.326,355.281,146.726,355,149z"/>
		<path d="M353.981,118.078c0.372-1.619,1.708-2.079,3.194-2.448c-1.393-1.193-2.884-0.084-3.998-0.952
			c-0.235-0.45-0.284-0.901,0.141-1.515c1.628,0,3.417,0,4.246,0c1.24,0.711,1.955,1.121,2.485,1.424
			c-0.135,1.62-1.503,1.972-2.26,3.54c1.237,1.237,2.625,2.624,4.022,4.021c-1.353,1.635-3.573,2.559-6.577,2.587
			c-0.078-0.301-0.208-0.599-0.222-0.903c-0.022-0.482,0.034-0.968,0.056-1.41c1.149-0.985,2.64,0.125,4.11-1.021
			C356.835,120.95,354.788,120.3,353.981,118.078z"/>
		<path d="M20.232,242.895c-2.407,0.345-3.572,0.848-5.563,2.24c-0.898-1.197-2.706-1.69-2.695-4.103
			c3.72,0.682,7.085-1.586,11.026-0.882c0,1.077,0.393,2.336-0.07,2.947c-1.744,2.307-1.606,5.327-2.721,7.57
			c-1.073-0.969-1.971-1.78-3.184-2.875c0-0.031,0-0.686,0-1.339C19.168,246.225,19.002,244.376,20.232,242.895z"/>
		<path d="M128.998,232.998c0.002,0.499,0.002,0.997,0.002,1.494c-0.8,0.914-1.761,0.479-2.814,0.299c0-1.877,0-3.772,0-5.629
			c1.914-0.581,2.254,1.203,3.346,1.827c2.262,0,4.579,0,6.881,0c1.827,1.416,3.071,3.194,3.613,5.429
			c-2.27,2.054-4.172-0.827-6.303-0.418C131.995,235.241,131.487,232.562,128.998,232.998c0.083-0.482-0.137-0.785-0.594-0.888
			c-0.077-0.017-0.312,0.217-0.294,0.294C128.213,232.861,128.516,233.081,128.998,232.998z M134.99,233.5
			c0.677,0.726,1.343,0.726,2.02,0C136.333,232.774,135.667,232.774,134.99,233.5z"/>
		<path d="M169.132,247.356c-2.027-1.29-2.535-3.183-4.254-4.123c-1.526-0.834-2.614-2.469-3.873-3.728c0-0.697,0-1.356,0-2.227
			c1.986-0.808,4.543,0.615,6.04-1.406c1.6,0.714,0.71,1.831,0.899,2.69c-0.708,0.987-1.92-0.026-2.805,0.784
			c-0.158,0.136-0.095,0.564,0.309,0.567c1.342,0.013,2.257,0.816,2.473,1.874c0.23,1.122,0.992,1.52,1.659,2.14
			c0.981-0.715-0.077-1.939,0.789-2.803c0.342-0.024,0.791-0.055,1.54-0.107C172.264,243.689,171.064,245.493,169.132,247.356z"/>
		<path d="M184,60c0-1.166,0-2.333,0-3.499c1.222-1.122,2.123-2.629,3.837-3.296c-0.923-0.138-1.845-0.276-2.703-0.404
			c-0.06-0.506-0.097-0.824-0.153-1.301c1.158-0.689,2.27-0.913,3.324,0.305c0.747-0.913,1.498-1.829,2.273-2.776
			c-0.447-0.513-1.644,0.378-2.378-0.156c-0.091-0.52-0.146-0.831-0.23-1.313c1.189-1.433,3.575,0.429,4.581-1.458
			c0.509,0.483,0.991,0.94,1.629,1.545c-1.696,3.503-3.512,6.898-7.257,8.734c0.489,0.639,1.219,0.923,0.999,2.177
			C186.793,59.017,185.684,60.12,184,60z"/>
		<path d="M178.908,258.624c1.335-1.395,1.999-2.238,3.206-1.024c-0.526,1.742-1.77,2.799-3.213,3.512
			c-1.068-0.456-0.897-1.152-0.901-1.781c-0.004-0.648-0.001-1.297-0.001-1.938c-3.24-0.915-4.255-3.594-5.339-6.247
			c-1.127,0.119-0.275,2.391-1.992,1.849c-0.49-1.756-0.49-1.756,1.975-6.15c3.434,1.185,2.501,4.68,3.701,7
			c1.314,0.001,0.126-1.511,1.292-1.8c0.216,0.018,0.667,0.056,1.015,0.086c1.081,1.309-0.395,1.761-0.654,2.581
			C177.853,256.11,179.696,256.552,178.908,258.624z"/>
		<path d="M111,251.988c0,1.173,0,1.836,0,2.5c-0.686,1.04-1.876,0.144-2.696,0.672c-0.437,0.915,1.129,1.09,0.456,2.46
			c-2.865,0.954-5.523,2.833-6.133,6.534c-2.97-0.601-2.591-3.703-4.705-4.597c0.946-0.887,1.811-0.394,2.7-0.572
			c0.193,0.567,0.39,1.146,0.587,1.725c0.117,0.076,0.235,0.153,0.352,0.229c0.497-2.271,3.679-3.523,2.274-6.394
			c1.619-1.1,3.36-0.123,5.077-0.832c-0.104-1.141-2.887-0.442-1.765-2.369C108.647,250.003,109.537,252.86,111,251.988z"/>
		<path d="M208.933,287.978c0.677,0.166,1.399-0.297,1.949,0.405c0.599,1.706-1.231,2.028-1.813,3.072
			c1.547,0.528,2.7,2.148,4.436,1.508c0.795,0.942,0.365,1.786,0.472,2.584c-2.199-0.012-3.006,3.737-5.76,2.151
			c-1.28-2.208,1.847-1.187,1.8-2.491c-2.855-3.147-2.859-3.158-3.016-6.654c-1.084-1.143-2.181-2.299-3.577-3.769
			c1.609-0.803,2.79-1.392,3.897-1.944c1.073,0.916-0.017,1.113-0.212,1.579C207.61,285.665,209.733,286.078,208.933,287.978
			c-0.417-0.059-0.72,0.161-0.823,0.618c-0.018,0.077,0.217,0.312,0.294,0.294C208.861,288.787,209.081,288.484,208.933,287.978z"/>
		<path d="M220.681,134.185c-0.835-0.135-1.748-0.282-2.748-0.443c0.897-1.337,2.38-2.01,2.447-3.637
			c1.472,0.41,1.376,1.95,2.084,2.906c0.834,1.127,1.937,1.02,3.242,1.018c-0.197,1.503-1.738,3.154,0.273,4.449
			c-1.042,2.21,2.332,2.195,2.031,4.031c2.204,0.526,2.22,3.074,4.091,3.952c-1.093,0.929-1.644,0.434-2.322-0.15
			c-2.189-1.886-3.661-4.617-6.808-5.705C223.292,138.193,222.608,136,220.681,134.185z"/>
		<path d="M288.557,124.213c-2.448-3.707-1.999-4.589,2.834-5.692c-0.834-0.412-1.394-0.689-1.954-0.966
			c-0.529-0.538-0.741,0.852-2.182,0.203c-0.167-0.175-0.874-0.666-1.204-1.341c-0.259-0.529-0.052-1.285-0.052-2.34
			c3.534,0.067,6.274,1.85,9.29,3.397C293.936,120.908,290.17,121.259,288.557,124.213z"/>
		<path d="M248.879,280.021c-1.342,0-2.459,0-3.333,0c-0.732,0.545-0.508,1.055-0.503,1.539c1.073,1.075,2.57-0.09,3.79,0.744
			c0.234,1.191,0.378,2.435-0.322,3.919c-3.005-1.591-6.212-2.635-9.107-5.14c2.826-2.2,6.172-2.562,8.099-5.036
			C248.818,276.911,249.288,278.046,248.879,280.021z"/>
		<path d="M503.712,308.825c-1.462,0.515-2.58,0.113-3.667-1.376c1.759-1.748,3.806-3.498,4.022-6.491
			c1.011,0.067,1.943-0.131,2.522,0.233c0.751,0.472,1.318,1.169,1.511,2.33c0.268,1.61,1.232,3.104,1.963,4.798
			c-0.369,0.419-0.787,0.893-1.182,1.341c-1.12,0.655-1.192-1.969-2.267-0.524c-1.188-1.285-0.247-2.731-0.596-3.584
			c-0.503-0.567-0.647-0.269-0.985-0.138C503.292,306.091,504.49,307.867,503.712,308.825z"/>
		<path d="M47,295c-1.793,0.443-2.353,2.605-4.377,3.255c-0.58-1.166-1.661-2.302-1.511-3.242c0.354-2.226-1.102-3.961-1.112-6.013
			c1.285,0,2.57,0,3.87,0c0.446,1.886-1.82,3.056-0.643,4.708c2.365-0.163,1.438-2.299,2.088-3.607c1.093,0,2.204,0,3.291,0
			c0.746,0.706,0.221,1.584,0.413,2.421c-0.672,0.311-1.356,0.627-2.018,0.933C47,294.009,47,294.505,47,295z"/>
		<path d="M476.325,288.157c-1.893-0.96-3.636-1.845-5.318-2.697c-0.119-2.171,1.67-2.174,3.01-2.903
			c-0.074-2.206-1.547-3.628-2.977-5.018c1.429-2.416,3.698-1.225,5.561-1.577c0.861,1.826,0.148,2.343-1.275,2.031
			c-0.588,1.515-0.255,2.728-0.226,4.292c0.703-0.632,1.048-0.942,1.397-1.255c1.074,0.742,0.094,1.771,0.622,2.522
			c-0.852,0.336-1.419,0.56-2.219,0.877c1.152,0.662,2.452,0.872,2.97,1.883C477.343,286.94,476.844,287.536,476.325,288.157z"/>
		<path d="M298.014,209.104c1.799-0.581,3.95,0.846,5.494-1.07c0.344,0.309,0.689,0.619,1.028,0.923
			c0.509-0.433,0.831-1.103,1.656-0.947c1.87,0.687,1.78,2.765,2.82,3.983c-0.096,1.016-1.021,1.3-1.461,1.958
			c-1.286-1.442-2.828-1.068-4.37-0.661c-0.125,0.488-0.239,0.936-0.353,1.383c-0.233,0.42-0.465,0.404-0.701-0.046
			c-0.81-1.548-2.874-1.395-3.794-2.794C297.697,210.95,298.129,209.942,298.014,209.104z M303.01,211.5
			c-0.677-0.726-1.343-0.726-2.02,0C301.667,212.226,302.333,212.226,303.01,211.5z M304.222,210.704
			c0.482-0.252,1.331,0.989,1.64-0.376C305.257,209.845,304.704,209.811,304.222,210.704z"/>
		<path d="M514.129,274.182c-1.097,0.992-2.89,1.422-3.539,2.754c-1.343,0.271-1.681-0.666-2.444-1.253c0-1.991,0-4.103,0-6.776
			c0.386-0.255,1.175-0.776,1.899-1.254c-0.469-0.602-0.722-0.927-0.994-1.276c2.661-1.332,3.54,0.97,4.919,2.105
			c-0.803,1.509-2.322,1.515-3.731,1.711c-0.023,0.989,1.19,1.445,0.917,2.465C511.831,273.72,513.578,272.088,514.129,274.182z"/>
		<path d="M456.056,186.473c-2.68,1.975-2.634,5.949-5.837,7.467c-2.151-1.418-2.151-1.418-4.078-7.613
			c1.063-0.66,2.239-0.185,3.356-0.329c1.16,1.056,0.089,2.534,0.436,3.271c0.495,0.805,0.62,0.618,0.985,0.363
			c1.242-0.869,1.246-2.163,1.024-3.453C453.558,186.014,454.827,185.666,456.056,186.473z"/>
		<path d="M330.494,192.001c-1.261,1.277-2.536,2.568-3.832,3.88c-0.778,0.081-1.56,0.163-2.296,0.24
			c-0.69,0.702,0.293,0.729,0.384,1.521c-0.187,0.555-0.806,1.093-2.157,1.489c-0.55-1.549-2.069-2.761-1.455-4.997
			c1.171,0,2.281,0,3.266,0c0.803-1.019,0.823-2.29,1.943-2.95c0.739-0.311,0.655,1.041,1.159,0.804
			c2.34,0.112,1.992-2.335,3.335-3.01c1.289,0.233,2.05,0.923,2.169,2.232C331.811,191.932,331.811,191.932,330.494,192.001z"/>
		<path d="M209.984,35.516c-0.687,0.687-1.039,1.039-1.426,1.426c-1.398,0.389-2.549-0.709-3.273-1.361
			c-1.285-1.156-2.696-1.572-4.312-1.821c1.141-0.931,2.124-1.732,3.506-2.86c0.989-0.156,0.116,1.65,0.934,2.029
			c0.686,0.134,1.323,0.205,1.569-0.598c0.403-1.17-1.349-1.478-0.863-2.958c0.445-0.401,1.13-1.017,2.385-2.146
			C208.859,30.475,210.308,32.769,209.984,35.516z"/>
		<path d="M175.112,317.356c-0.44-2.271-2.165-0.718-2.952-1.719c-0.389-0.647-0.123-1.445-0.081-2.231
			c0.665-0.793,1.557-0.229,2.307-0.413c1.529,1.129,2.462,3.027,4.572,3.431c0,0.639,0,1.287,0,2.189
			c-2.398,0.921-4.709,2.492-7.506,2.385c-1.187-1.62,0.253-2.216,0.986-2.851C173.088,317.585,174.355,318.429,175.112,317.356z"/>
		<path d="M157.505,102.404c-0.855-1.764-0.167-2.28,0.664-3.047c-1.209-1.104-2.825-1.992-3.484-3.346
			c-0.678-1.392-2.079-1.951-2.791-2.899c0.552-1.881,1.804-0.759,2.589-1.107c0.717,0.37,0.351,1.18,0.829,1.859
			c0.659,0,1.434,0,2.01,0c1.042,0.792,0.534,1.689,0.718,2.613c1.243,0.626,2.583,1.301,4.013,2.022
			C161.828,101.38,159.03,100.882,157.505,102.404z"/>
		<path d="M247.175,274.6c-1.51,0.614-2.642,0.38-3.75,0.323c-0.758-0.535-0.084-2.712-2.178-1.704
			c-0.097,1.135,1.648,2.005,0.144,3.682c-0.659,0.304-1.903,0.172-3.209-0.094c1.782-2.363-0.438-5.873,2.854-7.929
			C243.188,270.241,244.826,272.559,247.175,274.6z"/>
		<path d="M237.113,138c-1.265,0-2.416,0-3.608,0c-1.131-1.035-0.084-2.487-0.679-3.691c-0.518-0.199-1.184-0.296-1.631-0.661
			c-0.865-0.705-1.607-1.56-2.311-2.264c0.587-2.284,1.955-2.659,3.753-2.249c0.475,0.877,0.543,2.161,2.195,2.009
			c0,1.437,0,2.879,0,3.942c0.521,1.094,1.304,0.782,1.833,1.077C237.37,136.668,236.748,137.414,237.113,138z"/>
		<path d="M135.374,77.92c1.907,0.202,2.386,1.668,3.436,2.369c-0.239,1.589-2.338,1.284-2.599,2.167
			c-0.366,1.233-1.104,1.959-1.906,2.699c-0.907,0.837-1.411,1.948-1.721,2.798c-1.524,0.164-1.717-0.936-2.96-1.402
			c1.058-0.671,1.856-1.177,2.065-1.31c0.536-1.455-0.059-2.342,0.591-3.039C134.894,81.778,134.894,81.778,135.374,77.92z"/>
		<path d="M202.991,315.936c2.018,0.684,3.546-1.422,5.536-0.91c0.468,0.468,0.935,0.935,1.403,1.403
			c-1.46,1.588-0.639,4.297-2.747,5.576c-1.021,0.157-1.312-0.823-2.22-1.452c0.706-0.716,1.369-1.389,2.278-2.312
			c-2.083-0.653-3.521,1.965-5.197,0.303C201.322,317.305,203.153,317.025,202.991,315.936z"/>
		<path d="M410.782,319.046c0.291,1.241,0.366,2.156-0.098,2.911c-1.448,0.269-1.999-0.706-2.584-1.408
			c-0.798-0.957-1.861-0.267-2.714-0.663c-0.285-3.051-0.231-3.477,1.905-3.796c1.499-0.224,2.696-2.055,4.683-0.695
			c0.289,1.99-1.362,2.357-2.784,2.939c-0.009,0.091-0.072,0.237-0.025,0.319C409.486,319.211,410.04,318.936,410.782,319.046z"/>
		<path d="M195.457,300.957c-0.465-0.465-0.931-0.931-1.422-1.422c0.312-0.343,0.626-0.688,0.943-1.036
			c-0.665-1.035-1.84-0.128-2.643-0.659c-0.583-1.867-2.23-3.548-0.99-5.707c1.494-0.635,2.122,1.229,3.817,1.521
			c-0.955,0.27-1.91,0.54-3.42,0.968c2.644,1.817,3.764,1.439,4.833,0.453c0.468,0.468,0.934,0.934,1.528,1.528
			C197.574,298.215,197.038,299.88,195.457,300.957z"/>
		<path d="M473.495,269.078c-0.871-0.962-1.195-1.32-1.479-1.634c-0.267-1.314,0.92-1.662,1.474-2.455
			c0.601,1.774,2.408,0.482,3.298,1.268c0.968,2.038-1.099,1.443-1.62,2.061c-0.82,2.047,0.656,3.017,1.835,4.168
			c-1.574,0.486-2.79,2.06-4.74,1.378C471.922,272.108,471.337,270.368,473.495,269.078z"/>
		<path d="M130.737,90.714c-2.415,0.503-2.521,3.337-4.399,4.524c-1.506,0.952-1.755,3.504-4.467,3.444
			c1.18-4.239,6.396-5.911,6.3-11.208C129.241,88.825,129.934,89.699,130.737,90.714z"/>
		<path d="M186.991,343.802c1.911,1.794,3.458,3.247,4.935,4.634c-1.391,2.922-4.869,0.201-6.275,3.723
			c-1.243-3.676,1.131-3.718,2.314-4.623C186.596,346.643,187.054,345.252,186.991,343.802z"/>
		<path d="M368.309,160.369c0.811,2.77,2.641,3.951,4.038,5.477c0,0,2.222,4.085,2.447,4.498c-2.546-1.255-4.262-2.719-5.093-5.191
			c-0.75-0.085-1.532-0.174-2.314-0.265C366.242,163.378,367.479,162.246,368.309,160.369z"/>
		<path d="M356.781,105.711c0.349,2.177-0.041,4.252,1.48,6.063c-2.429-0.228-4.22-1.146-6.677-0.725
			C352.79,108.305,354.19,106.706,356.781,105.711z M355.009,109.5c0.325,0.467,0.658,0.467,0.983,0
			C355.667,109.033,355.333,109.033,355.009,109.5z"/>
		<path d="M313.5,124c1.999-1.063,1.999-1.063,4.078-0.075c0.565-0.559,1.05-1.319,2.105-0.718c0.561,0.783,0.441,1.681,0.022,2.59
			c-1.369-0.265-2.727-0.652-4.107-0.765c-1.635-0.134-3.289-0.031-5.039-0.031c-0.374-0.579-0.789-1.222-1.284-1.988
			C310.639,123.218,312.254,122.327,313.5,124z"/>
		<path d="M85,143c-0.133,0.613,0.396,1.535-0.361,1.811c-2.48,0.904-2.685,3.533-4.255,5.189c-0.724,0-1.554,0-2.384,0
			C79.046,146.314,81.314,144.046,85,143z"/>
		<path d="M476.884,194.172c-0.542,1.419-1.456,2.122-3.298,1.807c1.096,1.169,1.742,1.858,2.388,2.546
			c-0.62,0.836-1.528,0.283-2.341,0.563c-0.94-0.899-1.864-1.785-2.555-2.446c0-1.019,0-1.659,0-2.47
			C473.045,194.172,474.935,194.172,476.884,194.172z"/>
		<path d="M161,101.002c1.526-0.256,3.308,0.694,4.601-1.067c1.501,2.489-1.684,3.912-0.205,6.477
			c-2.675-0.595-2.495-3.137-4.396-2.806C161,102.655,161,101.828,161,101.002z"/>
		<path d="M353.148,210.65c1.286-1.701,0.511-4.598,3.792-5.268c1.062,0.39,1.285,1.67,0.964,3.299
			c-0.524,0.184-1.098,0.386-1.675,0.587c-0.67,0.783,0.311,1.988-0.647,2.665C354.279,212.376,353.878,211.213,353.148,210.65z"/>
		<path d="M182.788,317.89c2.488,0.84,2.148,3.175,3.591,4.513c-2.29,1.454-2.702-0.777-3.822-1.325
			c-0.774,0.262-0.442,1.029-0.696,1.582c-0.526,0.506-1.09,0.512-1.954-0.172C180.617,320.928,180.881,319.082,182.788,317.89z"/>
		<path d="M296.964,17.48c0.17,1.62-1.202,1.711-1.485,3.025c-1.902-1.437-3.351-2.962-5.433-2.713
			c-0.225-1.843,1.151-2.061,1.484-2.825c1.539,0.093,1.971,1.11,2.652,1.753C294.996,17.487,296.181,16.418,296.964,17.48z"/>
		<path d="M353.886,107c-0.38,0-0.874,0-1.511,0c-0.444-1.07-0.962-2.175-1.347-3.324c-0.137-0.408,0.052-0.924,0.084-1.3
			c0.993-0.89,1.558-0.223,2.138,0.376c0.891,0.165,1.337-1.409,2.418-0.591c0.681,0.66,0.156,1.534,0.328,2.278
			c-0.346,0.741-1.13,0.432-1.66,0.722C353.628,105.666,354.253,106.414,353.886,107z"/>
		<path d="M144.575,242.94c-1.592-1.128-2.529-3.117-4.715-3.303c0.368-1.933,1.754-2.577,3.117-4.094
			c-0.41,2.877,0.699,4.359,2.992,4.926C146.3,241.689,145.245,242.14,144.575,242.94z"/>
		<path d="M347,89c2.719,1.541,3.091,4.424,4,7c-1.249,0-2.498,0-3.598,0c-0.711-1.083-0.384-1.707,0.366-2.213
			C346.729,92.294,347.029,90.621,347,89z"/>
		<path d="M298,209c-0.95,0-1.901,0-2.908,0c0-0.761,0-1.206,0-2.022c2.226,0.157,4.376-0.06,6.103-1.65
			c0.809-0.745,1.873-0.163,2.805-0.328c0,0.49,0,0.981,0,1.472C302.123,207.605,299.557,207.105,298,209z"/>
		<path d="M350.298,95.188c2.747,1.865,2.966,3.679,4.134,5.353c-2.046,0.685-3.7,0.446-5.243,0.369
			C348.343,98.468,352.195,98.3,350.298,95.188z"/>
		<path d="M161.927,49.903c1.192,1.589,1.37,3.208,0.808,5.235c-1.785-0.483-3.289-1.1-4.797-2.725
			C159.909,52.387,160.453,50.512,161.927,49.903z"/>
		<path d="M195.103,129.012c0.5,0.123,1.202-0.31,1.775,0.369c-0.286,0.457-0.583,0.932-0.881,1.406
			c0.039,1.967,1.973,2.072,3.001,2.503c0.072,2.429-2.108,1.449-2.584,2.663c-0.499-2.033-1.032-3.115-2.475-5.003
			C194.307,130.338,194.694,129.693,195.103,129.012z"/>
		<path d="M237,138c0.752,0.024,1.609-0.233,2.098,0.608c0.658,1.133,1.928,1.331,2.902,1.943c0,0.507,0,0.978,0,1.449
			c-2.024,0.189-3.514-2.159-5.352-0.866C234.902,139.458,237.23,139.049,237,138z"/>
		<path d="M476.37,197.13c1.159-1.159,1.63-1.63,2.101-2.101c0.536,0.928,1.656,0.818,2.47,1.396c0,0.609,0,1.258,0,2.036
			c-0.158,0.364-0.52,0.513-1.062,0.577c-0.427,0.051-0.815,0.44-1.498,0.843C477.823,199.021,477.91,197.673,476.37,197.13z"/>
		<path d="M368.593,160.872c-2.11,0.394-3.9-0.582-5.144,1.179c-1.103-1.816-0.296-3.025,1.284-4.139
			C366.47,158.174,366.947,159.913,368.593,160.872z"/>
		<path d="M297.454,141.252c0.104-1.653-1.977-2.252-1.33-3.923c1.801-0.924,2.98-0.17,3.883,1.399
			C300.009,140.06,299.111,140.616,297.454,141.252z"/>
		<path d="M302.961,22.382c0.082,0.918-0.017,1.365-0.718,1.65c-1.032,0.182-1.426-0.955-2.204-1.468
			c-0.636-0.419-1.363-0.702-2.046-1.044c0.181-0.793-0.335-1.666,0.431-2.455C300.071,20.141,300.894,22.287,302.961,22.382z"/>
		<path d="M156.034,57.839c-0.168-1.69,0.791-2.262,1.818-2.892c1.167,0.455,2.222,1.017,2.157,2.647
			C158.64,58.317,157.32,57.936,156.034,57.839z"/>
		<path d="M186.977,289.171c1.308,0,2.592,0,3.81,0c0.66,1.67-0.692,2.077-1.485,2.912
			C187.761,291.639,186.755,290.812,186.977,289.171z"/>
		<path d="M144,88.931c2.03,0.95,2.325,3.06,3.973,3.874c0.223,0.11,0.005,0.926-0.75,1.247c-1.519-0.055-2.198-1.603-3.158-2.616
			C143.671,91.02,144,89.919,144,88.931z"/>
		<path d="M184.003,59.985c-0.192,1.054,0.195,1.878,0.946,2.567c-0.736,0.582-1.168,1.665-2.474,1.433
			c-0.877-1.11-0.395-2.396-0.368-3.587C182.664,59.678,183.39,60.145,184.003,59.985z"/>
		<path d="M346.972,89.36c-2.36-1.828-2.055-4.159-2.762-6.108C346.283,84.633,347.188,86.555,346.972,89.36z"/>
		<path d="M111.171,252.003c0-1.288,0-2.573,0-3.865c1.868-0.409,2.34,0.806,3.048,2.228
			C113.114,250.96,112.078,251.516,111.171,252.003z"/>
		<path d="M328.538,202.01c-0.802-0.164-1.64,0.291-2.553-0.49c0.986-1.057,2.303-1.949,2.373-3.551
			c0.617,0.098,1.155-0.18,1.619,0.617C330.599,200.003,328.381,200.573,328.538,202.01z"/>
		<path d="M194.999,129.001c-2.306,0.368-2.815-1.735-3.975-2.489c-0.086-1.278,0.397-1.546,1.258-1.513
			c1.296-0.015,0.172,2.022,1.454,1.978C195.453,126.919,194.927,128.113,194.999,129.001z"/>
		<path d="M150.122,245.931c-0.176,0.453-0.191,0.658-0.292,0.718c-0.253,0.152-0.689,0.413-0.798,0.323
			c-1.041-0.858-2.07-1.741-2.993-2.72c-0.161-0.171,0.189-0.824,0.343-1.401C148.359,243.319,149.24,244.716,150.122,245.931z"/>
		<path d="M475.566,264.021c-1.896-0.112-2.383-1.182-2.669-2.385c0.901-1.153,1.902-0.263,2.633-0.72
			C476.176,262.057,476.176,262.943,475.566,264.021z"/>
		<path d="M475.663,258.921c-0.771,0-1.537,0-2.242,0c-0.532-0.532-0.87-0.109-0.377-0.35c1.583-0.776,0.513-2.393,1.301-3.474
			c0.402,0,0.842,0,1.248,0c0.758,0.594-0.14,0.718-0.197,0.938C474.755,257.161,476.866,257.416,475.663,258.921z"/>
		<path d="M482.005,199.505c0.994-1.196,2.071-2.145,3.453-1.405c-0.752,0.75-1.589,1.586-2.432,2.426
			C482.941,200.441,482.471,199.971,482.005,199.505z"/>
		<path d="M78,150c-0.133,0.945,0.312,1.96-0.342,2.842c-1.259,0.644-1.695-0.524-2.56-1.209C75.717,150.461,76.57,149.778,78,150z"
			/>
		<path d="M172.693,277.835c-1.484,0.654-1.875-0.741-2.684-1.35c0.757-0.534,1.108-1.662,2.373-1.48
			C173.459,275.82,173.135,276.822,172.693,277.835z"/>
		<path d="M204.812,279c0.142,1.246,0.568,2.188-0.276,2.972c-1.209,0.327-1.66-0.699-2.679-1.566
			c0.756-0.294,1.481-0.577,2.206-0.859c-0.176-0.182-0.353-0.364-0.529-0.547C203.856,279,204.178,279,204.812,279z"/>
		<path d="M187,289c-1.579-0.392-2.161-1.448-2-3c0.916,0,1.833,0,2.876,0C187.639,287.193,186.64,287.918,187,289z"/>
		<path d="M114.829,247.992c-1.145-0.647-1.979-1.24-1.81-2.508c0.494-0.604,1.064-0.591,1.81-0.259
			C114.829,246.083,114.829,246.967,114.829,247.992z"/>
		<path d="M201.021,276.122c0.894,0,1.809,0,3.622,0c-1.429,0.901-1.655,2.039-2.978,1.877
			C200.58,277.62,201.134,276.696,201.021,276.122z"/>
		<path d="M85.024,143.156c-0.244-1.584,0.432-2.442,1.727-3.115C87.454,141.986,86.112,142.42,85.024,143.156z"/>
		<path d="M154.96,61.04c0.05-0.641,0.096-1.239,0.148-1.9c0.601-0.051,1.035-0.087,1.416-0.119
			c0.607,0.547,0.608,1.101,0.161,1.885C156.199,60.944,155.601,60.99,154.96,61.04z"/>
		<path d="M155.04,60.96c-0.05,0.641-0.096,1.239-0.148,1.9c-0.601,0.051-1.035,0.087-1.416,0.119
			c-0.607-0.547-0.608-1.101-0.161-1.885C153.801,61.056,154.399,61.01,155.04,60.96z"/>
		<path d="M181.086,66.987c0-0.775,0-1.217,0-1.513c0.424-0.68,0.961-0.409,1.506-0.493
			C183.333,66.25,183.317,67.075,181.086,66.987z"/>
		<path d="M493.018,202.575c-1.807,1.077-2.15-0.428-3.036-1.15C491.788,200.348,492.132,201.853,493.018,202.575z"/>
		<path d="M150,89c-0.584,0-1.167,0-2,0c0-0.833,0-1.416,0-2c0.584,0,1.167,0,2,0C150,87.833,150,88.416,150,89z"/>
		<path d="M184.976,286.156c-1.088-0.737-2.429-1.171-1.727-3.115C184.544,283.714,185.22,284.572,184.976,286.156z"/>
		<path d="M149.96,88.96c0.641,0.05,1.239,0.096,1.9,0.148c0.051,0.601,0.087,1.035,0.118,1.405
			c-0.542,0.656-1.108,0.547-1.877,0.26C150.056,90.199,150.01,89.601,149.96,88.96z"/>
		<path d="M350.96,215.04c0.05-0.641,0.096-1.239,0.148-1.9c0.601-0.051,1.035-0.087,1.416-0.119
			c0.607,0.547,0.608,1.101,0.161,1.885C352.199,214.944,351.601,214.99,350.96,215.04z"/>
		<path d="M233.099,148.39c0.514,0.514,1.023,1.023,1.475,1.475c-0.191,0.033-0.631,0.11-1.034,0.18
			C232.764,149.324,232.855,148.661,233.099,148.39z"/>
		<path d="M377.399,172.104c-0.327-0.67-0.654-1.341-0.95-1.946C377.799,169.483,377.973,170.374,377.399,172.104z"/>
		<path d="M487.392,202.114c-0.263-0.733-0.525-1.466-0.738-2.059C487.731,199.453,487.926,200.358,487.392,202.114z"/>
		<path d="M151.246,248.085c0.55,0,0.987,0,1.374,0c0.557,0.632,0.544,1.183-0.233,2.117
			C152.006,249.496,151.656,248.845,151.246,248.085z"/>
		<path d="M324.456,114.163c1.14-1.343,1.775-1.427,2.467-0.758C326.535,114.457,325.643,113.822,324.456,114.163z"/>
		<path d="M189.837,121.456c1.343,1.14,1.427,1.775,0.758,2.467C189.543,123.535,190.178,122.643,189.837,121.456z"/>
		<path d="M201.163,276.544c-1.343-1.14-1.427-1.775-0.758-2.467C201.457,274.465,200.822,275.357,201.163,276.544z"/>
		<path d="M350.403,216.927c-0.622-0.693-0.657-1.677,0.149-1.841c1.021-0.207,0.148,0.888,0.419,1.328
			C350.995,216.453,350.611,216.743,350.403,216.927z"/>
		<path d="M181.004,68.996c-0.086-0.48,0.135-0.783,0.592-0.886c0.077-0.018,0.312,0.217,0.294,0.294
			C181.787,68.861,181.484,69.081,181.004,68.996z"/>
		<path d="M180.996,69.004c0.086,0.48-0.135,0.783-0.592,0.886c-0.077,0.018-0.312-0.217-0.294-0.294
			C180.213,69.139,180.516,68.919,180.996,69.004z"/>
		<path d="M147.996,86.996c-0.48,0.086-0.783-0.135-0.886-0.592c-0.017-0.077,0.217-0.312,0.294-0.294
			C147.861,86.213,148.081,86.516,147.996,86.996z"/>
		<path d="M546.5,234.995c-0.466-0.328-0.466-0.661,0-0.989C546.966,234.333,546.966,234.667,546.5,234.995z"/>
		<path d="M539.5,228.995c-0.466-0.328-0.466-0.661,0-0.989C539.966,228.333,539.966,228.667,539.5,228.995z"/>
		<path d="M528.5,220.005c0.466,0.328,0.466,0.661,0,0.989C528.034,220.667,528.034,220.333,528.5,220.005z"/>
		<path d="M495.009,203.5c0.325-0.467,0.658-0.467,0.983,0C495.667,203.967,495.333,203.967,495.009,203.5z"/>
		<path d="M265.5,156.995c-0.466-0.328-0.466-0.661,0-0.989C265.966,156.333,265.966,156.667,265.5,156.995z"/>
		<path d="M263.991,156.5c-0.325,0.467-0.658,0.467-0.983,0C263.333,156.033,263.667,156.033,263.991,156.5z"/>
		<path d="M523.5,217.005c0.466,0.328,0.466,0.661,0,0.989C523.034,217.667,523.034,217.333,523.5,217.005z"/>
		<path d="M525.005,218.5c0.328-0.466,0.661-0.466,0.989,0C525.667,218.966,525.333,218.966,525.005,218.5z"/>
		<path d="M88.991,138.5c-0.325,0.467-0.658,0.467-0.983,0C88.333,138.033,88.667,138.033,88.991,138.5z"/>
		<path d="M330.009,196.5c0.325-0.467,0.658-0.467,0.983,0C330.667,196.967,330.333,196.967,330.009,196.5z"/>
		<path d="M189.996,121.996c-0.48,0.086-0.783-0.135-0.886-0.592c-0.018-0.077,0.217-0.312,0.294-0.294
			C189.861,121.213,190.081,121.516,189.996,121.996z"/>
		<path d="M555.5,244.005c0.466,0.328,0.466,0.661,0,0.989C555.034,244.667,555.034,244.333,555.5,244.005z"/>
	</g>
</g>
</svg>
