<svg xmlns="http://www.w3.org/2000/svg" width="315" height="315" viewBox="0 0 315 315"><path d="M52.174 316.738c-.338-3.293.445-6.398 1.248-9.555.732-2.88-.948-6.087 1.26-8.934.608-.783.308-2.682-.103-3.873-1.546-4.472-1.796-9.142-2.552-13.752-1.295-7.903-1.76-15.856-.99-23.684.933-9.465 2.06-18.917 4.558-28.253 2.274-8.5 5.464-16.525 8.228-23.877C79.15 191.668 94.65 180 110.8 168.87c.1-.286.33-.933 1.05-2.986.884 5.885-1.784 9.913-1.02 14.28.742 4.247 1.14 8.56 1.74 13.247 1.007 1.733 2.798 3.755 3.367 6.094.563 2.314 1.353 4.085 3.423 6.582 1.312-7.156 2.25-13.408 6.27-18.667 1.27 0 2.638-.325 3.795.05 8.49 2.756 15.393 1.63 24-4.21 2.347-1.593 4.925-2.824 7.754-4.423l18.383 11.39c1.956.16 1.208-3.65 3.046-4.892-.823-5.462 3.614-10.8.132-16.473-.884-1.44-.257-3.962-.105-5.97.278-3.668-.334-7.073-2.67-10.2 4.8-.237 7.99 3.702 12.322 3.744 5.21 3.97 11.614 4.858 17.554 6.548 9.553 2.717 18.427 7.332 28.06 9.81 3.172.816 6.114 3.544 8.61 5.995 5.667 5.564 11.675 10.9 15.273 18.33 2.348.927 1.353 3.446 2.258 5.1 3.573 6.534 5.743 13.776 8.024 20.77 1.973 6.054 3.57 12.47 4.744 18.933 1.084 5.977.538 11.805 1.025 17.673.42 5.07 1.272 10.036 3.762 15.844-.962 5.276 3.98 11.797.373 17.994 2.19 5.192 4.277 10.134 6.43 15.233-2.206 2.333-1.29 5.294-1.447 8.073-78.262-.002-156.523-.002-234.784-.002zM141.137 123.652c-.652-1.632-1.266-2.746-1.525-3.943-.225-1.04-.047-2.17-.047-3.77l-5.154-1.884-.06-1.212 9.958-3.56 1.818-4.358c-2.573-8.024-3.26-16.322-4.208-24.114l11.326-8.72-3.217-6.288c.01-.184-.446-2.07.262-3.114 2.222-3.274.892-6.268-.36-9.105-1.548-3.5-5.17-4.315-8.33-4.78-3.833-.567-7.806-.152-11.718-.117-.6.005-1.243.145-1.787.402-4.385 2.076-8.752 4.195-13.564 6.513l-3.172-2.872c-.73 0-1.04-.096-1.146.015-2.624 2.763-5.754 5.163-5.894 9.605-.066 2.088-.456 4.165-.733 6.53.228 2.143 1.135 4.81.612 7.134-.768 3.42-1.415 6.757-1.144 10.253.117 1.51-2.77 2.486-.528 4.59.58.544-.613 2.945-.75 4.515-.154 1.76-.035 3.548-.035 5.96-4.61-6.002-7.963-11.81-7.892-19.23.015-1.604-.9-3.2-1.212-4.833-.316-1.655.66-3.627-1.193-4.884.008-7.56-.844-15.042 2.326-22.46 3.51-8.218 9.162-14.452 15.398-20.157 3.45-3.156 7.934-5.288 12.8-5.266 2.39.01 4.44-1.095 6.64-1.338 6.3-.695 19.25 2.12 26.354 5.714.544.275 1.064.606 1.583.93 4.067 2.554 6.565 7.116 11.517 8.712 4.622 1.49 7.488 5.857 10.425 9.518 2.373 2.958 4.41 6.815 5 10.543.883 5.577 1.136 11.41-.27 17.083-.255 1.023-.534 2.065-.584 3.11-.123 2.576.17 5.086-1.194 7.6-.68 1.253-.686 3.537.965 4.612-2.525 5.525-2.66 11.334-2.327 17.46l-7.073 12.338c-.71 2.872-.92 5.96-2.79 8.832-1.694 2.597-2.992 5.182-.89 8.836 1.167 2.028.155 5.59-.31 8.385-1.11 6.64-5.326 11.695-8.796 17.08-.674 1.043-2.447 1.33-4.176 2.2-.985-1.395-1.84-3.03-3.08-4.243-1.16-1.132-2.73-1.814-4.153-2.715-3.695 1.9-7.46 1.892-11.48.26l-1.43 1.346c-7.88-4.568-14.19-11.192-20.453-17.818l-1.416 1.462-1.705-7.7c3.384.553 6.306 1.972 8.302 4.93l1.653-1.707c.19 2.445.35 4.52.514 6.593 4.678 3.197 9.913 1.3 14.404 1.83l7.963-4.433c-2.036-1.677-2.887-3.7-5.71-3.833-1.35-.063-2.615-2.026-4.045-3.236 1.05-2.328 2.047-4.532 3.38-7.486-3.82 2.34-7.2 1.055-10.037 1.514-3.366 1.828-2.527 6.13-5.19 8.546-1.162-4.97.09-10.224 3.335-15.03 2.4.352 4.805 1.043 7.18.953 2.185-.083 4.34-1.006 7.064-1.7zM125.175 95.794l-4.304-5.348h-7.17V85.62c1.113-.73 2.42-1.59 4.912-3.224h-6.38c.072-1.084-.115-1.892.192-2.253 1.285-1.51 2.718-2.884 4.173-4.386 2.674-.564 5.684.63 8.27-1.182 2.683 2.23 5.824.38 8.19 1.038l3.892 3.286c-.626 3.89-1.17 7.27-1.812 11.27-4.995 5.354-5.157 5.444-9.963 5.624z"/></svg>