<?xml version="1.0" encoding="utf-8"?>
<!-- Generator: Adobe Illustrator 17.0.0, SVG Export Plug-In . SVG Version: 6.00 Build 0)  -->
<!DOCTYPE svg PUBLIC "-//W3C//DTD SVG 1.1//EN" "http://www.w3.org/Graphics/SVG/1.1/DTD/svg11.dtd">
<svg version="1.1" id="Layer_1" xmlns="http://www.w3.org/2000/svg" xmlns:xlink="http://www.w3.org/1999/xlink" x="0px" y="0px"
	 width="315px" height="315px" viewBox="0 0 315 315" enable-background="new 0 0 315 315" xml:space="preserve">
<g>
	<g>
		<path d="M52.174,316.738c-0.338-3.293,0.445-6.398,1.248-9.555c0.732-2.879-0.948-6.087,1.261-8.934
			c0.607-0.782,0.307-2.681-0.104-3.872c-1.545-4.472-1.795-9.142-2.551-13.752c-1.295-7.903-1.761-15.856-0.99-23.684
			c0.933-9.466,2.061-18.918,4.558-28.254c2.274-8.501,5.464-16.525,8.228-23.877c15.325-13.142,30.825-24.811,46.977-35.941
			c0.1-0.285,0.328-0.932,1.049-2.985c0.884,5.885-1.784,9.913-1.021,14.279c0.743,4.248,1.141,8.561,1.742,13.248
			c1.006,1.732,2.797,3.754,3.366,6.093c0.563,2.314,1.353,4.085,3.423,6.582c1.312-7.156,2.249-13.408,6.271-18.667
			c1.268,0,2.637-0.324,3.794,0.052c8.49,2.755,15.393,1.63,23.999-4.211c2.348-1.593,4.926-2.824,7.755-4.423
			c5.806,3.597,11.553,7.158,18.384,11.391c1.956,0.16,1.208-3.652,3.046-4.893c-0.822-5.462,3.615-10.799,0.133-16.473
			c-0.884-1.441-0.257-3.962-0.105-5.97c0.278-3.668-0.334-7.073-2.669-10.2c4.799-0.237,7.99,3.702,12.321,3.744
			c5.212,3.971,11.615,4.858,17.555,6.548c9.553,2.717,18.427,7.332,28.061,9.81c3.171,0.816,6.113,3.544,8.609,5.995
			c5.667,5.565,11.675,10.9,15.273,18.332c2.348,0.926,1.353,3.445,2.258,5.1c3.573,6.533,5.743,13.775,8.024,20.77
			c1.974,6.053,3.572,12.47,4.745,18.932c1.084,5.977,0.538,11.805,1.025,17.673c0.421,5.069,1.273,10.036,3.763,15.844
			c-0.962,5.276,3.981,11.797,0.373,17.994c2.191,5.192,4.277,10.134,6.43,15.233c-2.206,2.333-1.291,5.294-1.447,8.073
			C208.696,316.738,130.435,316.738,52.174,316.738z"/>
		<path d="M141.137,123.652c-0.652-1.632-1.266-2.746-1.525-3.943c-0.225-1.039-0.047-2.17-0.047-3.769
			c-1.767-0.646-3.481-1.272-5.154-1.884c-0.022-0.422-0.044-0.861-0.062-1.212c3.422-1.223,6.826-2.44,9.959-3.56
			c0.714-1.711,1.27-3.044,1.818-4.358c-2.573-8.024-3.259-16.322-4.208-24.114c3.899-3.002,7.385-5.685,11.326-8.719
			c-0.942-1.841-1.786-3.492-3.217-6.289c0.009-0.184-0.446-2.07,0.262-3.114c2.223-3.274,0.893-6.268-0.36-9.105
			c-1.547-3.501-5.168-4.315-8.328-4.781c-3.834-0.566-7.807-0.151-11.719-0.116c-0.599,0.005-1.243,0.145-1.787,0.402
			c-4.385,2.076-8.752,4.195-13.564,6.513c-1.053-0.953-2.265-2.049-3.173-2.872c-0.731,0-1.041-0.097-1.146,0.014
			c-2.624,2.763-5.754,5.163-5.894,9.605c-0.066,2.088-0.456,4.165-0.733,6.531c0.228,2.142,1.135,4.809,0.612,7.133
			c-0.768,3.421-1.415,6.757-1.144,10.253c0.117,1.511-2.77,2.486-0.528,4.589c0.581,0.545-0.613,2.946-0.75,4.516
			c-0.154,1.761-0.035,3.548-0.035,5.96c-4.609-6.002-7.963-11.809-7.892-19.229c0.015-1.605-0.9-3.2-1.212-4.834
			c-0.316-1.654,0.66-3.626-1.193-4.883c0.008-7.561-0.844-15.042,2.326-22.461c3.512-8.217,9.163-14.451,15.399-20.156
			c3.449-3.155,7.934-5.287,12.799-5.265c2.392,0.011,4.442-1.095,6.642-1.338c6.298-0.695,19.248,2.12,26.353,5.714
			c0.544,0.275,1.064,0.606,1.583,0.931c4.067,2.553,6.565,7.115,11.517,8.711c4.622,1.49,7.488,5.857,10.425,9.518
			c2.373,2.958,4.411,6.815,5.001,10.543c0.882,5.577,1.135,11.411-0.272,17.083c-0.254,1.023-0.533,2.065-0.583,3.11
			c-0.123,2.576,0.171,5.086-1.194,7.6c-0.68,1.253-0.685,3.537,0.966,4.612c-2.525,5.525-2.661,11.334-2.327,17.459
			c-2.3,4.013-4.687,8.176-7.073,12.339c-0.71,2.872-0.919,5.96-2.791,8.832c-1.693,2.597-2.991,5.182-0.889,8.836
			c1.167,2.028,0.155,5.591-0.311,8.385c-1.108,6.642-5.325,11.696-8.795,17.08c-0.673,1.044-2.446,1.332-4.175,2.201
			c-0.985-1.395-1.839-3.031-3.081-4.243c-1.159-1.132-2.729-1.814-4.152-2.715c-3.696,1.901-7.462,1.892-11.48,0.26
			c-0.209,0.197-0.681,0.64-1.432,1.346c-7.878-4.568-14.188-11.192-20.452-17.818c-0.532,0.549-0.839,0.867-1.416,1.462
			c-0.594-2.68-1.146-5.174-1.706-7.701c3.384,0.554,6.306,1.973,8.302,4.931c0.633-0.654,0.941-0.972,1.653-1.707
			c0.189,2.445,0.35,4.519,0.514,6.593c4.678,3.197,9.913,1.301,14.404,1.83c2.732-1.521,5.053-2.813,7.963-4.433
			c-2.037-1.677-2.888-3.701-5.712-3.833c-1.349-0.063-2.614-2.026-4.044-3.236c1.051-2.328,2.047-4.532,3.381-7.486
			c-3.822,2.34-7.201,1.055-10.038,1.514c-3.366,1.828-2.527,6.129-5.19,8.546c-1.162-4.971,0.089-10.224,3.335-15.029
			c2.4,0.351,4.805,1.042,7.181,0.952C136.258,125.27,138.412,124.347,141.137,123.652z"/>
		<path d="M125.175,95.794c-1.829-2.273-3.005-3.735-4.304-5.348c-2.301,0-4.629,0-7.17,0c0-1.729,0-3.232,0-4.825
			c1.112-0.73,2.42-1.59,4.911-3.225c-2.977,0-4.585,0-6.38,0c0.072-1.084-0.115-1.892,0.192-2.253
			c1.285-1.509,2.718-2.884,4.173-4.386c2.674-0.564,5.684,0.63,8.269-1.182c2.684,2.23,5.825,0.379,8.191,1.038
			c1.576,1.331,2.88,2.432,3.892,3.286c-0.625,3.891-1.168,7.27-1.811,11.271C130.143,95.524,129.981,95.614,125.175,95.794z"/>
	</g>
</g>
</svg>
