<?xml version="1.0" encoding="utf-8"?>
<!-- Generator: Adobe Illustrator 17.0.0, SVG Export Plug-In . SVG Version: 6.00 Build 0)  -->
<!DOCTYPE svg PUBLIC "-//W3C//DTD SVG 1.1//EN" "http://www.w3.org/Graphics/SVG/1.1/DTD/svg11.dtd">
<svg version="1.1" id="Layer_1" xmlns="http://www.w3.org/2000/svg" xmlns:xlink="http://www.w3.org/1999/xlink" x="0px" y="0px"
	 width="612px" height="792px" viewBox="0 0 612 792" enable-background="new 0 0 612 792" xml:space="preserve">
<g>
	<g>
		<path fill="#FFFFFF" d="M613.265,805.608c-204.226,0-408.422,0-612.588,0c0-268.34,0-536.65,0-804.93
			c204.226,0,408.422,0,612.588,0C613.265,269.018,613.265,537.328,613.265,805.608z M86.17,727.381c0,0-0.11-0.118-0.11-0.118
			c1.808,1.96,3.386,4.229,5.489,5.791c2.031,1.509,4.548,2.433,6.948,3.363c11.678,4.526,23.681,7.798,36.144,8.972
			c0.358,1.277,0.685,2.443,1.012,3.609c-0.206-0.195-0.412-0.389-0.618-0.584c-1.09,1.483-2.234,2.931-3.249,4.465
			c-0.505,0.763-1.217,1.814-1.016,2.491c0.17,0.572,1.538,1.139,2.349,1.103c2.566-0.112,5.115-0.556,7.679-0.777
			c1.473-0.127,2.966-0.146,4.443-0.081c2.319,0.102,4.633,0.317,6.949,0.484c0.176-0.411,0.352-0.822,0.527-1.233
			c-1.783-2.033-3.567-4.066-5.389-6.144c0.271-1.042,0.574-2.202,0.877-3.361c15.152-3.564,16.477-4.671,29.055-16.467
			c12.213-11.454,25.345-21.787,41.041-28.242c2.821-1.16,4.732-2.446,3.727-5.895c-0.401-0.027-0.877-0.197-1.241-0.064
			c-5.65,2.066-11.584,3.604-16.861,6.385c-10.922,5.755-21.426,12.298-32.246,18.255c-3.732,2.055-7.839,3.481-11.873,4.921
			c-3.53,1.26-7.406,0.074-11.019,1.156c-0.47,0.141-1.113,0.034-1.574-0.179c-1.667-0.771-3.236-1.782-4.943-2.435
			c-3.32-1.269-6.776-2.195-10.047-3.57c-2.529-1.063-2.673-3.022-0.522-4.705c1.695-1.327,3.503-2.517,5.311-3.691
			c2.374-1.543,4.805-2.004,7.643-0.96c4.448,1.637,9.028,2.916,13.543,4.373c3.206,1.035,6.249,0.805,9.651-1.272
			c-5.436-0.043-10.241-0.606-14.715-4.099c1.005-0.14,1.507-0.206,2.008-0.281c0.475-0.072,0.949-0.154,1.543-0.251
			c-2.717-3.31-4.113-4.058-5.662-3.146c-4.848,2.855-9.843-0.192-14.756,0.296c-0.082,0.008-0.318-1.016-0.375-1.569
			c-0.019-0.184,0.297-0.402,0.53-0.692c0.215,0.792,0.379,1.396,0.432,1.591c1.707-1.236,3.3-2.39,5.167-3.742
			c-1.77,0-3.375,0.034-4.978-0.007c-4.202-0.107-8.211,0.294-10.861,4.167c-1.065,1.556-1.766,3.438-3.065,4.741
			c-2.293,2.3-4.917,4.27-7.372,6.352c-5.899-5.815-10.046-8.649-14.813-10.205c-5.433-1.773-11.216-0.09-14.225,4.14
			C83.803,714.346,83.506,723.837,86.17,727.381z M314.073,83.676c-7.732-1.474-13.722-4.596-19.369-9.055
			c-0.113,1.493-0.076,2.896,0.645,3.607c7.112,7.02,10.778,16.26,15.913,24.543c0.552,0.891,0.325,2.405,0.144,3.58
			c-0.386,2.501-0.98,4.97-1.537,7.685c4.486-0.667,4.898-0.097,4.715,3.801c-0.076,1.615,0.443,3.363,1.084,4.885
			c1.48,3.509,2.264,7.41,5.273,10.137c0.041,0.037-0.169,0.349-0.386,0.781c-0.394-0.429-0.675-0.859-1.065-1.137
			c-0.907-0.646-1.867-1.218-2.805-1.82c-0.578,0.99-1.243,1.941-1.698,2.984c-0.243,0.558,0.039,1.342-0.197,1.906
			c-1.298,3.106-2.723,6.158-4.017,9.265c-0.501,1.204-1.27,2.603-1.042,3.737c0.416,2.067,1.515,3.992,2.269,5.998
			c0.33,0.878,0.988,2.042,0.68,2.68c-1.28,2.645-2.873,5.138-4.422,7.809c-0.5-0.816-0.964-1.572-1.432-2.337
			c-2.36,1.367-4.544,2.632-6.436,3.727c-1.196-1.673-1.898-2.654-2.6-3.635c-0.93,0.956-2.034,1.797-2.756,2.89
			c-1.724,2.607-3.055,5.495-4.931,7.977c-3.38,4.47-7.886,7.127-13.601,7.355c1.092-0.897,2.275-1.707,3.584-2.083
			c2.896-0.832,3.678-2.694,3.642-5.545c-0.028-2.221,0.723-4.443,1.031-6.679c0.367-2.661,0.63-5.337,0.939-8.006
			c-0.472-0.118-0.944-0.236-1.417-0.354c-1.977,4.289-3.954,8.578-5.93,12.867c-0.247-0.091-0.493-0.181-0.74-0.272
			c-0.207-1.511-0.414-3.023-0.62-4.534c-0.354-0.094-0.707-0.189-1.061-0.283c-1.111,2.439-2.222,4.877-3.334,7.316
			c-0.617,1.353-1.197,2.724-1.864,4.051c-0.94,1.868-2.113,3.638-2.875,5.572c-0.726,1.843-1.256,3.217-3.809,2.89
			c-1.207-0.155-2.854,0.811-3.856,1.746c-5.178,4.833-5.126,4.885-10.674,1.079c-0.104-0.072-0.363,0.082-0.547,0.13
			c-0.183,1.122-0.364,2.229-0.679,4.153c-2.702-4.153-4.229-1.053-5.661,0.278c-1.596,1.483-2.693,3.505-4.096,5.414
			c-0.327-0.244-0.925-0.69-1.579-1.179c-0.705,1.537-1.285,2.804-1.859,4.056c-3.592-6.822-7.03-13.353-10.521-19.985
			c-7.544,6.005-10.761,25.737-5.603,32.947c1.065-2.685,2.073-5.227,3.082-7.769c-0.399,4.937-1.753,9.571-2.459,14.302
			c-0.714,4.788,3.04,9.368,1.054,15.249c-1.106-3.285-1.941-5.766-2.864-8.508c-3.223,5.154-3.636,9.715,0.432,14.233
			c2.091,2.322,1.767,4.943-0.603,8.076c-0.628-1.377-1.207-2.647-1.785-3.916c-0.264,0.04-0.527,0.08-0.791,0.12
			c0.21,4.765,0.421,9.529,0.631,14.294c-2.191-1.336-3.513-2.887-4.977-4.292c-0.562-0.539-1.544-1.14-2.151-0.987
			c-0.555,0.14-1.202,1.249-1.228,1.952c-0.364,10.069-0.82,20.142-0.816,30.214c0.001,3.538,1.186,7.077,1.927,11.143
			c-0.935-0.851-1.459-1.328-2.57-2.341c0.734,4.158-1.044,7.821,2.356,10.758c3.631,3.138,3.496,3.297-0.109,6.278
			c-0.381,0.315-0.791,0.595-1.708,1.28c-2.169-5.967-4.526-11.526-10.329-14.728c0.152,2.206,0.42,4.409,1.4,6.227
			c3.437,6.373,6.731,12.971,14.426,15.578c0.383-0.793,0.81-1.675,1.471-3.042c3.681,3.784,7.548,6.92,10.309,10.836
			c2.738,3.884,4.497,8.495,6.446,12.893c3.756,8.476,7.344,17.027,11,25.547c0.935,2.179,4.775,3.787,7.153,2.785
			c0.525,3.546,1.041,7.034,1.558,10.522c0.314-0.015,0.628-0.029,0.942-0.044c0.4-3.41,0.8-6.82,1.2-10.23
			c2.562,8.521,4.538,17.077,6.458,25.646c0.184,0.823,0.244,1.789-0.003,2.574c-1.623,5.144-3.371,10.249-5.014,15.387
			c-0.311,0.971-0.663,2.112-0.437,3.038c0.828,3.387,2.411,6.663,2.766,10.079c0.933,8.979,1.405,18.007,1.99,27.02
			c0.292,4.507,0.445,9.023,0.631,13.537c0.119,2.866,0.201,5.734,0.27,8.602c0.145,5.998,0.247,11.997,0.441,17.993
			c0.02,0.63,0.539,1.243,1.125,2.508c0.958-2.725,1.685-4.794,2.412-6.864c0.448,0.01,0.895,0.021,1.343,0.031
			c0.552,2.753,1.187,5.492,1.635,8.262c0.548,3.384,0.69,6.856,1.528,10.158c0.309,1.216,2.188,2.99,3.204,2.897
			c3.757-0.341,3.302,1.653,2.295,3.68c-0.926,1.864-2.433,3.434-3.639,5.165c-0.53,0.76-1.401,1.638-1.335,2.394
			c0.236,2.702,0.833,5.37,1.238,8.06c0.187,1.244,0.616,2.607,0.306,3.745c-2.541,9.331-5.222,18.624-7.891,27.919
			c-0.202,0.705-0.46,1.683-0.991,1.959c-4.186,2.177-2.513,6.28-2.902,9.482c-0.304,2.502,2.111,3.097,4.459,2.686
			c2.366-0.414,2.168-1.734,1.679-3.582c-0.191-0.721,1.043-2.539,1.129-2.507c2.202,0.814,4.414,1.682,6.406,2.898
			c0.308,0.188-0.536,2.101-0.672,3.238c-0.086,0.712,0.052,1.496,0.27,2.191c0.511,1.632,1.049,3.266,1.737,4.828
			c0.413,0.938,0.997,1.884,1.739,2.574c1.075,1,2.362,1.772,3.948,2.925c0.379-0.758,0.823-1.733,1.342-2.666
			c0.869-1.56,1.593-3.258,2.735-4.594c1.367-1.6,3.087-2.905,4.692-4.294c2.188-1.894,4.429-3.728,6.613-5.627
			c0.713-0.62,1.55-1.254,1.933-2.068c1.626-3.456,4.167-4.967,8.33-4.162c-0.444,4.333-1.916,9.301,4.632,10.817
			c0.342-0.693,0.988-1.374,0.937-1.997c-0.354-4.295,2.182-7.225,4.476-10.379c1.497-2.058,2.506-4.469,3.759-6.708
			c0.418-0.746,0.789-1.933,1.396-2.089c3.014-0.775,2.931-3.33,3.526-5.532c0.272-1.007,0.586-2.002,0.993-3.381
			c2.679,2.522,3.919,1.063,5.17-1.13c2.028-3.556,4.127-7.089,6.462-10.446c1.068-1.535,2.6-3.417,4.217-3.762
			c3.519-0.751,5.529-3.12,6.889-5.778c3.235-6.324,6.043-12.872,8.865-19.398c1.081-2.501,1.767-5.038-1.15-7.22
			c-0.951-0.712-1.018-2.632-1.44-4.015c-0.521-1.707-0.446-4.09-1.58-5.023c-3.662-3.011-6.393-6.003-4.164-11.105
			c0.242-0.554,0.288-1.333,0.11-1.911c-1.615-5.26-0.907-10.614-0.629-15.933c0.049-0.93,0.999-1.813,1.532-2.717
			c0.406,0.104,0.813,0.208,1.219,0.312c-0.631,5.466,4.859,9.327,3.315,15.1c-0.361,1.35,0.325,2.371,2.189,2.389
			c0.779,0.008,2.095,1.169,2.231,1.965c1.215,7.133,5.683,12.524,9.778,19.299c0.354-2.127,0.538-3.321,0.754-4.509
			c0.442-2.423,0.619-4.949,1.468-7.221c0.451-1.205,1.985-2.527,3.213-2.739c0.838-0.145,2.096,1.444,2.979,2.426
			c1.133,1.262,2.078,2.692,3.599,4.705c1.709-4.633,2.848-8.237,2.884-12.038c-0.308-0.079-0.616-0.159-0.924-0.238
			c-0.764,0.939-1.528,1.877-3.018,3.707c-1.09-3.408-1.896-5.977-2.738-8.533c-0.292-0.887-0.474-1.912-1.045-2.589
			c-5.66-6.702-6.543-14.698-5.747-23.364c1.737,3.275,3.475,6.55,5.212,9.825c0.285-0.14,0.571-0.28,0.856-0.42
			c-0.452-2.18-1.135-4.345-1.267-6.544c-0.075-1.255,0.461-2.834,1.299-3.725c0.367-0.391,2.199,0.508,3.32,0.939
			c0.964,0.371,1.866,1.307,2.792,1.303c3.029-0.014,5.011,1.47,6.742,3.742c1.951,2.562,3.934,5.129,6.168,7.437
			c1.928,1.992,3.718,1.521,4.59-1.095c0.572-1.716,0.701-3.583,0.999-5.387c0.855-5.18,0.063-5.892-5.05-4.76
			c-0.76,0.168-1.622-0.125-2.437-0.204c0.1-0.79,0.053-1.634,0.325-2.36c1.197-3.192,2.412-6.381,3.789-9.497
			c0.381-0.863,1.739-2.208,1.977-2.08c2.372,1.272,4.604,2.807,6.875,4.268c-0.136,0.239-0.272,0.478-0.408,0.717
			c-0.988,0-1.977,0-3.697,0c0.8,2.018,1.214,3.784,2.133,5.228c1.739,2.733,2.006,5.481,1.495,8.644
			c-0.545,3.375-0.608,6.856-0.559,10.286c0.022,1.564,0.819,3.118,1.264,4.676c1.008-0.81,1.28-1.479,1.439-2.173
			c0.955-4.185,1.275-4.337,5.303-3.138c0.619,0.185,1.883-0.135,2.111-0.59c0.837-1.675,1.675-3.463,1.928-5.289
			c0.338-2.437-0.103-4.98,0.227-7.419c0.285-2.102,1.182-4.12,1.913-6.519c1.591,1.029,2.45,1.585,3.55,2.296
			c1.615-2.523,4.666-3.946,4.521-7.746c-3.183,0.271-5.729-0.158-6.739-4.376c1.93,0.709,3.114,1.144,4.71,1.73
			c-1.445-4.435-2.916-8.433-2.046-12.888c1.713,0.208,3.037,0.368,4.75,0.575c-0.291-1.125-0.344-1.874-0.664-2.483
			c-3.45-6.558-6.907-13.114-10.46-19.617c-0.579-1.06-1.632-1.862-2.466-2.783c-0.946,1.841-0.943,3.241-1.308,4.537
			c-0.294,1.045-1.033,1.965-1.575,2.941c-1.074-0.644-2.443-1.072-3.121-2.004c-0.478-0.656-0.115-2.012,0.051-3.027
			c0.233-1.427,0.917-2.83,0.906-4.239c-0.037-4.695-0.308-9.387-0.458-14.082c-0.013-0.41,0.085-0.92,0.328-1.227
			c2.071-2.606,1.181-5.282,0.315-7.999c-0.323-1.014-0.445-2.092-0.599-2.849c3.179,0.626,5.975,1.176,9.212,1.814
			c-0.469-10.126-0.915-19.743-1.359-29.343c1.714,0.622,3.232,1.173,4.751,1.724c0.128-1.849,0.219-3.701,0.393-5.546
			c0.437-4.652,0.912-9.3,1.372-13.95c0.378-0.108,0.755-0.217,1.133-0.325c0.745,1.334,1.491,2.669,2.272,4.066
			c1.53-1.656,3.04-3.436,4.706-5.056c2.27-2.206,5.241-3.335,7.863-4.908c5.197-3.119,8.237-8.84,8.561-14.87
			c0.185-3.445,0.594-6.37,2.071-9.454c0.985-2.057,2.556-5.048-1.691-6.123c-0.531-0.134-1.27-1.489-1.101-2.02
			c1.326-4.176,1.872-9.13,4.538-12.226c4.106-4.769,6.671-9.602,7.029-15.821c0.138-2.389,0.171-5.47,1.591-6.949
			c2.476-2.578,1.839-4.995,1.964-8.265c-1.449,2.597-2.269,4.725-3.681,6.335c-0.764,0.87-2.538,0.854-3.856,1.238
			c-0.283-1.353-0.826-2.713-0.791-4.058c0.064-2.445,0.426-4.887,0.752-7.319c0.268-1.998,0.698-3.974,0.998-5.968
			c0.78-5.189,1.546-10.379,2.253-15.578c0.057-0.42-0.385-0.907-0.636-1.45c-0.858,0.367-1.544,0.659-2.364,1.01
			c0-7.896,0-15.47,0-23.712c-3.026,3.436-5.907,5.965-7.82,9.088c-1.91,3.118-2.851,6.829-4.217,10.28
			c-0.389-0.074-0.777-0.148-1.166-0.223c-0.682-1.968-1.364-3.935-2.149-6.203c-5.678,7.458-7.025,8.426-11.584,8.433
			c1.049-2.711-0.644-3.641-2.772-4.345c-0.87-0.288-1.877-0.581-2.464-1.207c-0.984-1.05-1.681-2.368-2.891-4.152
			c1.776-1.472,3.929-3.255,6.309-5.227c-0.909-0.545-1.244-0.855-1.635-0.963c-5.149-1.424-9.345-3.828-10.405-9.677
			c-0.09-0.499-0.969-1.345-1.151-1.266c-3.751,1.621-6.26-1.481-9.275-2.479c-1.015-0.336-1.984-1.659-2.35-2.742
			c-0.174-0.515,0.964-1.793,1.775-2.252c1.382-0.782,3-1.134,4.474-1.77c1.655-0.714,3.364-1.383,4.862-2.36
			c2.174-1.417,3.577-3.955,2.442-6.059c-0.701-1.301-3.623-1.657-5.62-1.95c-3.253-0.477-6.695-0.076-9.819-0.923
			c-3.902-1.059-8.063-1.355-11.45-4.55c-1.262-1.191-2.836-2.101-3.746-3.783c-0.392-0.725-0.977-1.537-1.682-1.866
			c-2.744-1.282-2.909-2.92-1.383-5.385c2.474-3.996,5.773-7.587,5.755-12.846c-0.005-1.436,1.413-3.641,2.713-4.167
			c3.391-1.371,3.155-3.957,3.167-6.651c0.007-1.615-0.173-3.253,0.036-4.841c0.401-3.047,3.782-6.44,6.349-6.366
			c5.829,0.169,8.871-4.232,12.505-7.577c1.693-1.558,2.987-3.549,4.471-5.336c0.504-0.607,1.036-1.191,2.166-2.486
			c-3.615,0.648-6.319,1.133-9.599,1.721c0.681-3.861,1.3-7.371,1.919-10.88c-0.463-0.252-0.926-0.503-1.389-0.755
			c-2.621,4.283-4.337,9.444-9.335,11.307c-0.82-2.895-1.449-5.685-2.459-8.33c-0.3-0.785-1.672-1.16-2.553-1.723
			c-0.442,0.839-0.884,1.678-1.634,3.103c-1.49-0.222-3.504-0.352-5.423-0.849c-3.157-0.817-3.308-1.591-1.703-4.497
			c0.611-1.105,1.077-2.512,0.99-3.736c-0.193-2.71-0.779-5.392-1.23-8.239c-0.468-0.276-1.388-0.819-2.308-1.362
			c0.733-0.997,1.3-2.198,2.229-2.954c3.83-3.119,3.877-3.182,0.177-6.353c2.342-2.759,0.313-4.567-1.766-6.362
			c0.391-0.094,0.781-0.188,1.172-0.282c-0.55-2.322-1.101-4.643-1.651-6.965c-0.412-0.091-0.824-0.183-1.236-0.274
			c-1.396,1.675-2.883,3.283-4.166,5.041c-1.674,2.293-4.059,2.978-5.249,0.932c-1.768-3.041-4.059-2.376-6.561-2.058
			c0.102,1.164,0.185,2.11,0.309,3.521c-1.096-1.574-1.818-2.611-2.541-3.649c-0.492,0.375-0.984,0.749-1.476,1.124
			c0.802,2.558,1.605,5.115,2.408,7.673c0.318-0.366,0.636-0.731,0.954-1.097c1.46,0.114,3.057-0.066,4.3,0.512
			c0.405,0.188-0.272,2.373-0.149,3.615c0.082,0.833,0.51,1.849,1.132,2.352c0.661,0.535,1.734,0.56,3.215,0.971
			c-1.956,1.144-3.997,1.672-4.599,2.903c-0.471,0.963,0.84,2.798,1.257,3.961c-0.635,1.075-1.518,2.57-2.401,4.066
			c1.409,0.54,2.782,1.352,4.236,1.541c1.379,0.179,2.843-0.297,4.269-0.484c0.087,0.402,0.175,0.803,0.262,1.205
			c-2.931,0.707-5.861,1.414-8.792,2.121c-0.075,0.195-0.151,0.39-0.226,0.586c2.18,0.75,4.361,1.5,6.541,2.25
			c-0.081,0.27-0.162,0.541-0.243,0.811c-1.918-0.147-3.835-0.293-4.959-0.379c-0.653,1.678-1.07,2.75-1.487,3.822
			c-0.698-0.891-1.475-1.735-2.056-2.697c-0.235-0.389,0.168-1.201-0.09-1.528c-0.388-0.491-1.102-0.724-1.559-0.997
			c-0.318,1.958-0.557,3.426-0.795,4.895c-1.265-0.537-2.529-1.074-4.027-1.71c-0.527,0.702-1.175,1.566-1.962,2.615
			c4.532,0.336,6.161-0.162,7.346,3.801c0.989-0.186,1.99-0.375,3.04-0.573c-0.071,2.81,0.419,3.297,2.862,3.844
			c1.857,0.416,3.653,1.105,5.476,1.672c-0.114,0.311-0.227,0.622-0.341,0.933c-9.542-0.923-17.731-5.611-26.302-9.236
			c0.044-0.308,0.088-0.615,0.132-0.923c2.045-0.306,4.09-0.613,6.832-1.023c-0.664-3.856-1.372-7.972-2.158-12.531
			c1.492-1.422,5.582-1.316,6.066-6.001c-2.92,1.196-5.225,2.14-7.53,3.084c-0.25-0.247-0.499-0.493-0.748-0.74
			c0.629-0.656,1.142-1.544,1.908-1.924c2.07-1.027,4.707-1.288,5.718-4.819c-3.215,1.429-5.706,2.536-8.197,3.643
			c-0.171-0.321-0.342-0.641-0.512-0.962c1.459-0.931,2.861-1.97,4.389-2.768c2.566-1.34,3.473-3.218,1.877-5.74
			c-1.507-2.38-0.567-3.846,1.283-5.409c0.923-0.78,1.433-2.05,2.13-3.099c-0.29-0.191-0.579-0.382-0.869-0.573
			c-0.69,0.462-1.346,1.25-2.077,1.326c-2.264,0.237-3.371,1.243-4.374,3.427c-1.133,2.466-3.033,5.738-5.214,6.307
			c-3.841,1.003-4.988,4.051-7.236,6.289c-1.91,1.902-1.439,3.772-0.121,6.04c2.281-0.793,4.467-1.553,6.534-2.272
			c1.093,2.948-0.589,4.512-2.705,5.825c-1.949,1.209-3.933,2.364-6.376,3.826c0.598-1.247,0.932-1.946,1.255-2.619
			c-4.995,0.659-9.806,1.293-14.618,1.928c-0.032-0.237-0.063-0.473-0.095-0.71c0.654-0.326,1.309-0.652,1.964-0.978
			c-0.068-0.157-0.137-0.314-0.205-0.472c-1.295,0.228-2.59,0.456-4.955,0.872c2.316-3.586,4.013-6.598,6.107-9.302
			c1.146-1.479,3.064-2.336,4.429-3.681c0.554-0.545,0.937-1.74,0.747-2.47c-0.487-1.869-1.34-3.643-2.12-5.643
			c-0.477,0.293-1.181,0.57-1.681,1.058c-4.283,4.181-8.471,8.403-14.476,10.249c-1.982,0.609-2.041,2.57-1.161,4.377
			C312.661,80.772,313.196,81.873,314.073,83.676z M319.97,606.183c-1.582-1.588-2.526-3.21-3.889-3.728
			c-1.626-0.618-3.723-0.712-5.413-0.266c-2.159,0.57-5.633,0.418-5.247,3.984c0.611,5.645-5.292,12.048-11.113,11.428
			c0-1.161,0-2.352,0-3.543c-0.264-0.089-0.528-0.178-0.792-0.268c-0.721,1.463-1.825,2.859-2.1,4.402
			c-1.379,7.723-7.047,12.961-10.949,19.2c-1.592,2.545-3.9,4.642-6.007,7.086c-0.592-2.246-1.088-4.126-1.583-6.006
			c-0.435-0.182-0.87-0.364-1.306-0.546c-0.37,1.012-0.739,2.023-1.109,3.035c-0.367-0.247-0.734-0.493-1.101-0.74
			c1.252-5.387,1.566-11.027,4.558-16.227c0.96,0.79,1.577,1.297,2.877,2.367c0.449-2.388,1.074-4.189,1.072-5.989
			c-0.004-5.298-3.877-10.359-1-15.868c0.021-0.041-0.289-0.254-0.76-0.658c-0.859,1.033-1.775,2.013-2.55,3.095
			c-1.269,1.768-2.427,2.512-3.859,0.127c-0.318-0.531-1.336-1.215-1.681-1.058c-1.601,0.729-3.593,1.378-4.496,2.703
			c-2.031,2.979-3.642,6.276-5.142,9.572c-0.852,1.871-4.731,5.142-6.113,4.259c-3.687-2.356-4.363,0.227-5.377,2.777
			c-0.732,1.842-1.278,4.143-2.684,5.259c-3.754,2.981-7.646,2.38-11.295-1.523c-0.667,1.517-1.328,2.784-1.786,4.121
			c-0.59,1.724-0.509,3.955-1.6,5.183c-5.034,5.661-2.868,12.17-2.632,18.465c0.015,0.387,0.248,0.964,0.548,1.113
			c3.815,1.893,1.655,4.694,1.123,7.225c-0.214,1.017-0.572,2.003-0.864,3.003c1.969-0.586,3.164-1.642,4.492-2.488
			c0.738-0.47,1.7-0.588,2.561-0.864c0.206,0.894,0.555,1.783,0.582,2.682c0.036,1.177-0.246,2.361-0.278,3.545
			c-0.077,2.891-0.461,5.839-0.035,8.661c0.565,3.742,2.339,4.396,5.345,2.016c1.983-1.57,3.424-3.814,5.168-5.701
			c0.712-0.769,1.589-1.988,2.382-1.981c4.739,0.044,6.598-2.602,7.401-6.829c0.213-1.123,1.585-2.026,2.424-3.029
			c0.845,1.007,1.731,1.983,2.521,3.032c0.688,0.914,1.267,1.911,1.895,2.871c0.728-1.06,1.417-2.15,2.196-3.172
			c0.646-0.847,1.591-2.406,2.074-2.289c4.212,1.02,5.294-2.341,7.122-4.72c2.196-2.858,4.353-5.753,6.685-8.497
			c1.658-1.95,3.42-3.879,5.422-5.452c2.298-1.806,4.729-3.957,7.43-4.621c4.618-1.135,10.06-5.789,10.959-10.599
			c0.803-4.292,4.6-6.073,7.525-8.47c0.791-0.648,2.634,0.014,3.995,0.019c0.509,0.002,1.222,0.03,1.497-0.27
			c1.868-2.043,4.287-3.901,5.303-6.33c1.634-3.907,4.337-6.219,7.869-8.118c1.948-1.048,4.127-2.318,5.257-4.09
			c1.931-3.029,3.275-6.344,7.517-6.674c0.33-0.026,0.588-0.61,0.936-0.854c1.892-1.326,3.7-2.819,5.73-3.888
			c2.528-1.331,4.337-2.973,4.587-6.07c-2.417-0.769-5.809,2.44-6.846-2.856c-4.545,4.845-8.243,9.611-12.77,13.382
			C330.086,600.315,324.699,603.128,319.97,606.183z M250.22,403.901c0.061-0.578,0.343-1.259,0.154-1.762
			c-2.039-5.426-3.84-10.973-6.327-16.191c-2.998-6.288-6.396-12.41-9.985-18.385c-4.652-7.747-9.479-15.379-13.405-23.751
			c-1.935,1.124-1.607,2.925-0.536,4.644c7.957,12.771,12.278,27.195,18.451,40.773C241.255,395.13,242.913,401.382,250.22,403.901z
			 M334.514,67.463c0.185,0.239,0.37,0.479,0.555,0.718c4.477-1.21,9.166-5.712,10.983-10.491c1.407-3.7,2.823-7.398,4.326-11.059
			c0.243-0.591,0.893-1.292,1.472-1.422c3.333-0.753,3.919-3.299,4.168-6.083c0.17-1.9-0.812-2.712-2.676-2.823
			c-3.776-0.225-6.461,3.059-5.603,7.545c0.623,3.257-0.276,5.479-2.626,7.73c-2.265,2.169-4.47,4.654-3.024,8.462
			c0.231,0.609-1.152,2.022-2.017,2.815C338.3,64.48,336.375,65.937,334.514,67.463z M438.274,330.96
			c-0.106-3.107-2.263-4.576-4.019-3.652c-5.102,2.684-7.813,8.856-5.987,13.976c0.262,0.734,1.284,1.572,2.031,1.652
			c0.756,0.081,1.86-0.522,2.365-1.172c1.313-1.69,2.545-3.488,3.503-5.397C437.16,334.389,437.792,332.23,438.274,330.96z
			 M401.466,69.34c-0.271-0.22-0.541-0.439-0.812-0.659c-2.62,2.499-5.404,4.852-7.818,7.536c-2.921,3.247-2.731,4.156,0.968,7.864
			C395.461,78.536,395.911,72.583,401.466,69.34z M139.886,695.888c-0.833-0.257-1.827-0.564-2.793-0.862
			c-2.781,2.224-0.389,4.465,0.703,5.066c1.179,0.649,3.542-0.185,5.02-1.023c0.757-0.429,2.599-2.408-0.359-3.623
			c-0.635,1.355-1.228,2.622-2.138,4.563C140.128,698.184,140.017,697.131,139.886,695.888z M232.048,606.433
			c-2.893,3.101-4.201,7.882-3.209,10.836C233.242,614.526,231.181,610.031,232.048,606.433z M154.585,758.511
			c0.022-0.081,0.043-0.162,0.065-0.243c-8.08,0-16.16,0-24.241,0c0.004,0.081,0.009,0.162,0.013,0.243
			C138.477,758.511,146.531,758.511,154.585,758.511z M359.504,68.129c1.768-2.652,1.163-4.482,0.072-6.204
			c-0.248-0.392-1.155-0.753-1.51-0.589c-0.4,0.185-0.837,1.08-0.706,1.489C357.883,64.452,358.622,66.011,359.504,68.129z
			 M337.414,608.453c3.536-0.536,4.593-2.797,2.969-6.011C339.394,604.445,338.44,606.376,337.414,608.453z"/>
		<path d="M314.073,83.676c-0.877-1.803-1.413-2.904-1.949-4.005c-0.88-1.807-0.821-3.768,1.161-4.377
			c6.005-1.846,10.193-6.068,14.476-10.249c0.499-0.487,1.204-0.764,1.681-1.058c0.78,2,1.632,3.774,2.12,5.643
			c0.19,0.73-0.194,1.925-0.747,2.47c-1.365,1.345-3.284,2.202-4.429,3.681c-2.094,2.704-3.791,5.716-6.107,9.302
			c2.365-0.416,3.66-0.644,4.955-0.872c0.068,0.157,0.137,0.314,0.205,0.472c-0.655,0.326-1.309,0.652-1.964,0.978
			c0.032,0.237,0.063,0.473,0.095,0.71c4.811-0.635,9.623-1.269,14.618-1.928c-0.323,0.674-0.658,1.373-1.255,2.619
			c2.443-1.463,4.427-2.617,6.376-3.826c2.116-1.313,3.798-2.877,2.705-5.825c-2.067,0.719-4.253,1.479-6.534,2.272
			c-1.318-2.268-1.79-4.138,0.121-6.04c2.248-2.238,3.395-5.287,7.236-6.289c2.181-0.569,4.081-3.842,5.214-6.307
			c1.003-2.183,2.11-3.19,4.374-3.427c0.731-0.076,1.387-0.864,2.077-1.326c0.29,0.191,0.579,0.382,0.869,0.573
			c-0.697,1.049-1.206,2.319-2.13,3.099c-1.85,1.563-2.789,3.029-1.283,5.409c1.597,2.522,0.689,4.4-1.877,5.74
			c-1.528,0.798-2.931,1.837-4.389,2.768c0.171,0.321,0.342,0.641,0.512,0.962c2.491-1.107,4.982-2.214,8.197-3.643
			c-1.012,3.532-3.649,3.793-5.718,4.819c-0.766,0.38-1.279,1.268-1.908,1.924c0.249,0.247,0.499,0.493,0.748,0.74
			c2.305-0.944,4.61-1.888,7.53-3.084c-0.484,4.686-4.574,4.58-6.066,6.001c0.785,4.56,1.494,8.675,2.158,12.531
			c-2.742,0.411-4.787,0.717-6.832,1.023c-0.044,0.308-0.088,0.615-0.132,0.923c8.571,3.625,16.759,8.314,26.302,9.236
			c0.114-0.311,0.227-0.622,0.341-0.933c-1.823-0.567-3.619-1.257-5.476-1.672c-2.443-0.547-2.933-1.034-2.862-3.844
			c-1.05,0.198-2.051,0.386-3.04,0.573c-1.186-3.963-2.815-3.465-7.346-3.801c0.787-1.049,1.435-1.913,1.962-2.615
			c1.498,0.636,2.762,1.173,4.027,1.71c0.239-1.468,0.477-2.937,0.795-4.895c0.458,0.273,1.171,0.506,1.559,0.997
			c0.258,0.327-0.145,1.139,0.09,1.528c0.581,0.962,1.358,1.806,2.056,2.697c0.417-1.072,0.834-2.144,1.487-3.822
			c1.123,0.086,3.041,0.232,4.959,0.379c0.081-0.27,0.162-0.541,0.243-0.811c-2.18-0.75-4.361-1.5-6.541-2.25
			c0.075-0.195,0.151-0.39,0.226-0.586c2.931-0.707,5.862-1.414,8.792-2.121c-0.087-0.402-0.175-0.803-0.262-1.205
			c-1.426,0.188-2.89,0.663-4.269,0.484c-1.454-0.188-2.828-1.001-4.236-1.541c0.883-1.495,1.766-2.991,2.401-4.066
			c-0.417-1.163-1.729-2.998-1.257-3.961c0.602-1.231,2.643-1.759,4.599-2.903c-1.481-0.411-2.554-0.436-3.215-0.971
			c-0.622-0.503-1.049-1.519-1.132-2.352c-0.123-1.242,0.554-3.427,0.149-3.615c-1.244-0.578-2.841-0.398-4.3-0.512
			c-0.318,0.366-0.636,0.731-0.954,1.097c-0.802-2.558-1.605-5.115-2.408-7.673c0.492-0.375,0.984-0.749,1.476-1.124
			c0.722,1.037,1.445,2.075,2.541,3.649c-0.124-1.411-0.207-2.358-0.309-3.521c2.502-0.318,4.793-0.983,6.561,2.058
			c1.19,2.046,3.575,1.361,5.249-0.932c1.283-1.757,2.77-3.366,4.166-5.041c0.412,0.091,0.824,0.183,1.236,0.274
			c0.55,2.322,1.101,4.643,1.651,6.965c-0.391,0.094-0.781,0.188-1.172,0.282c2.079,1.795,4.109,3.603,1.766,6.362
			c3.7,3.171,3.653,3.234-0.177,6.353c-0.929,0.757-1.496,1.958-2.229,2.954c0.92,0.543,1.84,1.086,2.308,1.362
			c0.45,2.848,1.036,5.529,1.23,8.239c0.087,1.225-0.379,2.631-0.99,3.736c-1.605,2.906-1.454,3.68,1.703,4.497
			c1.919,0.497,3.933,0.626,5.423,0.849c0.75-1.425,1.192-2.264,1.634-3.103c0.881,0.563,2.253,0.938,2.553,1.723
			c1.01,2.644,1.639,5.435,2.459,8.33c4.997-1.863,6.713-7.024,9.335-11.307c0.463,0.252,0.926,0.503,1.389,0.755
			c-0.619,3.509-1.238,7.018-1.919,10.88c3.28-0.588,5.984-1.073,9.599-1.721c-1.13,1.295-1.662,1.879-2.166,2.486
			c-1.484,1.787-2.778,3.778-4.471,5.336c-3.635,3.345-6.676,7.746-12.505,7.577c-2.567-0.074-5.947,3.319-6.349,6.366
			c-0.209,1.588-0.029,3.226-0.036,4.841c-0.012,2.693,0.224,5.28-3.167,6.651c-1.301,0.526-2.718,2.731-2.713,4.167
			c0.018,5.259-3.281,8.85-5.755,12.846c-1.526,2.465-1.361,4.103,1.383,5.385c0.705,0.329,1.29,1.141,1.682,1.866
			c0.909,1.682,2.483,2.593,3.746,3.783c3.387,3.195,7.548,3.491,11.45,4.55c3.124,0.848,6.566,0.446,9.819,0.923
			c1.997,0.293,4.919,0.649,5.62,1.95c1.134,2.104-0.269,4.642-2.442,6.059c-1.498,0.977-3.207,1.646-4.862,2.36
			c-1.474,0.636-3.092,0.989-4.474,1.77c-0.811,0.459-1.949,1.736-1.775,2.252c0.366,1.083,1.335,2.405,2.35,2.742
			c3.015,0.998,5.524,4.1,9.275,2.479c0.182-0.079,1.06,0.767,1.151,1.266c1.06,5.85,5.257,8.254,10.405,9.677
			c0.391,0.108,0.726,0.418,1.635,0.963c-2.38,1.972-4.533,3.755-6.309,5.227c1.21,1.784,1.908,3.102,2.891,4.152
			c0.587,0.626,1.594,0.92,2.464,1.207c2.128,0.704,3.822,1.634,2.772,4.345c4.559-0.007,5.906-0.975,11.584-8.433
			c0.786,2.268,1.468,4.236,2.149,6.203c0.389,0.074,0.777,0.149,1.166,0.223c1.366-3.451,2.307-7.162,4.217-10.28
			c1.913-3.122,4.794-5.651,7.82-9.088c0,8.242,0,15.816,0,23.712c0.82-0.35,1.506-0.643,2.364-1.01
			c0.251,0.543,0.693,1.031,0.636,1.45c-0.707,5.199-1.473,10.39-2.253,15.578c-0.3,1.994-0.73,3.97-0.998,5.968
			c-0.326,2.432-0.688,4.874-0.752,7.319c-0.035,1.345,0.508,2.705,0.791,4.058c1.318-0.384,3.092-0.367,3.856-1.238
			c1.412-1.609,2.232-3.738,3.681-6.335c-0.125,3.27,0.512,5.687-1.964,8.265c-1.42,1.479-1.453,4.559-1.591,6.949
			c-0.358,6.219-2.923,11.053-7.029,15.821c-2.666,3.096-3.212,8.05-4.538,12.226c-0.169,0.531,0.57,1.886,1.101,2.02
			c4.247,1.075,2.676,4.066,1.691,6.123c-1.477,3.084-1.885,6.009-2.071,9.454c-0.324,6.03-3.364,11.751-8.561,14.87
			c-2.622,1.574-5.593,2.702-7.863,4.908c-1.666,1.619-3.176,3.4-4.706,5.056c-0.781-1.398-1.526-2.732-2.272-4.066
			c-0.378,0.108-0.755,0.217-1.133,0.325c-0.46,4.65-0.935,9.298-1.372,13.95c-0.173,1.845-0.264,3.697-0.393,5.546
			c-1.519-0.551-3.037-1.102-4.751-1.724c0.445,9.6,0.89,19.217,1.359,29.343c-3.237-0.637-6.033-1.188-9.212-1.814
			c0.154,0.758,0.275,1.836,0.599,2.849c0.867,2.717,1.756,5.393-0.315,7.999c-0.244,0.307-0.342,0.817-0.328,1.227
			c0.15,4.694,0.421,9.387,0.458,14.082c0.011,1.409-0.673,2.812-0.906,4.239c-0.166,1.014-0.528,2.371-0.051,3.027
			c0.678,0.932,2.047,1.36,3.121,2.004c0.542-0.976,1.28-1.896,1.575-2.941c0.365-1.296,0.362-2.696,1.308-4.537
			c0.834,0.921,1.887,1.723,2.466,2.783c3.553,6.503,7.009,13.058,10.46,19.617c0.32,0.609,0.373,1.358,0.664,2.483
			c-1.712-0.207-3.036-0.368-4.75-0.575c-0.87,4.455,0.601,8.454,2.046,12.888c-1.596-0.586-2.78-1.021-4.71-1.73
			c1.009,4.218,3.556,4.647,6.739,4.376c0.145,3.8-2.907,5.223-4.521,7.746c-1.1-0.711-1.959-1.267-3.55-2.296
			c-0.731,2.399-1.628,4.418-1.913,6.519c-0.331,2.439,0.111,4.982-0.227,7.419c-0.253,1.826-1.092,3.613-1.928,5.289
			c-0.227,0.455-1.491,0.775-2.111,0.59c-4.027-1.2-4.347-1.048-5.303,3.138c-0.158,0.694-0.431,1.363-1.439,2.173
			c-0.445-1.558-1.242-3.112-1.264-4.676c-0.049-3.43,0.014-6.911,0.559-10.286c0.511-3.163,0.243-5.911-1.495-8.644
			c-0.919-1.445-1.333-3.21-2.133-5.228c1.72,0,2.708,0,3.697,0c0.136-0.239,0.272-0.478,0.408-0.717
			c-2.271-1.461-4.503-2.996-6.875-4.268c-0.238-0.128-1.596,1.217-1.977,2.08c-1.377,3.116-2.592,6.305-3.789,9.497
			c-0.272,0.725-0.225,1.57-0.325,2.36c0.815,0.08,1.677,0.373,2.437,0.204c5.114-1.132,5.905-0.42,5.05,4.76
			c-0.298,1.804-0.427,3.671-0.999,5.387c-0.872,2.615-2.662,3.086-4.59,1.095c-2.234-2.308-4.217-4.875-6.168-7.437
			c-1.73-2.272-3.713-3.756-6.742-3.742c-0.926,0.004-1.828-0.931-2.792-1.303c-1.121-0.431-2.953-1.33-3.32-0.939
			c-0.838,0.891-1.374,2.47-1.299,3.725c0.132,2.199,0.815,4.364,1.267,6.544c-0.285,0.14-0.571,0.28-0.856,0.42
			c-1.737-3.275-3.475-6.55-5.212-9.825c-0.796,8.666,0.087,16.661,5.747,23.364c0.571,0.676,0.753,1.702,1.045,2.589
			c0.842,2.557,1.648,5.125,2.738,8.533c1.49-1.83,2.254-2.768,3.018-3.707c0.308,0.079,0.616,0.159,0.924,0.238
			c-0.036,3.801-1.175,7.405-2.884,12.038c-1.521-2.013-2.465-3.443-3.599-4.705c-0.882-0.982-2.141-2.571-2.979-2.426
			c-1.228,0.212-2.762,1.534-3.213,2.739c-0.85,2.273-1.027,4.798-1.468,7.221c-0.216,1.188-0.4,2.381-0.754,4.509
			c-4.095-6.775-8.564-12.166-9.778-19.299c-0.136-0.796-1.452-1.957-2.231-1.965c-1.863-0.018-2.55-1.04-2.189-2.389
			c1.544-5.773-3.946-9.634-3.315-15.1c-0.406-0.104-0.813-0.208-1.219-0.312c-0.534,0.905-1.484,1.787-1.532,2.717
			c-0.279,5.319-0.987,10.674,0.629,15.933c0.178,0.578,0.132,1.357-0.11,1.911c-2.23,5.102,0.501,8.094,4.164,11.105
			c1.135,0.933,1.06,3.316,1.58,5.023c0.422,1.383,0.489,3.304,1.44,4.015c2.916,2.183,2.231,4.719,1.15,7.22
			c-2.822,6.526-5.63,13.074-8.865,19.398c-1.36,2.658-3.37,5.027-6.889,5.778c-1.616,0.345-3.149,2.227-4.217,3.762
			c-2.335,3.358-4.433,6.89-6.462,10.446c-1.251,2.193-2.491,3.653-5.17,1.13c-0.407,1.379-0.721,2.374-0.993,3.381
			c-0.595,2.203-0.512,4.757-3.526,5.532c-0.606,0.156-0.978,1.343-1.396,2.089c-1.253,2.239-2.262,4.65-3.759,6.708
			c-2.294,3.154-4.83,6.084-4.476,10.379c0.051,0.623-0.594,1.304-0.937,1.997c-6.548-1.516-5.075-6.484-4.632-10.817
			c-4.162-0.805-6.703,0.706-8.33,4.162c-0.383,0.814-1.22,1.448-1.933,2.068c-2.184,1.899-4.424,3.733-6.613,5.627
			c-1.605,1.389-3.325,2.694-4.692,4.294c-1.141,1.336-1.865,3.034-2.735,4.594c-0.52,0.932-0.963,1.907-1.342,2.666
			c-1.586-1.152-2.874-1.924-3.948-2.925c-0.742-0.69-1.326-1.636-1.739-2.574c-0.688-1.562-1.226-3.196-1.737-4.828
			c-0.218-0.695-0.356-1.479-0.27-2.191c0.137-1.136,0.98-3.05,0.672-3.238c-1.992-1.216-4.204-2.084-6.406-2.898
			c-0.086-0.032-1.32,1.786-1.129,2.507c0.489,1.848,0.687,3.168-1.679,3.582c-2.348,0.411-4.763-0.184-4.459-2.686
			c0.389-3.202-1.284-7.305,2.902-9.482c0.531-0.276,0.788-1.254,0.991-1.959c2.669-9.296,5.35-18.589,7.891-27.919
			c0.31-1.138-0.118-2.501-0.306-3.745c-0.405-2.689-1.003-5.358-1.238-8.06c-0.066-0.756,0.805-1.634,1.335-2.394
			c1.206-1.731,2.713-3.301,3.639-5.165c1.007-2.027,1.462-4.021-2.295-3.68c-1.017,0.092-2.896-1.682-3.204-2.897
			c-0.839-3.302-0.981-6.774-1.528-10.158c-0.448-2.77-1.083-5.509-1.635-8.262c-0.448-0.01-0.895-0.021-1.343-0.031
			c-0.727,2.069-1.455,4.139-2.412,6.864c-0.586-1.265-1.105-1.879-1.125-2.508c-0.194-5.996-0.296-11.995-0.441-17.993
			c-0.069-2.868-0.151-5.736-0.27-8.602c-0.187-4.513-0.339-9.03-0.631-13.537c-0.585-9.013-1.057-18.041-1.99-27.02
			c-0.355-3.416-1.938-6.692-2.766-10.079c-0.226-0.926,0.126-2.067,0.437-3.038c1.644-5.138,3.391-10.242,5.014-15.387
			c0.247-0.785,0.188-1.751,0.003-2.574c-1.921-8.569-3.896-17.125-6.458-25.646c-0.4,3.41-0.8,6.82-1.2,10.23
			c-0.314,0.015-0.628,0.029-0.942,0.044c-0.517-3.488-1.033-6.977-1.558-10.522c-2.377,1.002-6.218-0.606-7.153-2.785
			c-3.656-8.52-7.244-17.071-11-25.547c-1.949-4.398-3.707-9.009-6.446-12.893c-2.76-3.916-6.628-7.052-10.309-10.836
			c-0.661,1.368-1.088,2.249-1.471,3.042c-7.695-2.608-10.988-9.206-14.426-15.578c-0.98-1.818-1.248-4.02-1.4-6.227
			c5.803,3.202,8.16,8.761,10.329,14.728c0.917-0.685,1.327-0.965,1.708-1.28c3.605-2.981,3.74-3.141,0.109-6.278
			c-3.4-2.937-1.622-6.6-2.356-10.758c1.111,1.012,1.636,1.49,2.57,2.341c-0.741-4.066-1.926-7.605-1.927-11.143
			c-0.003-10.072,0.452-20.145,0.816-30.214c0.025-0.703,0.673-1.811,1.228-1.952c0.607-0.154,1.589,0.447,2.151,0.987
			c1.463,1.405,2.786,2.956,4.977,4.292c-0.21-4.765-0.421-9.529-0.631-14.294c0.264-0.04,0.527-0.08,0.791-0.12
			c0.579,1.269,1.157,2.538,1.785,3.916c2.37-3.133,2.694-5.754,0.603-8.076c-4.068-4.518-3.655-9.078-0.432-14.233
			c0.923,2.742,1.758,5.223,2.864,8.508c1.986-5.881-1.769-10.461-1.054-15.249c0.706-4.731,2.06-9.365,2.459-14.302
			c-1.009,2.542-2.017,5.085-3.082,7.769c-5.158-7.21-1.941-26.942,5.603-32.947c3.492,6.632,6.93,13.163,10.521,19.985
			c0.574-1.252,1.155-2.519,1.859-4.056c0.654,0.488,1.252,0.934,1.579,1.179c1.403-1.909,2.499-3.93,4.096-5.414
			c1.432-1.331,2.959-4.431,5.661-0.278c0.315-1.924,0.495-3.031,0.679-4.153c0.183-0.048,0.442-0.202,0.547-0.13
			c5.547,3.806,5.496,3.754,10.674-1.079c1.002-0.935,2.648-1.901,3.856-1.746c2.553,0.327,3.083-1.046,3.809-2.89
			c0.762-1.934,1.935-3.704,2.875-5.572c0.668-1.327,1.247-2.699,1.864-4.051c1.112-2.438,2.223-4.877,3.334-7.316
			c0.354,0.094,0.707,0.189,1.061,0.283c0.207,1.511,0.414,3.023,0.62,4.534c0.247,0.091,0.493,0.181,0.74,0.272
			c1.977-4.289,3.954-8.578,5.93-12.867c0.472,0.118,0.944,0.236,1.417,0.354c-0.308,2.669-0.572,5.345-0.939,8.006
			c-0.308,2.235-1.059,4.458-1.031,6.679c0.036,2.85-0.746,4.712-3.642,5.545c-1.308,0.376-2.492,1.185-3.584,2.083
			c5.715-0.228,10.221-2.885,13.601-7.355c1.876-2.482,3.208-5.369,4.931-7.977c0.723-1.093,1.826-1.934,2.756-2.89
			c0.702,0.981,1.403,1.962,2.6,3.635c1.892-1.095,4.076-2.36,6.436-3.727c0.469,0.765,0.932,1.521,1.432,2.337
			c1.549-2.671,3.141-5.165,4.422-7.809c0.309-0.638-0.35-1.802-0.68-2.68c-0.754-2.007-1.852-3.931-2.269-5.998
			c-0.228-1.134,0.54-2.533,1.042-3.737c1.294-3.107,2.719-6.16,4.017-9.265c0.236-0.564-0.046-1.348,0.197-1.906
			c0.455-1.043,1.12-1.995,1.698-2.984c0.938,0.602,1.898,1.174,2.805,1.82c0.39,0.278,0.672,0.708,1.065,1.137
			c0.218-0.432,0.427-0.744,0.386-0.781c-3.009-2.727-3.793-6.628-5.273-10.137c-0.642-1.522-1.16-3.27-1.084-4.885
			c0.183-3.898-0.23-4.468-4.715-3.801c0.557-2.716,1.151-5.184,1.537-7.685c0.182-1.176,0.408-2.69-0.144-3.58
			c-5.135-8.283-8.801-17.523-15.913-24.543c-0.721-0.711-0.758-2.115-0.645-3.607C300.351,79.079,306.341,82.202,314.073,83.676z
			 M365.255,148.744c0.139-0.518,0.279-1.037,0.418-1.555c-6.359-1.571-13.899-1.367-16.151-10.547
			c3.998-0.189,7.642-0.355,11.284-0.539c0.966-0.049,1.96-0.339,2.888-0.188c1.359,0.221,3.106,0.37,3.857,1.255
			c0.548,0.645-0.26,2.425-0.432,3.703c-0.198,1.472-0.994,3.364-0.371,4.312c0.683,1.039,2.809,1.85,4.089,1.609
			c2.007-0.378,4.563-1.227,5.594-2.751c2.921-4.317,6.135-8.592,6.761-14.119c0.436-3.84-0.749-5.677-4.571-5.622
			c-3.326,0.048-6.647,0.456-9.971,0.698c-1.913,0.139-1.779,1.25-1.561,2.74c0.242,1.653,0.055,3.369,0.055,5.057
			c-1.19-0.511-1.677-1.068-1.918-1.717c-1.233-3.326-2.272-6.73-3.635-10c-1.148-2.754-2.301-2.827-3.914-0.393
			c-1.162,1.754-2.403,2.699-4.553,1.632c-0.628-0.311-1.452-0.373-2.173-0.327c-4.746,0.307-9.484,0.764-14.233,0.996
			c-4.514,0.221-7.031,3.688-6.019,8.11c0.489,2.136,0.397,4.419,0.449,6.639c0.108,4.598-0.144,9.061,3.479,12.949
			c3.523,3.782,7.63,7.308,8.897,12.827c0.287,1.25,1.827,2.294,2.943,3.256c3.626,3.127,7.752,1.511,11.767,1.162
			c7.009-0.609,10.444-3.934,10.681-10.84c0.031-0.896-0.946-2.435-1.73-2.642c-3.063-0.81-6.217-1.383-9.373-1.709
			c-3.713-0.383-7.468-0.339-11.188-0.677c-0.677-0.061-1.268-1.068-1.899-1.638c0.699-0.586,1.32-1.354,2.123-1.698
			c0.626-0.268,1.477,0.012,2.229,0.013C354.471,148.747,359.863,148.744,365.255,148.744z M358.188,218.234
			c0.056-0.072-0.175,0.224-0.689,0.882c0.397-2.432,0.151-4.823,1.175-6.375c2.051-3.108,0.975-5.697-0.685-8.066
			c-1.683-2.401-1.365-4.608-1.11-7.285c0.534-5.601,0.496-11.277,0.296-16.908c-0.033-0.933-2.021-1.888-3.229-2.632
			c-0.352-0.217-1.132,0.262-1.716,0.423c0.395,1.027,0.896,2.028,1.157,3.088c0.321,1.304,0.793,2.719,0.574,3.977
			c-0.452,2.599-1.719,5.095-1.918,7.69c-0.264,3.457,0.27,6.968,0.287,10.456c0.058,11.751-0.278,23.514,0.137,35.252
			c0.415,11.731-1.709,23.542,1.584,35.225c1.191,4.227,0.698,8.917,1.082,13.386c0.236,2.747,0.679,5.476,1.029,8.212
			c0.409-0.03,0.818-0.059,1.227-0.089c0-3.516-0.024-7.033,0.004-10.549C357.568,262.574,356.835,240.208,358.188,218.234z
			 M370.943,194.003c-1.132,0.958-2.507,1.55-2.593,2.291c-0.442,3.82-0.76,7.686-0.617,11.517c0.03,0.818,2.127,2.101,3.318,2.155
			c0.902,0.041,2.302-1.362,2.725-2.423c0.703-1.766,0.641-3.821,1.183-5.671c1.378-4.696,0.634-8.196-2.896-11.903
			c0.212,2.656,0.408,5.109,0.635,7.955C372.097,196.58,371.666,195.617,370.943,194.003z M276.884,349.653
			c0.362-0.175,0.724-0.351,1.086-0.526c-0.511-4.038-0.79-8.125-1.638-12.09c-0.375-1.755-1.629-3.582-3.009-4.763
			c-0.778-0.665-2.755-0.407-3.934,0.071c-0.618,0.251-1.254,2.182-0.905,2.824C271.148,340.07,274.053,344.841,276.884,349.653z
			 M401.231,227.18c-0.541,1.998,2.445,8.758,4.026,9.039c0.504,0.09,1.579-0.516,1.651-0.932c0.385-2.236,0.674-4.535-1.917-5.873
			C403.775,228.788,402.633,228.02,401.231,227.18z M375.505,100.916c-0.279,0.338-0.558,0.676-0.837,1.014
			c1.791,1.157,3.453,2.71,5.413,3.354c1.727,0.567,3.787,0.119,6.059,0.119C383.44,101.12,379.132,101.858,375.505,100.916z
			 M302.268,258.991c0.905-1.735,1.907-3.437,2.675-5.238c0.292-0.686,0.36-1.861-0.039-2.333c-0.375-0.444-1.546-0.47-2.286-0.309
			C299.641,251.757,299.479,256.096,302.268,258.991z M404.624,240.978c-0.442-0.128-0.884-0.255-1.326-0.383
			c-0.39,1.325-1.005,2.639-1.072,3.981c-0.031,0.636,0.986,1.324,1.529,1.988c0.407-0.724,1.076-1.42,1.16-2.18
			C405.038,243.273,404.742,242.116,404.624,240.978z M327.503,113.383c-0.615-0.123-1.229-0.246-1.844-0.37
			c-0.232,1.289-0.464,2.579-0.696,3.868c0.584,0.07,1.647,0.289,1.68,0.186C327.02,115.867,327.241,114.619,327.503,113.383z
			 M400.47,266.167c-0.533-0.24-1.067-0.481-1.6-0.721c-0.791,1.742-1.581,3.484-2.372,5.226c0.45,0.211,0.899,0.422,1.349,0.633
			C398.721,269.592,399.595,267.88,400.47,266.167z M373.08,80.203c-0.32,0.189-0.641,0.378-0.962,0.568
			c0.396,0.728,0.657,1.911,1.22,2.078c0.893,0.266,1.987-0.148,2.997-0.274c-0.036-0.334-0.072-0.667-0.109-1.001
			C375.178,81.117,374.129,80.66,373.08,80.203z"/>
		<path d="M319.97,606.183c4.73-3.055,10.116-5.869,14.679-9.67c4.527-3.771,8.225-8.537,12.77-13.382
			c1.037,5.296,4.429,2.087,6.846,2.856c-0.251,3.097-2.059,4.739-4.587,6.07c-2.03,1.069-3.839,2.562-5.73,3.888
			c-0.348,0.244-0.605,0.828-0.936,0.854c-4.243,0.331-5.587,3.645-7.517,6.674c-1.13,1.772-3.309,3.042-5.257,4.09
			c-3.532,1.899-6.234,4.212-7.869,8.118c-1.016,2.43-3.435,4.288-5.303,6.33c-0.274,0.3-0.987,0.272-1.497,0.27
			c-1.36-0.005-3.204-0.667-3.995-0.019c-2.925,2.397-6.722,4.178-7.525,8.47c-0.899,4.81-6.341,9.464-10.959,10.599
			c-2.702,0.664-5.132,2.815-7.43,4.621c-2.002,1.573-3.764,3.502-5.422,5.452c-2.332,2.744-4.489,5.639-6.685,8.497
			c-1.828,2.379-2.911,5.74-7.122,4.72c-0.483-0.117-1.428,1.443-2.074,2.289c-0.779,1.021-1.468,2.111-2.196,3.172
			c-0.627-0.96-1.206-1.957-1.895-2.871c-0.79-1.049-1.676-2.024-2.521-3.032c-0.84,1.004-2.211,1.907-2.424,3.029
			c-0.803,4.227-2.662,6.873-7.401,6.829c-0.793-0.007-1.671,1.211-2.382,1.981c-1.744,1.886-3.185,4.13-5.168,5.701
			c-3.006,2.381-4.78,1.726-5.345-2.016c-0.426-2.822-0.042-5.77,0.035-8.661c0.032-1.184,0.314-2.367,0.278-3.545
			c-0.027-0.899-0.376-1.788-0.582-2.682c-0.861,0.276-1.823,0.394-2.561,0.864c-1.329,0.846-2.523,1.902-4.492,2.488
			c0.292-1,0.65-1.986,0.864-3.003c0.532-2.531,2.692-5.332-1.123-7.225c-0.3-0.149-0.534-0.726-0.548-1.113
			c-0.236-6.295-2.402-12.804,2.632-18.465c1.091-1.227,1.01-3.459,1.6-5.183c0.457-1.337,1.119-2.604,1.786-4.121
			c3.649,3.903,7.541,4.504,11.295,1.523c1.406-1.117,1.952-3.417,2.684-5.259c1.014-2.55,1.69-5.133,5.377-2.777
			c1.381,0.883,5.261-2.388,6.113-4.259c1.5-3.296,3.111-6.593,5.142-9.572c0.903-1.325,2.895-1.974,4.496-2.703
			c0.345-0.157,1.362,0.528,1.681,1.058c1.432,2.386,2.59,1.642,3.859-0.127c0.776-1.081,1.691-2.062,2.55-3.095
			c0.472,0.403,0.781,0.617,0.76,0.658c-2.877,5.509,0.996,10.57,1,15.868c0.001,1.8-0.623,3.601-1.072,5.989
			c-1.301-1.07-1.917-1.578-2.877-2.367c-2.992,5.2-3.306,10.84-4.558,16.227c0.367,0.247,0.734,0.493,1.101,0.74
			c0.37-1.012,0.739-2.023,1.109-3.035c0.435,0.182,0.87,0.364,1.306,0.546c0.496,1.88,0.991,3.761,1.583,6.006
			c2.106-2.444,4.415-4.54,6.007-7.086c3.901-6.239,9.569-11.477,10.949-19.2c0.276-1.543,1.379-2.938,2.1-4.402
			c0.264,0.089,0.528,0.178,0.792,0.268c0,1.191,0,2.382,0,3.543c5.821,0.619,11.724-5.783,11.113-11.428
			c-0.386-3.566,3.088-3.414,5.247-3.984c1.69-0.446,3.787-0.352,5.413,0.266C317.444,602.974,318.388,604.596,319.97,606.183z
			 M313.669,617.98c-1.368-0.885-2.374-1.922-2.781-1.724c-1.021,0.495-1.771,1.549-2.63,2.379c0.782,0.381,1.598,1.121,2.337,1.051
			C311.457,619.603,312.251,618.812,313.669,617.98z"/>
		<path d="M86.17,727.381c-2.664-3.544-2.367-13.035,0.535-17.115c3.009-4.23,8.792-5.913,14.225-4.14
			c4.768,1.556,8.915,4.39,14.813,10.205c2.455-2.082,5.079-4.052,7.372-6.352c1.299-1.303,2-3.184,3.065-4.741
			c2.649-3.873,6.659-4.274,10.861-4.167c1.603,0.041,3.208,0.007,4.978,0.007c-1.868,1.352-3.461,2.506-5.167,3.742
			c-0.053-0.195-0.217-0.799-0.432-1.591c-0.233,0.29-0.549,0.509-0.53,0.692c0.057,0.553,0.293,1.577,0.375,1.569
			c4.913-0.487,9.908,2.559,14.756-0.296c1.549-0.912,2.946-0.164,5.662,3.146c-0.594,0.097-1.067,0.179-1.543,0.251
			c-0.501,0.075-1.002,0.141-2.008,0.281c4.475,3.493,9.28,4.056,14.715,4.099c-3.402,2.077-6.444,2.306-9.651,1.272
			c-4.515-1.457-9.095-2.736-13.543-4.373c-2.838-1.044-5.268-0.583-7.643,0.96c-1.807,1.174-3.616,2.364-5.311,3.691
			c-2.15,1.684-2.007,3.642,0.522,4.705c3.271,1.375,6.727,2.302,10.047,3.57c1.708,0.653,3.276,1.664,4.943,2.435
			c0.461,0.213,1.104,0.32,1.574,0.179c3.613-1.082,7.489,0.104,11.019-1.156c4.034-1.44,8.141-2.867,11.873-4.921
			c10.82-5.957,21.324-12.501,32.246-18.255c5.278-2.781,11.212-4.319,16.861-6.385c0.365-0.133,0.84,0.037,1.241,0.064
			c1.006,3.449-0.906,4.735-3.727,5.895c-15.696,6.454-28.828,16.787-41.041,28.242c-12.577,11.796-13.903,12.903-29.055,16.466
			c-0.303,1.16-0.605,2.32-0.877,3.362c1.822,2.077,3.605,4.11,5.389,6.144c-0.176,0.411-0.352,0.822-0.527,1.233
			c-2.316-0.167-4.63-0.382-6.949-0.484c-1.478-0.065-2.97-0.046-4.443,0.081c-2.564,0.221-5.113,0.664-7.679,0.777
			c-0.811,0.036-2.179-0.531-2.349-1.103c-0.201-0.677,0.511-1.727,1.016-2.491c1.015-1.533,2.158-2.981,3.249-4.465
			c0.206,0.195,0.412,0.389,0.618,0.584c-0.327-1.166-0.654-2.332-1.012-3.609c-12.463-1.174-24.466-4.446-36.144-8.972
			c-2.401-0.93-4.917-1.855-6.948-3.363c-2.103-1.562-3.681-3.831-5.489-5.791c1.856,0.411,3.814,1.422,5.548,1.126
			c6.308-1.08,12.433-3.595,18.94-1.547c0.626-1.463,1.075-2.548,1.552-3.621c2.039-4.577,2.2-4.79-1.793-7.739
			c-3.415-2.522-7.094-4.815-10.945-6.577c-3.174-1.452-10.788,2.24-11.356,5.234C87.177,718.511,86.762,722.963,86.17,727.381z
			 M200.039,707.939c-0.086-0.126-0.172-0.252-0.259-0.379c-13.834,8.659-27.669,17.318-41.198,25.786
			c0.72-0.057,2.208,0.179,3.366-0.332c3.54-1.563,7.179-3.079,10.368-5.224c6.434-4.329,12.585-9.076,18.875-13.622
			C194.115,712.056,197.089,710.014,200.039,707.939z M126.051,711.461c3.028,1.279,5.704,0.299,8.233-2.826
			C131.31,708.79,128.151,708.003,126.051,711.461z"/>
		<path d="M250.22,403.901c-7.307-2.52-8.965-8.771-11.647-14.673c-6.173-13.579-10.494-28.003-18.451-40.773
			c-1.071-1.719-1.399-3.52,0.536-4.644c3.926,8.372,8.752,16.005,13.405,23.751c3.589,5.975,6.987,12.097,9.985,18.385
			c2.487,5.218,4.288,10.765,6.327,16.191C250.563,402.642,250.281,403.323,250.22,403.901z"/>
		<path d="M334.514,67.463c1.861-1.526,3.786-2.983,5.557-4.608c0.864-0.793,2.248-2.206,2.017-2.815
			c-1.446-3.809,0.759-6.293,3.024-8.462c2.351-2.251,3.249-4.473,2.626-7.73c-0.858-4.485,1.827-7.769,5.603-7.545
			c1.863,0.111,2.845,0.923,2.676,2.823c-0.249,2.784-0.835,5.331-4.168,6.083c-0.579,0.131-1.229,0.831-1.472,1.422
			c-1.503,3.661-2.919,7.359-4.326,11.059c-1.817,4.779-6.506,9.281-10.983,10.491C334.884,67.942,334.699,67.702,334.514,67.463z"
			/>
		<path d="M438.274,330.96c-0.482,1.27-1.115,3.429-2.107,5.407c-0.958,1.909-2.19,3.707-3.503,5.397
			c-0.505,0.65-1.609,1.253-2.365,1.172c-0.746-0.08-1.769-0.918-2.031-1.652c-1.826-5.121,0.885-11.292,5.987-13.976
			C436.011,326.385,438.169,327.853,438.274,330.96z"/>
		<path d="M401.466,69.34c-5.555,3.243-6.005,9.196-7.662,14.741c-3.699-3.708-3.889-4.617-0.968-7.864
			c2.415-2.684,5.198-5.037,7.818-7.536C400.925,68.901,401.196,69.12,401.466,69.34z"/>
		<path d="M139.886,695.888c0.131,1.243,0.242,2.297,0.434,4.121c0.91-1.941,1.503-3.208,2.138-4.563
			c2.958,1.215,1.116,3.194,0.359,3.623c-1.477,0.838-3.84,1.672-5.02,1.023c-1.092-0.601-3.484-2.842-0.703-5.066
			C138.059,695.323,139.053,695.63,139.886,695.888z"/>
		<path d="M232.048,606.433c-0.866,3.598,1.195,8.093-3.209,10.836C227.847,614.315,229.155,609.534,232.048,606.433z"/>
		<path d="M154.585,758.511c-8.054,0-16.108,0-24.162,0c-0.004-0.081-0.009-0.162-0.013-0.243c8.08,0,16.16,0,24.241,0
			C154.628,758.349,154.606,758.43,154.585,758.511z"/>
		<path d="M359.504,68.129c-0.881-2.118-1.62-3.676-2.144-5.304c-0.132-0.409,0.305-1.304,0.706-1.489
			c0.355-0.164,1.262,0.197,1.51,0.589C360.667,63.647,361.271,65.477,359.504,68.129z"/>
		<path d="M337.414,608.453c1.026-2.077,1.98-4.008,2.969-6.011C342.008,605.656,340.95,607.917,337.414,608.453z"/>
		<path fill="#FFFFFF" d="M365.255,148.744c-5.392,0-10.784,0.003-16.176-0.003c-0.751-0.001-1.603-0.281-2.229-0.013
			c-0.803,0.344-1.424,1.113-2.123,1.698c0.631,0.57,1.222,1.577,1.899,1.638c3.719,0.338,7.475,0.293,11.188,0.677
			c3.155,0.326,6.31,0.898,9.373,1.709c0.784,0.207,1.761,1.747,1.73,2.642c-0.237,6.906-3.672,10.231-10.681,10.84
			c-4.015,0.349-8.141,1.965-11.767-1.162c-1.116-0.962-2.656-2.006-2.943-3.256c-1.266-5.519-5.373-9.045-8.897-12.827
			c-3.623-3.889-3.37-8.352-3.479-12.949c-0.052-2.219,0.039-4.502-0.449-6.639c-1.012-4.422,1.505-7.889,6.019-8.11
			c4.749-0.232,9.487-0.69,14.233-0.996c0.72-0.047,1.545,0.015,2.173,0.327c2.15,1.067,3.391,0.122,4.553-1.632
			c1.613-2.434,2.766-2.361,3.914,0.393c1.363,3.27,2.402,6.674,3.635,10c0.241,0.649,0.728,1.206,1.918,1.717
			c0-1.688,0.187-3.404-0.055-5.057c-0.218-1.49-0.353-2.601,1.561-2.74c3.324-0.242,6.645-0.65,9.971-0.698
			c3.822-0.055,5.007,1.781,4.571,5.622c-0.627,5.527-3.841,9.802-6.761,14.119c-1.031,1.524-3.587,2.373-5.594,2.751
			c-1.28,0.241-3.406-0.57-4.089-1.609c-0.623-0.948,0.173-2.84,0.371-4.312c0.172-1.278,0.98-3.058,0.432-3.703
			c-0.751-0.885-2.497-1.034-3.857-1.255c-0.927-0.151-1.921,0.139-2.888,0.188c-3.643,0.184-7.286,0.35-11.284,0.539
			c2.251,9.18,9.792,8.976,16.151,10.547C365.534,147.707,365.394,148.226,365.255,148.744z M352.276,157.483
			c2.082,3.242,4.651,3.598,7.361,2.834c0.738-0.208,1.246-1.235,1.859-1.886c-0.713-0.559-1.429-1.593-2.139-1.589
			C356.995,156.855,354.636,157.24,352.276,157.483z M354.789,130.728c-2.671-1.246-4.384,0.442-4.655,3.842
			C351.478,133.461,352.991,132.211,354.789,130.728z"/>
		<path fill="#FFFFFF" d="M358.188,218.234c-1.354,21.974-0.62,44.34-0.795,66.687c-0.027,3.516-0.004,7.033-0.004,10.549
			c-0.409,0.03-0.818,0.059-1.227,0.089c-0.35-2.737-0.793-5.466-1.029-8.212c-0.384-4.469,0.109-9.16-1.082-13.386
			c-3.293-11.683-1.169-23.495-1.584-35.225c-0.415-11.737-0.079-23.5-0.137-35.252c-0.017-3.488-0.551-6.999-0.287-10.456
			c0.198-2.595,1.465-5.091,1.918-7.69c0.219-1.258-0.253-2.673-0.574-3.977c-0.261-1.06-0.762-2.061-1.157-3.088
			c0.584-0.16,1.364-0.639,1.716-0.423c1.208,0.744,3.196,1.699,3.229,2.632c0.2,5.631,0.239,11.307-0.296,16.908
			c-0.255,2.678-0.573,4.885,1.11,7.285c1.66,2.369,2.736,4.958,0.685,8.066c-1.024,1.552-0.778,3.943-1.175,6.375
			C358.013,218.458,358.244,218.162,358.188,218.234z"/>
		<path fill="#FFFFFF" d="M370.943,194.003c0.722,1.614,1.153,2.577,1.755,3.921c-0.227-2.846-0.423-5.299-0.635-7.955
			c3.53,3.707,4.274,7.207,2.896,11.903c-0.543,1.85-0.48,3.904-1.183,5.671c-0.422,1.061-1.823,2.464-2.725,2.423
			c-1.191-0.055-3.288-1.338-3.318-2.155c-0.143-3.831,0.174-7.697,0.617-11.517C368.436,195.553,369.811,194.961,370.943,194.003z"
			/>
		<path fill="#FFFFFF" d="M276.884,349.653c-2.83-4.812-5.735-9.583-8.4-14.484c-0.349-0.642,0.287-2.573,0.905-2.824
			c1.179-0.478,3.157-0.737,3.934-0.071c1.38,1.181,2.634,3.007,3.009,4.763c0.848,3.966,1.127,8.053,1.638,12.09
			C277.608,349.302,277.246,349.477,276.884,349.653z"/>
		<path fill="#FFFFFF" d="M401.231,227.18c1.402,0.84,2.544,1.607,3.759,2.235c2.591,1.338,2.302,3.637,1.917,5.873
			c-0.071,0.415-1.147,1.021-1.651,0.932C403.676,235.939,400.69,229.179,401.231,227.18z"/>
		<path fill="#FFFFFF" d="M375.505,100.916c3.627,0.942,7.935,0.204,10.636,4.487c-2.272,0-4.332,0.448-6.059-0.119
			c-1.96-0.644-3.622-2.196-5.413-3.354C374.948,101.592,375.227,101.254,375.505,100.916z"/>
		<path fill="#FFFFFF" d="M302.268,258.991c-2.789-2.895-2.626-7.234,0.35-7.88c0.74-0.161,1.91-0.135,2.286,0.309
			c0.399,0.472,0.331,1.648,0.039,2.333C304.174,255.554,303.173,257.255,302.268,258.991z"/>
		<path fill="#FFFFFF" d="M404.624,240.978c0.118,1.137,0.415,2.295,0.292,3.405c-0.084,0.76-0.753,1.456-1.16,2.18
			c-0.542-0.664-1.56-1.352-1.529-1.988c0.066-1.341,0.682-2.655,1.072-3.981C403.74,240.723,404.182,240.851,404.624,240.978z"/>
		<path fill="#FFFFFF" d="M327.503,113.383c-0.262,1.236-0.483,2.484-0.86,3.684c-0.033,0.104-1.096-0.116-1.68-0.186
			c0.232-1.289,0.464-2.579,0.696-3.868C326.274,113.137,326.888,113.26,327.503,113.383z"/>
		<path fill="#FFFFFF" d="M400.47,266.167c-0.874,1.713-1.749,3.426-2.623,5.139c-0.45-0.211-0.899-0.422-1.349-0.633
			c0.791-1.742,1.581-3.484,2.372-5.226C399.403,265.686,399.936,265.926,400.47,266.167z"/>
		<path fill="#FFFFFF" d="M373.08,80.203c1.049,0.457,2.098,0.913,3.147,1.37c0.036,0.334,0.072,0.667,0.109,1.001
			c-1.009,0.126-2.104,0.54-2.997,0.274c-0.563-0.167-0.824-1.351-1.22-2.078C372.439,80.582,372.76,80.392,373.08,80.203z"/>
		<path fill="#FFFFFF" d="M313.669,617.98c-1.418,0.832-2.212,1.623-3.074,1.705c-0.739,0.071-1.555-0.669-2.337-1.051
			c0.859-0.83,1.609-1.884,2.63-2.379C311.295,616.059,312.301,617.095,313.669,617.98z"/>
		<path fill="#FFFFFF" d="M86.17,727.381c0.592-4.418,1.007-8.87,1.837-13.243c0.568-2.994,8.182-6.686,11.356-5.234
			c3.851,1.762,7.53,4.056,10.945,6.577c3.993,2.948,3.831,3.162,1.793,7.739c-0.478,1.073-0.927,2.159-1.552,3.621
			c-6.507-2.049-12.632,0.467-18.94,1.547c-1.734,0.297-3.692-0.715-5.548-1.126C86.061,727.263,86.17,727.381,86.17,727.381z"/>
		<path fill="#FFFFFF" d="M200.039,707.939c-2.951,2.074-5.925,4.117-8.848,6.229c-6.29,4.545-12.441,9.292-18.875,13.622
			c-3.189,2.146-6.828,3.661-10.368,5.224c-1.158,0.512-2.646,0.275-3.366,0.332c13.529-8.468,27.364-17.127,41.198-25.786
			C199.867,707.687,199.953,707.813,200.039,707.939z"/>
		<path fill="#FFFFFF" d="M126.051,711.461c2.1-3.457,5.259-2.67,8.233-2.826C131.755,711.759,129.079,712.739,126.051,711.461z"/>
		<path d="M352.276,157.483c2.36-0.242,4.719-0.628,7.081-0.641c0.71-0.004,1.426,1.03,2.139,1.589
			c-0.613,0.651-1.121,1.678-1.859,1.886C356.927,161.081,354.358,160.725,352.276,157.483z"/>
		<path d="M354.789,130.728c-1.797,1.483-3.311,2.733-4.655,3.842C350.405,131.17,352.117,129.482,354.789,130.728z"/>
	</g>
</g>
</svg>
