<svg xmlns="http://www.w3.org/2000/svg" width="612" height="792" viewBox="0 0 612 792"><path fill="#fff" d="M613.265 805.608H.677V.678h612.588v804.93zM86.17 727.38l-.11-.117c1.808 1.96 3.386 4.23 5.49 5.79 2.03 1.51 4.547 2.434 6.947 3.364 11.678 4.526 23.68 7.798 36.144 8.972.36 1.276.686 2.442 1.013 3.608l-.618-.584c-1.09 1.483-2.234 2.93-3.25 4.465-.504.762-1.216 1.813-1.015 2.49.17.572 1.538 1.14 2.35 1.103 2.565-.112 5.114-.556 7.678-.777 1.473-.127 2.966-.146 4.443-.08 2.32.1 4.634.316 6.95.483l.527-1.234-5.39-6.144.878-3.36c15.152-3.565 16.477-4.672 29.055-16.468 12.213-11.454 25.345-21.787 41.04-28.242 2.822-1.16 4.733-2.446 3.728-5.895-.4-.027-.877-.197-1.24-.064-5.65 2.066-11.585 3.604-16.862 6.385-10.922 5.755-21.426 12.298-32.246 18.255-3.732 2.055-7.84 3.48-11.873 4.92-3.53 1.26-7.406.075-11.02 1.157-.47.14-1.112.034-1.573-.18-1.667-.77-3.236-1.78-4.943-2.434-3.32-1.27-6.775-2.195-10.046-3.57-2.53-1.063-2.673-3.022-.522-4.705 1.695-1.326 3.503-2.516 5.31-3.69 2.375-1.543 4.806-2.004 7.644-.96 4.448 1.637 9.028 2.916 13.543 4.373 3.205 1.035 6.248.805 9.65-1.272-5.436-.042-10.24-.605-14.715-4.098 1.005-.14 1.507-.206 2.008-.28.475-.073.95-.155 1.543-.252-2.717-3.31-4.113-4.058-5.662-3.146-4.848 2.855-9.843-.192-14.756.296-.082.008-.318-1.016-.375-1.57-.02-.183.297-.4.53-.69l.432 1.59 5.167-3.742c-1.77 0-3.375.034-4.978-.007-4.202-.106-8.21.295-10.86 4.168-1.066 1.556-1.767 3.438-3.066 4.74-2.293 2.3-4.917 4.27-7.372 6.353-5.9-5.814-10.046-8.648-14.813-10.204-5.433-1.773-11.216-.09-14.225 4.14-2.905 4.08-3.202 13.57-.538 17.115zM314.073 83.677c-7.732-1.474-13.722-4.596-19.37-9.055-.112 1.494-.075 2.897.646 3.608 7.11 7.02 10.777 16.26 15.912 24.543.552.892.325 2.406.144 3.58-.386 2.502-.98 4.97-1.537 7.686 4.485-.667 4.897-.097 4.714 3.8-.076 1.616.443 3.364 1.084 4.886 1.48 3.51 2.264 7.41 5.273 10.137.042.036-.168.348-.385.78-.394-.43-.675-.86-1.065-1.137-.907-.646-1.867-1.218-2.805-1.82-.578.99-1.243 1.94-1.698 2.984-.243.558.04 1.342-.197 1.906-1.298 3.106-2.723 6.158-4.017 9.265-.5 1.204-1.27 2.603-1.042 3.737.417 2.067 1.516 3.992 2.27 5.998.33.878.988 2.042.68 2.68-1.28 2.645-2.873 5.138-4.422 7.81l-1.432-2.338-6.436 3.727-2.6-3.635c-.93.956-2.034 1.797-2.756 2.89-1.724 2.607-3.055 5.495-4.93 7.977-3.38 4.47-7.887 7.127-13.602 7.355 1.092-.898 2.275-1.708 3.584-2.084 2.896-.832 3.678-2.694 3.642-5.545-.028-2.22.723-4.442 1.03-6.678.368-2.66.63-5.337.94-8.006l-1.417-.354c-1.976 4.29-3.953 8.578-5.93 12.867-.246-.092-.492-.182-.74-.273l-.62-4.534c-.353-.094-.706-.19-1.06-.283-1.11 2.44-2.222 4.877-3.334 7.316-.617 1.353-1.197 2.724-1.864 4.05-.94 1.87-2.113 3.64-2.875 5.573-.726 1.842-1.256 3.216-3.81 2.89-1.206-.156-2.853.81-3.855 1.745-5.178 4.833-5.126 4.885-10.674 1.08-.104-.073-.363.08-.547.13l-.678 4.152c-2.702-4.153-4.23-1.053-5.66.278-1.597 1.483-2.694 3.505-4.097 5.414l-1.58-1.18-1.858 4.056-10.52-19.985c-7.545 6.006-10.762 25.738-5.604 32.948l3.082-7.77c-.4 4.938-1.753 9.572-2.46 14.303-.713 4.79 3.04 9.37 1.055 15.25l-2.864-8.508c-3.223 5.154-3.636 9.715.432 14.233 2.09 2.322 1.767 4.943-.603 8.076l-1.785-3.915-.79.12.63 14.294c-2.19-1.337-3.513-2.888-4.977-4.293-.562-.54-1.544-1.14-2.15-.987-.556.14-1.203 1.25-1.23 1.952-.363 10.07-.82 20.142-.815 30.214 0 3.538 1.186 7.077 1.927 11.143l-2.57-2.342c.734 4.158-1.044 7.82 2.356 10.758 3.632 3.138 3.497 3.297-.108 6.278-.38.315-.79.595-1.708 1.28-2.17-5.967-4.526-11.526-10.33-14.728.153 2.206.42 4.41 1.4 6.227 3.438 6.373 6.732 12.97 14.427 15.578l1.472-3.04c3.68 3.783 7.548 6.92 10.31 10.835 2.737 3.884 4.496 8.495 6.445 12.893 3.756 8.476 7.344 17.027 11 25.547.935 2.18 4.775 3.787 7.153 2.785.525 3.546 1.04 7.034 1.558 10.522l.942-.044 1.2-10.23c2.562 8.52 4.538 17.077 6.458 25.646.184.823.244 1.79-.003 2.574-1.623 5.144-3.37 10.25-5.014 15.387-.31.97-.662 2.112-.436 3.038.828 3.387 2.41 6.663 2.766 10.08.933 8.978 1.405 18.006 1.99 27.02.292 4.506.445 9.022.63 13.536.12 2.865.202 5.733.27 8.6.146 6 .248 11.998.442 17.994.02.63.54 1.243 1.125 2.508l2.412-6.864 1.342.03c.552 2.754 1.187 5.493 1.635 8.263.548 3.385.69 6.857 1.528 10.16.31 1.215 2.188 2.99 3.204 2.896 3.756-.34 3.3 1.653 2.294 3.68-.926 1.864-2.433 3.434-3.64 5.165-.53.76-1.4 1.64-1.334 2.395.236 2.702.833 5.37 1.238 8.06.187 1.244.616 2.607.306 3.745-2.54 9.33-5.222 18.624-7.89 27.92-.203.704-.46 1.682-.992 1.958-4.186 2.177-2.513 6.28-2.902 9.482-.304 2.502 2.11 3.097 4.46 2.686 2.365-.414 2.167-1.734 1.678-3.582-.19-.72 1.043-2.54 1.13-2.507 2.2.814 4.413 1.682 6.405 2.898.308.188-.536 2.1-.672 3.238-.085.712.053 1.496.27 2.19.512 1.633 1.05 3.267 1.738 4.83.413.937.997 1.883 1.74 2.573 1.074 1 2.36 1.772 3.947 2.925.38-.757.823-1.732 1.342-2.665.87-1.56 1.593-3.258 2.735-4.594 1.367-1.6 3.087-2.904 4.692-4.293 2.188-1.894 4.43-3.728 6.613-5.627.713-.62 1.55-1.254 1.933-2.068 1.626-3.456 4.167-4.967 8.33-4.162-.444 4.333-1.916 9.3 4.632 10.817.342-.693.988-1.374.937-1.997-.355-4.295 2.18-7.225 4.475-10.38 1.497-2.057 2.506-4.468 3.76-6.707.417-.746.788-1.933 1.395-2.09 3.014-.774 2.93-3.33 3.526-5.53.272-1.008.586-2.003.993-3.382 2.678 2.523 3.918 1.064 5.17-1.13 2.027-3.555 4.126-7.088 6.46-10.445 1.07-1.535 2.6-3.417 4.218-3.762 3.52-.75 5.53-3.12 6.89-5.778 3.234-6.324 6.042-12.872 8.864-19.398 1.08-2.5 1.767-5.038-1.15-7.22-.95-.712-1.018-2.632-1.44-4.015-.52-1.707-.446-4.09-1.58-5.023-3.662-3.012-6.393-6.004-4.164-11.106.242-.554.288-1.333.11-1.91-1.615-5.26-.907-10.615-.63-15.934.05-.93 1-1.813 1.533-2.717l1.22.312c-.63 5.466 4.86 9.327 3.315 15.1-.36 1.35.325 2.37 2.19 2.39.778.007 2.094 1.168 2.23 1.964 1.215 7.132 5.683 12.523 9.778 19.298.354-2.127.538-3.32.754-4.51.442-2.422.62-4.948 1.468-7.22.45-1.205 1.985-2.527 3.213-2.74.838-.144 2.096 1.445 2.98 2.427 1.132 1.262 2.077 2.692 3.598 4.705 1.71-4.633 2.848-8.237 2.884-12.038-.308-.08-.616-.16-.924-.238l-3.018 3.707c-1.09-3.407-1.896-5.976-2.738-8.532-.292-.887-.474-1.912-1.045-2.59-5.66-6.7-6.543-14.697-5.747-23.363l5.212 9.825.856-.42c-.452-2.18-1.135-4.345-1.267-6.544-.076-1.255.46-2.834 1.298-3.725.367-.39 2.2.51 3.32.94.964.37 1.866 1.307 2.792 1.303 3.03-.014 5.01 1.47 6.742 3.742 1.95 2.562 3.934 5.13 6.168 7.437 1.928 1.992 3.718 1.52 4.59-1.095.572-1.716.7-3.583 1-5.387.854-5.18.062-5.892-5.05-4.76-.76.168-1.623-.125-2.438-.204.1-.79.053-1.634.325-2.36 1.197-3.192 2.412-6.38 3.79-9.497.38-.864 1.738-2.21 1.976-2.08 2.372 1.27 4.604 2.806 6.875 4.267l-.408.717h-3.697c.8 2.018 1.214 3.784 2.133 5.228 1.74 2.733 2.006 5.48 1.495 8.644-.544 3.375-.607 6.856-.558 10.286.022 1.564.82 3.118 1.264 4.676 1.008-.81 1.28-1.48 1.44-2.173.954-4.185 1.274-4.337 5.302-3.138.62.185 1.883-.135 2.11-.59.838-1.675 1.676-3.463 1.93-5.29.337-2.436-.104-4.98.226-7.418.285-2.103 1.182-4.12 1.913-6.52 1.59 1.03 2.45 1.585 3.55 2.296 1.615-2.523 4.666-3.946 4.52-7.746-3.182.27-5.728-.158-6.738-4.376 1.93.71 3.113 1.144 4.71 1.73-1.446-4.435-2.917-8.433-2.047-12.888l4.75.575c-.29-1.124-.344-1.873-.664-2.482-3.45-6.558-6.908-13.114-10.46-19.617-.58-1.06-1.633-1.86-2.467-2.782-.946 1.84-.943 3.24-1.308 4.537-.294 1.045-1.033 1.965-1.575 2.94-1.074-.643-2.443-1.07-3.12-2.003-.48-.656-.116-2.012.05-3.027.233-1.427.917-2.83.906-4.24-.037-4.694-.308-9.386-.458-14.08-.013-.41.085-.92.328-1.228 2.07-2.606 1.18-5.282.315-8-.322-1.013-.444-2.09-.598-2.848l9.212 1.813-1.36-29.343 4.752 1.724c.128-1.85.22-3.7.393-5.546.436-4.652.91-9.3 1.37-13.95l1.134-.325c.745 1.334 1.49 2.67 2.272 4.066 1.53-1.657 3.04-3.437 4.706-5.057 2.27-2.206 5.24-3.335 7.863-4.908 5.197-3.12 8.237-8.84 8.56-14.87.186-3.445.595-6.37 2.072-9.454.985-2.056 2.556-5.047-1.69-6.122-.532-.134-1.27-1.49-1.102-2.02 1.326-4.176 1.872-9.13 4.538-12.226 4.106-4.77 6.67-9.602 7.03-15.82.137-2.39.17-5.47 1.59-6.95 2.476-2.578 1.84-4.995 1.964-8.265-1.45 2.597-2.27 4.725-3.68 6.335-.765.87-2.54.854-3.857 1.238-.283-1.353-.826-2.713-.79-4.058.063-2.445.425-4.887.75-7.32.27-1.997.7-3.973 1-5.967.78-5.19 1.545-10.38 2.252-15.578.057-.42-.385-.907-.636-1.45l-2.364 1.01v-23.712c-3.026 3.436-5.907 5.965-7.82 9.088-1.91 3.118-2.85 6.83-4.217 10.28l-1.166-.223c-.683-1.968-1.365-3.935-2.15-6.203-5.678 7.458-7.025 8.426-11.584 8.433 1.05-2.71-.644-3.64-2.772-4.345-.87-.288-1.877-.58-2.464-1.207-.984-1.05-1.68-2.368-2.89-4.152l6.308-5.227c-.91-.546-1.244-.856-1.635-.964-5.15-1.424-9.345-3.828-10.405-9.677-.09-.5-.97-1.346-1.15-1.267-3.752 1.62-6.26-1.48-9.276-2.48-1.015-.335-1.984-1.658-2.35-2.74-.174-.516.964-1.794 1.775-2.253 1.382-.782 3-1.134 4.474-1.77 1.656-.714 3.365-1.383 4.863-2.36 2.174-1.417 3.577-3.955 2.442-6.06-.7-1.3-3.623-1.656-5.62-1.95-3.253-.476-6.695-.075-9.82-.922-3.9-1.06-8.062-1.355-11.45-4.55-1.26-1.19-2.835-2.1-3.745-3.783-.392-.725-.977-1.537-1.682-1.866-2.744-1.283-2.91-2.92-1.383-5.386 2.474-3.996 5.773-7.587 5.755-12.846-.005-1.436 1.413-3.64 2.713-4.167 3.39-1.37 3.155-3.956 3.167-6.65.007-1.615-.173-3.253.036-4.84.4-3.048 3.782-6.44 6.35-6.367 5.828.17 8.87-4.232 12.504-7.577 1.693-1.558 2.987-3.55 4.47-5.336.505-.607 1.037-1.19 2.167-2.486l-9.6 1.72 1.92-10.88c-.463-.25-.926-.502-1.39-.754-2.62 4.283-4.336 9.444-9.334 11.307-.82-2.895-1.45-5.685-2.46-8.33-.3-.785-1.67-1.16-2.552-1.723-.44.84-.883 1.678-1.633 3.103-1.49-.222-3.504-.352-5.423-.85-3.157-.816-3.308-1.59-1.703-4.496.612-1.104 1.078-2.51.99-3.735-.192-2.71-.778-5.392-1.23-8.24l-2.307-1.36c.733-.998 1.3-2.2 2.23-2.955 3.83-3.12 3.876-3.182.176-6.353 2.34-2.76.312-4.567-1.767-6.362l1.172-.282-1.65-6.965c-.413-.09-.825-.183-1.237-.274-1.396 1.675-2.883 3.283-4.166 5.04-1.674 2.294-4.06 2.98-5.25.933-1.767-3.04-4.058-2.376-6.56-2.058l.31 3.52c-1.097-1.574-1.82-2.61-2.542-3.65l-1.476 1.125 2.408 7.673.954-1.097c1.46.115 3.057-.065 4.3.513.405.188-.272 2.373-.15 3.615.083.833.51 1.85 1.133 2.352.66.535 1.733.56 3.214.97-1.956 1.145-3.997 1.673-4.6 2.904-.47.963.84 2.798 1.258 3.96-.635 1.076-1.518 2.57-2.4 4.067 1.408.54 2.78 1.353 4.235 1.542 1.38.18 2.843-.297 4.27-.484l.26 1.205-8.79 2.12c-.076.196-.152.39-.227.587l6.54 2.25c-.08.27-.16.54-.242.81l-4.96-.378-1.486 3.822c-.698-.89-1.475-1.735-2.056-2.697-.235-.39.168-1.2-.09-1.528-.388-.492-1.102-.725-1.56-.998l-.794 4.895-4.027-1.71-1.962 2.615c4.532.336 6.16-.162 7.346 3.8l3.04-.572c-.072 2.81.418 3.297 2.86 3.844 1.858.416 3.654 1.105 5.477 1.672l-.34.933c-9.543-.924-17.732-5.612-26.303-9.237l.132-.923 6.832-1.023-2.158-12.53c1.492-1.423 5.582-1.317 6.066-6.002l-7.53 3.084-.748-.74c.63-.657 1.142-1.545 1.908-1.925 2.07-1.027 4.707-1.288 5.718-4.82l-8.197 3.644c-.17-.322-.342-.642-.512-.963 1.46-.93 2.86-1.97 4.39-2.768 2.565-1.34 3.472-3.22 1.876-5.74-1.506-2.38-.566-3.847 1.284-5.41.923-.78 1.433-2.05 2.13-3.1-.29-.19-.58-.38-.87-.572-.69.462-1.345 1.25-2.076 1.326-2.264.237-3.37 1.243-4.374 3.427-1.133 2.467-3.033 5.74-5.214 6.308-3.84 1.003-4.988 4.05-7.236 6.29-1.91 1.9-1.44 3.77-.12 6.04l6.533-2.273c1.093 2.948-.59 4.512-2.705 5.825-1.95 1.21-3.933 2.364-6.376 3.826l1.255-2.62-14.617 1.93-.095-.71 1.964-.98-.205-.47-4.955.87c2.316-3.585 4.013-6.597 6.107-9.3 1.145-1.48 3.063-2.337 4.428-3.682.554-.545.937-1.74.747-2.47-.487-1.87-1.34-3.643-2.12-5.643-.477.294-1.18.57-1.68 1.06-4.284 4.18-8.472 8.402-14.477 10.248-1.982.61-2.04 2.57-1.16 4.377.533 1.107 1.068 2.208 1.945 4.01zm5.897 522.507c-1.582-1.588-2.526-3.21-3.89-3.728-1.625-.618-3.722-.712-5.412-.266-2.16.57-5.633.417-5.247 3.983.612 5.645-5.29 12.048-11.112 11.428v-3.542l-.792-.268c-.72 1.463-1.825 2.86-2.1 4.402-1.38 7.723-7.047 12.96-10.95 19.2-1.59 2.545-3.9 4.642-6.006 7.086l-1.583-6.006-1.306-.546-1.108 3.035c-.367-.246-.734-.492-1.1-.74 1.25-5.386 1.565-11.026 4.557-16.226l2.876 2.367c.45-2.387 1.074-4.188 1.072-5.988-.004-5.298-3.877-10.36-1-15.868.02-.04-.29-.254-.76-.658-.86 1.033-1.775 2.013-2.55 3.095-1.27 1.77-2.427 2.513-3.86.128-.317-.53-1.335-1.215-1.68-1.058-1.6.73-3.593 1.378-4.496 2.703-2.03 2.98-3.642 6.276-5.142 9.572-.852 1.87-4.73 5.142-6.113 4.26-3.687-2.357-4.363.226-5.377 2.776-.732 1.843-1.278 4.144-2.684 5.26-3.754 2.98-7.646 2.38-11.295-1.523-.666 1.517-1.327 2.784-1.785 4.12-.59 1.725-.51 3.956-1.6 5.184-5.034 5.662-2.868 12.17-2.632 18.466.015.387.248.964.548 1.113 3.816 1.892 1.656 4.693 1.124 7.224-.214 1.017-.572 2.003-.864 3.003 1.97-.586 3.164-1.642 4.492-2.488.738-.47 1.7-.59 2.56-.865.207.894.556 1.783.583 2.682.036 1.177-.246 2.36-.278 3.545-.077 2.89-.46 5.84-.035 8.66.565 3.743 2.34 4.397 5.345 2.017 1.983-1.57 3.424-3.815 5.168-5.702.712-.77 1.59-1.988 2.382-1.98 4.74.043 6.598-2.603 7.4-6.83.214-1.123 1.586-2.026 2.425-3.03.845 1.008 1.73 1.984 2.52 3.033.69.915 1.268 1.912 1.896 2.872.728-1.06 1.417-2.15 2.196-3.172.646-.847 1.59-2.406 2.074-2.29 4.212 1.02 5.294-2.34 7.122-4.72 2.196-2.857 4.353-5.752 6.685-8.496 1.658-1.95 3.42-3.88 5.422-5.452 2.298-1.806 4.73-3.957 7.43-4.62 4.618-1.136 10.06-5.79 10.96-10.6.802-4.292 4.6-6.073 7.524-8.47.792-.648 2.635.014 3.996.02.51 0 1.222.03 1.497-.27 1.868-2.044 4.287-3.902 5.303-6.33 1.634-3.908 4.337-6.22 7.87-8.12 1.947-1.047 4.126-2.317 5.256-4.09 1.93-3.028 3.275-6.343 7.517-6.673.33-.027.587-.61.935-.855 1.892-1.326 3.7-2.82 5.73-3.888 2.528-1.33 4.337-2.973 4.587-6.07-2.417-.77-5.81 2.44-6.846-2.856-4.545 4.846-8.243 9.612-12.77 13.383-4.56 3.802-9.947 6.615-14.676 9.67zM250.22 403.9c.06-.577.343-1.258.154-1.76-2.04-5.427-3.84-10.974-6.327-16.192-2.998-6.288-6.396-12.41-9.985-18.385-4.652-7.747-9.48-15.38-13.405-23.75-1.935 1.123-1.607 2.924-.536 4.643 7.958 12.77 12.28 27.195 18.452 40.773 2.683 5.9 4.34 12.152 11.648 14.67zm84.294-336.437l.555.718c4.476-1.21 9.165-5.71 10.982-10.49 1.407-3.7 2.823-7.398 4.326-11.06.243-.59.893-1.29 1.472-1.42 3.333-.754 3.92-3.3 4.168-6.084.17-1.9-.812-2.712-2.676-2.823-3.776-.225-6.46 3.06-5.603 7.545.622 3.257-.277 5.48-2.627 7.73-2.265 2.17-4.47 4.654-3.024 8.462.23.61-1.153 2.022-2.018 2.815-1.772 1.625-3.697 3.082-5.558 4.608zm103.76 263.497c-.106-3.107-2.263-4.576-4.02-3.652-5.1 2.684-7.812 8.856-5.986 13.976.262.734 1.284 1.572 2.03 1.652.757.08 1.86-.522 2.366-1.172 1.313-1.69 2.545-3.488 3.503-5.397.993-1.978 1.625-4.137 2.107-5.407zM401.466 69.34l-.812-.66c-2.62 2.5-5.404 4.853-7.818 7.537-2.92 3.247-2.73 4.156.968 7.864 1.657-5.544 2.107-11.497 7.662-14.74zm-261.58 626.548l-2.793-.862c-2.78 2.224-.39 4.465.703 5.066 1.18.65 3.542-.185 5.02-1.023.757-.43 2.6-2.41-.36-3.624l-2.137 4.563-.434-4.122zm92.162-89.455c-2.893 3.1-4.2 7.882-3.21 10.836 4.404-2.744 2.343-7.24 3.21-10.837zM154.585 758.51l.065-.242h-24.24l.012.243h24.163zm204.92-690.38c1.767-2.653 1.162-4.483.07-6.205-.247-.392-1.154-.753-1.51-.59-.4.186-.836 1.08-.705 1.49.523 1.627 1.262 3.186 2.144 5.304zm-22.09 540.323c3.535-.536 4.592-2.797 2.968-6.01l-2.97 6.01z"/><path d="M314.073 83.676l-1.95-4.005c-.88-1.806-.82-3.767 1.162-4.376 6.005-1.846 10.193-6.068 14.476-10.25.5-.486 1.205-.763 1.682-1.057.78 2 1.632 3.774 2.12 5.643.19.73-.194 1.925-.747 2.47-1.365 1.345-3.284 2.202-4.43 3.68-2.093 2.705-3.79 5.717-6.106 9.303l4.954-.872.205.473-1.965.978.095.71 14.618-1.927-1.255 2.62c2.443-1.464 4.427-2.618 6.376-3.827 2.115-1.313 3.797-2.877 2.704-5.825l-6.534 2.273c-1.318-2.268-1.79-4.138.12-6.04 2.25-2.238 3.396-5.287 7.237-6.29 2.18-.568 4.08-3.84 5.214-6.306 1.004-2.183 2.11-3.19 4.375-3.427.73-.076 1.387-.864 2.077-1.326l.87.573c-.698 1.05-1.207 2.32-2.13 3.1-1.85 1.562-2.79 3.028-1.284 5.408 1.597 2.522.69 4.4-1.877 5.74-1.527.798-2.93 1.837-4.388 2.768.17.32.342.64.512.962l8.197-3.643c-1.01 3.532-3.648 3.793-5.717 4.82-.766.38-1.28 1.267-1.908 1.923.25.247.5.493.748.74l7.53-3.084c-.484 4.687-4.574 4.58-6.066 6.002l2.158 12.53c-2.742.412-4.787.718-6.832 1.024l-.132.923c8.572 3.624 16.76 8.313 26.303 9.235l.34-.933c-1.822-.567-3.618-1.257-5.475-1.672-2.443-.547-2.933-1.034-2.862-3.844l-3.04.573c-1.186-3.964-2.815-3.466-7.346-3.802l1.962-2.615 4.027 1.71.794-4.895c.458.273 1.17.506 1.56.997.257.327-.146 1.14.09 1.528.58.962 1.357 1.806 2.055 2.697l1.486-3.822 4.96.38c.08-.27.16-.542.242-.812l-6.54-2.25.225-.586 8.792-2.12-.262-1.206c-1.426.188-2.89.663-4.27.484-1.453-.188-2.827-1-4.235-1.54l2.4-4.067c-.416-1.162-1.728-2.997-1.256-3.96.602-1.23 2.643-1.76 4.6-2.903-1.482-.41-2.555-.436-3.216-.97-.622-.504-1.05-1.52-1.132-2.353-.123-1.242.554-3.427.15-3.615-1.245-.58-2.842-.4-4.3-.513-.32.366-.637.73-.955 1.097l-2.41-7.673 1.477-1.123 2.54 3.65-.308-3.522c2.5-.318 4.792-.983 6.56 2.058 1.19 2.046 3.575 1.36 5.25-.932 1.282-1.756 2.77-3.365 4.165-5.04.412.09.824.183 1.236.274l1.652 6.965-1.172.28c2.08 1.796 4.11 3.604 1.766 6.363 3.7 3.17 3.653 3.234-.177 6.353-.93.757-1.497 1.958-2.23 2.954l2.308 1.362c.45 2.848 1.036 5.53 1.23 8.24.087 1.224-.38 2.63-.99 3.735-1.605 2.906-1.454 3.68 1.703 4.497 1.92.497 3.934.626 5.424.85l1.634-3.104c.88.563 2.253.938 2.553 1.723 1.01 2.644 1.64 5.435 2.46 8.33 4.997-1.863 6.713-7.024 9.335-11.307l1.39.755c-.62 3.51-1.24 7.02-1.92 10.88l9.6-1.72c-1.13 1.295-1.663 1.88-2.167 2.486-1.484 1.787-2.778 3.778-4.47 5.336-3.636 3.345-6.677 7.746-12.506 7.577-2.567-.075-5.947 3.318-6.35 6.365-.208 1.588-.028 3.226-.035 4.84-.012 2.694.224 5.28-3.167 6.652-1.3.526-2.718 2.73-2.713 4.167.018 5.26-3.28 8.85-5.755 12.846-1.526 2.465-1.36 4.103 1.383 5.385.705.33 1.29 1.14 1.682 1.866.91 1.683 2.483 2.594 3.746 3.784 3.387 3.195 7.548 3.49 11.45 4.55 3.124.848 6.566.446 9.82.923 1.996.293 4.918.65 5.62 1.95 1.133 2.104-.27 4.642-2.443 6.06-1.498.976-3.207 1.645-4.862 2.36-1.474.635-3.092.988-4.474 1.77-.81.458-1.95 1.735-1.775 2.25.365 1.084 1.334 2.406 2.35 2.743 3.014.998 5.523 4.1 9.274 2.48.182-.08 1.06.766 1.15 1.265 1.06 5.85 5.258 8.254 10.406 9.677.39.108.726.418 1.635.963l-6.31 5.227c1.21 1.784 1.91 3.102 2.892 4.152.587.626 1.594.92 2.464 1.207 2.13.705 3.823 1.635 2.773 4.346 4.56-.007 5.906-.975 11.584-8.433l2.15 6.203c.388.074.776.15 1.165.223 1.366-3.452 2.307-7.163 4.217-10.28 1.912-3.123 4.793-5.652 7.82-9.09v23.713l2.363-1.01c.25.543.693 1.03.636 1.45-.708 5.2-1.474 10.39-2.254 15.578-.3 1.995-.73 3.97-.998 5.97-.326 2.43-.688 4.873-.752 7.318-.035 1.345.508 2.705.79 4.058 1.32-.384 3.093-.367 3.857-1.238 1.412-1.61 2.232-3.738 3.68-6.335-.124 3.27.513 5.687-1.963 8.265-1.42 1.48-1.453 4.56-1.59 6.95-.36 6.218-2.924 11.052-7.03 15.82-2.666 3.096-3.212 8.05-4.538 12.226-.17.53.57 1.886 1.1 2.02 4.248 1.075 2.677 4.066 1.692 6.123-1.477 3.084-1.885 6.01-2.07 9.454-.325 6.03-3.365 11.752-8.562 14.87-2.622 1.575-5.593 2.703-7.863 4.91-1.667 1.618-3.177 3.4-4.707 5.055-.78-1.398-1.526-2.732-2.272-4.066l-1.132.324c-.46 4.65-.935 9.298-1.372 13.95-.173 1.845-.264 3.697-.393 5.546-1.52-.55-3.037-1.102-4.75-1.724l1.358 29.343c-3.236-.638-6.032-1.19-9.21-1.815.153.758.274 1.836.598 2.85.867 2.716 1.756 5.392-.315 7.998-.244.307-.342.817-.328 1.227.15 4.694.42 9.387.458 14.082.01 1.41-.673 2.812-.906 4.24-.166 1.013-.528 2.37-.05 3.026.677.932 2.046 1.36 3.12 2.004.542-.976 1.28-1.896 1.575-2.94.365-1.297.362-2.697 1.308-4.538.834.92 1.887 1.723 2.466 2.783 3.553 6.503 7.01 13.058 10.46 19.617.32.61.373 1.358.664 2.483l-4.75-.575c-.87 4.455.6 8.454 2.046 12.888-1.596-.586-2.78-1.02-4.71-1.73 1.01 4.218 3.556 4.647 6.74 4.376.144 3.8-2.908 5.223-4.522 7.746-1.1-.71-1.96-1.267-3.55-2.296-.73 2.4-1.628 4.418-1.913 6.52-.33 2.438.112 4.98-.226 7.418-.253 1.826-1.092 3.613-1.928 5.29-.227.454-1.49.774-2.11.59-4.028-1.2-4.348-1.05-5.304 3.137-.158.695-.43 1.364-1.44 2.174-.444-1.558-1.24-3.112-1.263-4.676-.05-3.43.013-6.91.558-10.286.51-3.163.243-5.91-1.495-8.644-.92-1.445-1.333-3.21-2.133-5.228h3.697l.408-.717c-2.27-1.46-4.503-2.996-6.875-4.268-.238-.128-1.596 1.217-1.977 2.08-1.377 3.116-2.592 6.305-3.79 9.497-.27.725-.224 1.57-.324 2.36.814.08 1.676.373 2.436.204 5.114-1.132 5.905-.42 5.05 4.76-.298 1.804-.427 3.67-1 5.387-.87 2.615-2.66 3.086-4.59 1.095-2.233-2.308-4.216-4.875-6.167-7.437-1.73-2.27-3.714-3.755-6.743-3.74-.926.003-1.828-.932-2.792-1.304-1.12-.43-2.953-1.33-3.32-.94-.838.892-1.374 2.47-1.3 3.726.133 2.2.816 4.364 1.268 6.544l-.856.42-5.212-9.825c-.796 8.667.087 16.662 5.747 23.365.57.676.753 1.702 1.045 2.59.842 2.556 1.648 5.124 2.738 8.532l3.018-3.707c.308.08.616.16.924.238-.036 3.8-1.175 7.405-2.884 12.038-1.52-2.013-2.465-3.443-3.6-4.705-.88-.98-2.14-2.57-2.978-2.425-1.228.212-2.762 1.534-3.213 2.74-.85 2.272-1.027 4.797-1.468 7.22-.216 1.188-.4 2.38-.754 4.51-4.095-6.776-8.564-12.167-9.778-19.3-.136-.796-1.452-1.957-2.23-1.965-1.864-.018-2.55-1.04-2.19-2.39 1.544-5.772-3.946-9.633-3.315-15.1l-1.22-.31c-.533.904-1.483 1.786-1.53 2.716-.28 5.32-.988 10.674.628 15.933.178.577.132 1.356-.11 1.91-2.23 5.102.5 8.094 4.164 11.105 1.134.933 1.06 3.316 1.58 5.023.42 1.383.488 3.304 1.44 4.015 2.915 2.183 2.23 4.72 1.15 7.22-2.823 6.526-5.63 13.074-8.866 19.398-1.36 2.66-3.37 5.028-6.89 5.78-1.615.344-3.148 2.226-4.216 3.76-2.335 3.36-4.433 6.89-6.462 10.447-1.25 2.193-2.49 3.653-5.17 1.13-.407 1.38-.72 2.374-.993 3.38-.595 2.204-.512 4.758-3.526 5.533-.606.156-.978 1.343-1.396 2.09-1.252 2.238-2.26 4.65-3.758 6.707-2.294 3.154-4.83 6.084-4.476 10.38.05.622-.594 1.303-.937 1.996-6.55-1.516-5.076-6.484-4.633-10.817-4.162-.805-6.703.706-8.33 4.162-.383.814-1.22 1.448-1.933 2.068-2.184 1.9-4.424 3.733-6.613 5.627-1.604 1.39-3.324 2.694-4.69 4.294-1.142 1.336-1.866 3.034-2.736 4.594-.52.933-.963 1.908-1.342 2.667-1.586-1.152-2.874-1.924-3.948-2.925-.742-.69-1.326-1.636-1.74-2.574-.687-1.562-1.225-3.196-1.736-4.828-.218-.695-.356-1.48-.27-2.19.137-1.137.98-3.05.672-3.24-1.992-1.215-4.204-2.083-6.406-2.897-.086-.032-1.32 1.786-1.13 2.507.49 1.848.688 3.168-1.678 3.582-2.348.41-4.763-.184-4.46-2.686.39-3.202-1.283-7.305 2.903-9.482.53-.276.787-1.254.99-1.96 2.67-9.295 5.35-18.588 7.89-27.918.31-1.138-.117-2.5-.305-3.745-.405-2.688-1.003-5.357-1.238-8.06-.066-.755.805-1.633 1.335-2.393 1.206-1.73 2.713-3.3 3.64-5.165 1.006-2.027 1.46-4.02-2.296-3.68-1.017.092-2.896-1.682-3.204-2.897-.84-3.302-.98-6.774-1.528-10.158-.448-2.77-1.083-5.51-1.635-8.262l-1.344-.03-2.412 6.863c-.586-1.265-1.105-1.88-1.125-2.508-.195-5.996-.297-11.995-.442-17.993-.07-2.868-.15-5.736-.27-8.602-.187-4.513-.34-9.03-.63-13.537-.586-9.013-1.058-18.04-1.99-27.02-.356-3.416-1.94-6.692-2.767-10.08-.225-.925.127-2.066.438-3.037 1.644-5.137 3.39-10.24 5.014-15.386.247-.785.188-1.75.003-2.574-1.92-8.57-3.896-17.125-6.458-25.646l-1.2 10.23-.942.044-1.558-10.522c-2.377 1.002-6.218-.606-7.153-2.785-3.656-8.52-7.244-17.07-11-25.546-1.95-4.398-3.707-9.01-6.446-12.893-2.76-3.915-6.628-7.05-10.31-10.835l-1.47 3.042c-7.695-2.608-10.988-9.206-14.426-15.578-.98-1.82-1.248-4.02-1.4-6.228 5.803 3.202 8.16 8.76 10.33 14.728.916-.685 1.326-.965 1.707-1.28 3.604-2.98 3.74-3.14.108-6.278-3.4-2.937-1.622-6.6-2.356-10.758l2.57 2.34c-.74-4.065-1.926-7.604-1.927-11.142-.003-10.072.452-20.145.816-30.214.026-.703.674-1.81 1.23-1.952.606-.154 1.588.447 2.15.987 1.463 1.405 2.786 2.956 4.977 4.292l-.63-14.294.79-.12c.58 1.27 1.157 2.54 1.785 3.917 2.37-3.133 2.694-5.754.603-8.076-4.068-4.517-3.655-9.077-.432-14.232l2.864 8.508c1.986-5.88-1.77-10.46-1.054-15.25.706-4.73 2.06-9.364 2.46-14.3-1.01 2.54-2.018 5.084-3.083 7.768-5.158-7.21-1.94-26.942 5.603-32.947l10.52 19.985 1.86-4.056 1.58 1.18c1.402-1.91 2.498-3.93 4.095-5.415 1.432-1.33 2.96-4.43 5.66-.277l.68-4.153c.183-.048.442-.202.547-.13 5.547 3.806 5.496 3.754 10.674-1.08 1-.934 2.647-1.9 3.855-1.745 2.553.327 3.083-1.046 3.81-2.89.76-1.934 1.934-3.704 2.874-5.572.667-1.327 1.246-2.7 1.863-4.05l3.334-7.317c.354.094.707.19 1.06.283.208 1.51.415 3.022.62 4.533.248.09.494.18.74.272 1.978-4.29 3.955-8.578 5.93-12.867l1.418.354c-.308 2.67-.572 5.345-.94 8.006-.307 2.235-1.058 4.458-1.03 6.68.036 2.85-.746 4.71-3.642 5.544-1.308.376-2.492 1.185-3.584 2.083 5.714-.228 10.22-2.885 13.6-7.355 1.876-2.482 3.208-5.37 4.93-7.977.724-1.093 1.827-1.934 2.757-2.89l2.6 3.635 6.436-3.727 1.432 2.338c1.55-2.67 3.14-5.165 4.422-7.81.31-.637-.35-1.8-.68-2.68-.754-2.006-1.852-3.93-2.27-5.997-.227-1.133.54-2.532 1.043-3.736 1.294-3.107 2.72-6.16 4.017-9.265.236-.565-.046-1.35.197-1.907.455-1.043 1.12-1.995 1.698-2.984.938.6 1.898 1.173 2.805 1.82.39.277.672.707 1.065 1.136.218-.432.427-.744.386-.78-3.01-2.728-3.793-6.63-5.273-10.138-.642-1.522-1.16-3.27-1.084-4.885.184-3.898-.23-4.468-4.714-3.8.557-2.717 1.15-5.185 1.537-7.686.182-1.176.408-2.69-.144-3.58-5.136-8.283-8.802-17.523-15.914-24.543-.72-.71-.758-2.115-.645-3.607 5.65 4.452 11.64 7.575 19.373 9.05zm51.182 65.068c.14-.518.28-1.037.418-1.555-6.36-1.572-13.9-1.368-16.15-10.548 3.997-.19 7.64-.355 11.283-.54.966-.048 1.96-.338 2.888-.187 1.36.22 3.106.37 3.857 1.255.55.645-.26 2.425-.43 3.703-.2 1.472-.995 3.364-.372 4.312.683 1.04 2.81 1.85 4.09 1.61 2.006-.38 4.562-1.228 5.593-2.752 2.922-4.317 6.136-8.592 6.762-14.12.436-3.84-.75-5.676-4.57-5.62-3.327.047-6.648.455-9.972.697-1.913.14-1.78 1.25-1.56 2.74.24 1.653.054 3.37.054 5.057-1.19-.51-1.677-1.068-1.918-1.717-1.233-3.326-2.272-6.73-3.635-10-1.147-2.754-2.3-2.827-3.913-.393-1.162 1.754-2.403 2.7-4.553 1.632-.628-.312-1.452-.374-2.173-.328-4.745.307-9.483.764-14.232.996-4.514.22-7.03 3.688-6.02 8.11.49 2.136.398 4.42.45 6.64.108 4.597-.144 9.06 3.48 12.948 3.522 3.782 7.63 7.308 8.896 12.827.287 1.25 1.827 2.294 2.943 3.256 3.626 3.126 7.752 1.51 11.767 1.16 7.01-.608 10.444-3.933 10.68-10.84.032-.895-.945-2.434-1.73-2.64-3.062-.81-6.216-1.384-9.372-1.71-3.713-.383-7.468-.34-11.188-.677-.677-.06-1.268-1.068-1.9-1.638.7-.586 1.32-1.354 2.124-1.698.626-.268 1.477.012 2.23.013 5.393.007 10.785.004 16.177.004zm-7.067 69.49l-.69.882c.398-2.432.152-4.823 1.176-6.375 2.05-3.107.975-5.696-.685-8.065-1.684-2.4-1.366-4.608-1.11-7.285.533-5.6.495-11.277.295-16.908-.033-.933-2.02-1.888-3.23-2.632-.35-.217-1.13.262-1.715.423.395 1.027.896 2.028 1.157 3.088.32 1.305.793 2.72.574 3.978-.45 2.6-1.718 5.095-1.917 7.69-.264 3.457.27 6.968.287 10.456.058 11.75-.278 23.514.137 35.252.415 11.73-1.71 23.542 1.584 35.225 1.192 4.228.7 8.918 1.083 13.387.236 2.747.68 5.476 1.03 8.212l1.226-.09c0-3.516-.025-7.033.003-10.55.175-22.346-.558-44.712.795-66.686zm12.755-24.23c-1.132.957-2.507 1.55-2.593 2.29-.442 3.82-.76 7.686-.617 11.517.03.82 2.127 2.102 3.318 2.156.903.04 2.303-1.362 2.726-2.423.703-1.766.64-3.82 1.183-5.67 1.377-4.697.633-8.197-2.897-11.904l.635 7.954c-.6-1.344-1.032-2.307-1.755-3.92zm-94.06 155.65l1.087-.527c-.51-4.038-.79-8.125-1.638-12.09-.375-1.755-1.63-3.582-3.01-4.763-.777-.665-2.754-.407-3.933.07-.62.252-1.255 2.183-.906 2.825 2.664 4.9 5.57 9.67 8.4 14.483zM401.232 227.18c-.54 1.998 2.446 8.758 4.027 9.04.504.09 1.58-.517 1.65-.933.386-2.236.675-4.535-1.916-5.873-1.215-.626-2.357-1.394-3.76-2.234zm-25.725-126.264l-.837 1.014c1.79 1.157 3.453 2.71 5.413 3.354 1.728.567 3.788.12 6.06.12-2.7-4.284-7.008-3.546-10.635-4.488zM302.268 258.99c.905-1.734 1.907-3.436 2.675-5.237.292-.686.36-1.86-.04-2.333-.374-.444-1.545-.47-2.285-.31-2.977.647-3.14 4.986-.35 7.88zm102.356-18.012l-1.326-.383c-.39 1.325-1.005 2.64-1.072 3.98-.03.637.986 1.325 1.53 1.99.406-.725 1.075-1.42 1.16-2.18.122-1.112-.174-2.27-.292-3.407zm-77.12-127.595l-1.845-.37-.697 3.868c.584.07 1.647.29 1.68.187.377-1.2.598-2.448.86-3.684zm72.966 152.784l-1.6-.72c-.79 1.74-1.58 3.483-2.372 5.225l1.35.633c.873-1.713 1.747-3.425 2.622-5.138zM373.08 80.203l-.962.568c.396.73.657 1.912 1.22 2.08.893.265 1.987-.15 2.997-.275-.036-.334-.072-.667-.11-1-1.047-.458-2.096-.915-3.145-1.372zM319.97 606.183c4.73-3.055 10.116-5.87 14.68-9.67 4.526-3.77 8.224-8.537 12.77-13.382 1.036 5.297 4.428 2.088 6.845 2.857-.25 3.097-2.06 4.74-4.587 6.07-2.03 1.07-3.84 2.562-5.73 3.888-.348.244-.605.828-.936.854-4.243.33-5.587 3.644-7.517 6.673-1.13 1.772-3.31 3.042-5.257 4.09-3.532 1.9-6.234 4.212-7.87 8.118-1.015 2.43-3.434 4.29-5.302 6.33-.274.3-.987.273-1.497.27-1.36-.004-3.205-.666-3.996-.018-2.925 2.397-6.722 4.178-7.525 8.47-.9 4.81-6.342 9.464-10.96 10.6-2.702.663-5.132 2.814-7.43 4.62-2.002 1.573-3.764 3.502-5.422 5.452-2.332 2.744-4.49 5.64-6.685 8.497-1.828 2.38-2.91 5.74-7.122 4.72-.482-.116-1.427 1.444-2.073 2.29-.78 1.02-1.468 2.11-2.196 3.172-.626-.96-1.205-1.957-1.894-2.87-.79-1.05-1.676-2.025-2.52-3.033-.84 1.003-2.212 1.906-2.425 3.028-.802 4.227-2.66 6.873-7.4 6.83-.793-.008-1.67 1.21-2.382 1.98-1.744 1.886-3.185 4.13-5.168 5.7-3.006 2.382-4.78 1.727-5.345-2.015-.426-2.822-.042-5.77.035-8.66.032-1.185.314-2.368.278-3.546-.027-.9-.376-1.788-.582-2.682-.86.276-1.823.394-2.56.864-1.33.845-2.524 1.9-4.493 2.487.292-1 .65-1.986.864-3.003.532-2.53 2.692-5.332-1.123-7.225-.3-.15-.534-.727-.548-1.114-.236-6.295-2.402-12.804 2.632-18.465 1.09-1.226 1.01-3.458 1.6-5.182.457-1.337 1.12-2.604 1.786-4.12 3.65 3.902 7.54 4.503 11.295 1.522 1.405-1.117 1.95-3.417 2.683-5.26 1.014-2.55 1.69-5.132 5.377-2.776 1.38.883 5.26-2.388 6.113-4.26 1.5-3.295 3.11-6.592 5.142-9.57.903-1.326 2.895-1.975 4.496-2.704.346-.157 1.363.528 1.682 1.058 1.432 2.386 2.59 1.642 3.86-.127.775-1.08 1.69-2.06 2.55-3.094.47.403.78.617.76.658-2.878 5.51.995 10.57 1 15.868 0 1.8-.624 3.6-1.073 5.99-1.302-1.07-1.918-1.58-2.878-2.368-2.992 5.2-3.306 10.84-4.558 16.227l1.1.74 1.11-3.034 1.306.546 1.583 6.006c2.106-2.444 4.415-4.54 6.007-7.086 3.9-6.24 9.57-11.477 10.95-19.2.275-1.543 1.378-2.938 2.1-4.402l.79.268v3.543c5.822.62 11.725-5.782 11.114-11.427-.386-3.566 3.088-3.414 5.247-3.984 1.69-.447 3.788-.353 5.414.265 1.36.52 2.304 2.14 3.886 3.728zm-6.3 11.797c-1.37-.885-2.375-1.922-2.782-1.724-1.02.495-1.77 1.55-2.63 2.38.782.38 1.598 1.12 2.337 1.05.862-.083 1.656-.874 3.074-1.706zM86.17 727.38c-2.664-3.543-2.367-13.034.535-17.114 3.01-4.23 8.792-5.913 14.225-4.14 4.768 1.556 8.915 4.39 14.813 10.205 2.455-2.08 5.08-4.05 7.372-6.35 1.3-1.304 2-3.185 3.065-4.742 2.65-3.873 6.66-4.274 10.86-4.167 1.604.042 3.21.008 4.98.008-1.87 1.352-3.462 2.506-5.168 3.742l-.432-1.59c-.233.29-.55.508-.53.69.057.554.293 1.578.375 1.57 4.913-.487 9.908 2.56 14.756-.296 1.55-.912 2.947-.164 5.663 3.146-.594.097-1.067.18-1.543.25-.5.076-1.002.142-2.008.282 4.475 3.493 9.28 4.056 14.715 4.1-3.402 2.076-6.444 2.305-9.65 1.27-4.516-1.456-9.096-2.735-13.544-4.372-2.838-1.044-5.268-.583-7.643.96-1.807 1.174-3.616 2.364-5.31 3.69-2.15 1.685-2.008 3.643.52 4.706 3.272 1.375 6.728 2.302 10.048 3.57 1.708.653 3.276 1.664 4.943 2.435.462.214 1.105.32 1.575.18 3.613-1.082 7.49.104 11.02-1.156 4.033-1.44 8.14-2.867 11.872-4.92 10.82-5.958 21.324-12.502 32.246-18.256 5.278-2.78 11.212-4.32 16.86-6.385.366-.133.84.037 1.242.064 1.006 3.45-.906 4.735-3.727 5.895-15.696 6.454-28.828 16.787-41.04 28.242-12.578 11.796-13.904 12.903-29.056 16.466l-.877 3.362 5.39 6.144c-.177.41-.353.822-.528 1.233-2.316-.168-4.63-.383-6.95-.485-1.477-.065-2.97-.046-4.442.08-2.564.222-5.113.665-7.68.778-.81.036-2.178-.53-2.348-1.103-.2-.677.51-1.727 1.016-2.49 1.015-1.534 2.158-2.982 3.25-4.466.205.195.41.39.617.584l-1.012-3.61c-12.463-1.173-24.466-4.445-36.144-8.97-2.4-.93-4.917-1.856-6.948-3.364-2.103-1.562-3.68-3.83-5.49-5.79 1.857.41 3.815 1.42 5.55 1.125 6.307-1.08 12.432-3.596 18.94-1.548.625-1.463 1.074-2.548 1.55-3.62 2.04-4.578 2.2-4.79-1.792-7.74-3.415-2.522-7.094-4.815-10.945-6.577-3.175-1.452-10.79 2.24-11.357 5.234-.826 4.37-1.24 8.823-1.833 13.24zm113.87-19.44l-.26-.38c-13.834 8.66-27.67 17.318-41.198 25.786.72-.057 2.208.18 3.366-.332 3.54-1.563 7.18-3.08 10.368-5.224 6.434-4.33 12.585-9.076 18.875-13.622 2.925-2.112 5.9-4.154 8.85-6.23zm-73.99 3.52c3.03 1.28 5.705.3 8.234-2.825-2.974.155-6.133-.632-8.233 2.826zM250.22 403.9c-7.307-2.52-8.965-8.77-11.647-14.672-6.173-13.58-10.494-28.003-18.45-40.773-1.072-1.72-1.4-3.52.535-4.644 3.926 8.373 8.752 16.006 13.405 23.752 3.59 5.975 6.987 12.097 9.985 18.385 2.487 5.218 4.288 10.765 6.327 16.19.188.505-.094 1.186-.155 1.764zM334.514 67.463c1.86-1.526 3.786-2.983 5.557-4.608.865-.793 2.25-2.206 2.018-2.815-1.446-3.81.76-6.293 3.024-8.462 2.35-2.25 3.25-4.473 2.626-7.73-.858-4.485 1.827-7.77 5.603-7.545 1.864.11 2.846.923 2.677 2.823-.25 2.784-.835 5.33-4.168 6.083-.58.13-1.23.83-1.473 1.42-1.503 3.662-2.92 7.36-4.326 11.06-1.816 4.78-6.505 9.28-10.982 10.49l-.554-.717zM438.274 330.96c-.482 1.27-1.115 3.43-2.107 5.407-.958 1.91-2.19 3.707-3.503 5.397-.505.65-1.61 1.253-2.365 1.172-.747-.08-1.77-.918-2.032-1.652-1.826-5.12.885-11.292 5.987-13.976 1.756-.923 3.914.545 4.02 3.652zM401.466 69.34c-5.555 3.243-6.005 9.196-7.662 14.74-3.7-3.707-3.89-4.616-.968-7.863 2.415-2.684 5.198-5.037 7.818-7.536l.812.66zM139.886 695.888l.434 4.12 2.138-4.562c2.958 1.215 1.116 3.194.36 3.623-1.478.837-3.84 1.67-5.02 1.022-1.093-.6-3.485-2.842-.704-5.066.965.297 1.96.604 2.792.862zM232.048 606.433c-.866 3.598 1.195 8.093-3.21 10.836-.99-2.955.317-7.736 3.21-10.837zM154.585 758.51h-24.162c-.004-.08-.01-.16-.013-.242h24.24l-.065.243zM359.504 68.13c-.88-2.12-1.62-3.677-2.144-5.305-.132-.41.305-1.304.706-1.49.355-.163 1.262.198 1.51.59 1.09 1.722 1.695 3.552-.072 6.204zM337.414 608.453l2.97-6.01c1.624 3.213.566 5.474-2.97 6.01z"/><path fill="#fff" d="M365.255 148.744c-5.392 0-10.784.003-16.176-.003-.752 0-1.604-.28-2.23-.012-.803.344-1.424 1.113-2.123 1.698.63.57 1.222 1.577 1.9 1.638 3.718.338 7.474.293 11.187.677 3.155.327 6.31.9 9.373 1.71.784.207 1.76 1.747 1.73 2.642-.237 6.906-3.672 10.23-10.68 10.84-4.016.35-8.142 1.965-11.768-1.162-1.117-.962-2.657-2.006-2.944-3.256-1.266-5.52-5.373-9.045-8.897-12.827-3.624-3.89-3.37-8.352-3.48-12.95-.052-2.218.04-4.5-.45-6.638-1.01-4.423 1.506-7.89 6.02-8.11 4.75-.233 9.487-.69 14.233-.997.72-.047 1.545.015 2.173.327 2.15 1.067 3.39.122 4.553-1.632 1.612-2.434 2.765-2.36 3.913.393 1.363 3.27 2.402 6.675 3.635 10 .24.65.728 1.207 1.918 1.718 0-1.688.187-3.404-.055-5.057-.217-1.49-.352-2.6 1.562-2.74 3.324-.24 6.645-.65 9.97-.697 3.823-.055 5.008 1.78 4.572 5.622-.627 5.527-3.84 9.802-6.76 14.12-1.032 1.523-3.588 2.372-5.595 2.75-1.28.24-3.407-.57-4.09-1.61-.623-.947.173-2.84.37-4.31.173-1.28.98-3.06.433-3.704-.75-.884-2.497-1.033-3.857-1.254-.927-.15-1.92.14-2.888.188-3.643.184-7.286.35-11.284.54 2.25 9.18 9.792 8.975 16.15 10.546l-.42 1.554zm-12.98 8.74c2.083 3.24 4.652 3.597 7.362 2.833.738-.208 1.246-1.235 1.86-1.886-.714-.558-1.43-1.592-2.14-1.588-2.362.013-4.72.398-7.08.64zm2.514-26.756c-2.672-1.246-4.385.442-4.656 3.842 1.344-1.11 2.857-2.36 4.655-3.842zM358.188 218.234c-1.354 21.974-.62 44.34-.795 66.687-.027 3.517-.004 7.034-.004 10.55l-1.228.09c-.35-2.738-.793-5.467-1.03-8.213-.383-4.47.11-9.16-1.08-13.386-3.294-11.682-1.17-23.494-1.585-35.224-.415-11.737-.08-23.5-.137-35.252-.017-3.488-.55-7-.287-10.456.198-2.595 1.465-5.09 1.918-7.69.22-1.258-.252-2.673-.573-3.977-.26-1.06-.762-2.06-1.157-3.087.584-.16 1.364-.64 1.716-.423 1.208.744 3.196 1.7 3.23 2.632.2 5.63.238 11.307-.297 16.908-.256 2.678-.574 4.885 1.11 7.285 1.66 2.37 2.735 4.958.684 8.066-1.024 1.553-.778 3.944-1.175 6.376l.688-.882zM370.943 194.003l1.755 3.92-.635-7.954c3.53 3.706 4.274 7.206 2.896 11.902-.544 1.85-.48 3.904-1.184 5.67-.422 1.062-1.823 2.465-2.725 2.424-1.19-.055-3.287-1.338-3.317-2.155-.143-3.83.174-7.696.617-11.516.086-.74 1.46-1.333 2.593-2.29zM276.884 349.653c-2.83-4.812-5.735-9.583-8.4-14.484-.35-.643.287-2.574.905-2.825 1.178-.478 3.156-.737 3.933-.07 1.38 1.18 2.634 3.006 3.01 4.762.847 3.966 1.126 8.053 1.637 12.09l-1.086.526zM401.23 227.18c1.403.84 2.545 1.607 3.76 2.235 2.59 1.338 2.302 3.637 1.917 5.873-.07.415-1.147 1.02-1.65.932-1.58-.28-4.567-7.04-4.026-9.04zM375.505 100.916c3.627.942 7.935.204 10.636 4.487-2.27 0-4.33.448-6.058-.12-1.96-.643-3.622-2.195-5.413-3.353l.835-1.014zM302.268 258.99c-2.79-2.894-2.626-7.233.35-7.88.74-.16 1.91-.134 2.286.31.4.472.33 1.648.04 2.333-.77 1.8-1.77 3.502-2.676 5.238zM404.624 240.978c.118 1.137.415 2.295.292 3.405-.084.76-.753 1.456-1.16 2.18-.542-.664-1.56-1.352-1.53-1.988.067-1.34.683-2.655 1.073-3.98l1.324.383zM327.503 113.383c-.262 1.236-.483 2.484-.86 3.684-.033.104-1.096-.116-1.68-.186l.696-3.867 1.843.37zM400.47 266.167c-.874 1.713-1.75 3.426-2.623 5.14l-1.35-.634 2.373-5.226 1.6.72zM373.08 80.203l3.147 1.37c.036.334.072.667.11 1-1.01.127-2.105.54-2.998.275-.564-.167-.825-1.35-1.22-2.078l.96-.567zM313.67 617.98c-1.42.832-2.213 1.623-3.075 1.705-.74.07-1.555-.67-2.337-1.05.86-.83 1.61-1.885 2.63-2.38.407-.196 1.413.84 2.78 1.725zM86.17 727.38c.592-4.417 1.007-8.87 1.837-13.242.568-2.994 8.182-6.686 11.356-5.234 3.85 1.762 7.53 4.056 10.945 6.577 3.993 2.95 3.83 3.163 1.793 7.74-.477 1.073-.926 2.16-1.55 3.62-6.508-2.048-12.633.468-18.94 1.548-1.735.297-3.693-.715-5.55-1.126l.11.12zM200.04 707.94c-2.952 2.073-5.926 4.116-8.85 6.228-6.29 4.545-12.44 9.292-18.874 13.622-3.19 2.146-6.828 3.66-10.368 5.224-1.158.512-2.646.275-3.366.332l41.198-25.786.26.38zM126.05 711.46c2.1-3.456 5.26-2.67 8.234-2.825-2.53 3.124-5.205 4.104-8.233 2.826z"/><path d="M352.276 157.483c2.36-.242 4.72-.628 7.08-.64.71-.005 1.427 1.03 2.14 1.588-.613.652-1.12 1.68-1.86 1.887-2.71.764-5.278.408-7.36-2.834zM354.79 130.728l-4.656 3.842c.27-3.4 1.983-5.088 4.655-3.842z"/></svg>